<?xml version="1.0" encoding="UTF-8" standalone="no"?>
<svg
   xmlns:dc="http://purl.org/dc/elements/1.1/"
   xmlns:cc="http://creativecommons.org/ns#"
   xmlns:rdf="http://www.w3.org/1999/02/22-rdf-syntax-ns#"
   xmlns:svg="http://www.w3.org/2000/svg"
   xmlns="http://www.w3.org/2000/svg"
   xmlns:sodipodi="http://sodipodi.sourceforge.net/DTD/sodipodi-0.dtd"
   xmlns:inkscape="http://www.inkscape.org/namespaces/inkscape"
   id="Ebene_1"
   data-name="Ebene 1"
   viewBox="0 0 256.21 48.872819"
   version="1.1"
   sodipodi:docname="logo-yuanda (copy).svg"
   width="256.20999"
   height="48.872818"
   inkscape:version="0.92.3 (2405546, 2018-03-11)">
  <metadata
     id="metadata63">
    <rdf:RDF>
      <cc:Work
         rdf:about="">
        <dc:format>image/svg+xml</dc:format>
        <dc:type
           rdf:resource="http://purl.org/dc/dcmitype/StillImage" />
        <dc:title>logo</dc:title>
      </cc:Work>
    </rdf:RDF>
  </metadata>
  <defs
     id="defs61" />
  <sodipodi:namedview
     pagecolor="#ffffff"
     bordercolor="#666666"
     borderopacity="1"
     objecttolerance="10"
     gridtolerance="10"
     guidetolerance="10"
     inkscape:pageopacity="0"
     inkscape:pageshadow="2"
     inkscape:window-width="1883"
     inkscape:window-height="1056"
     id="namedview59"
     showgrid="false"
     fit-margin-top="0"
     fit-margin-left="0"
     fit-margin-right="0"
     fit-margin-bottom="0"
     inkscape:snap-global="true"
     inkscape:snap-nodes="true"
     inkscape:snap-others="true"
     inkscape:snap-page="true"
     inkscape:snap-grids="false"
     inkscape:snap-to-guides="false"
     inkscape:snap-bbox="true"
     inkscape:zoom="3.2235305"
     inkscape:cx="166.43995"
     inkscape:cy="22.278166"
     inkscape:window-x="37"
     inkscape:window-y="24"
     inkscape:window-maximized="1"
     inkscape:current-layer="Ebene_1" />
  <title
     id="title2">logo</title>
  <g
     id="g930">
    <rect
       transform="scale(-1)"
       y="-48.872818"
       x="-256.20999"
       height="48.832821"
       width="256.20999"
       id="rect899"
       style="fill:#373e47;fill-opacity:1;stroke:none;stroke-width:1.03312135;stroke-opacity:1" />
    <g
       id="g897">
      <polygon
         points="83.55,17.49 87.07,10.45 82.36,0 75.34,0 "
         style="fill:#ffffff"
         id="polygon4" />
      <polygon
         points="101.98,0.02 94.95,0.02 80.92,28.11 87.94,28.12 "
         style="fill:#ffffff"
         id="polygon6" />
      <path
         inkscape:connector-curvature="0"
         d="m 518.07,116 a 7,7 0 0 1 -1.58,5 5.77,5.77 0 0 1 -4.39,1.66 5.66,5.66 0 0 1 -4.38,-1.72 7.3,7.3 0 0 1 -1.58,-5.12 v -15.71 h -6.09 v 15.8 q 0,6.14 3.2,9.21 3.2,3.07 8.77,3.09 a 15.6,15.6 0 0 0 5,-0.77 9.88,9.88 0 0 0 3.83,-2.33 10.39,10.39 0 0 0 2.43,-3.89 15.91,15.91 0 0 0 0.85,-5.49 v -15.61 h -6.08 z"
         transform="translate(-394.38,-99.86)"
         style="fill:#ffffff"
         id="path8" />
      <polygon
         points="162.91,27.94 152.62,2.37 149.67,9.59 156.55,27.93 "
         style="fill:#ffffff"
         id="polygon10" />
      <polygon
         points="133.6,27.92 139.77,27.93 151.11,0.17 151.07,0.08 145.46,0.07 "
         style="fill:#ffffff"
         id="polygon12" />
      <polygon
         points="167.19,0.28 167.18,27.94 173.18,27.94 173.19,10.36 186.58,27.95 191.75,27.95 191.77,0.29 185.76,0.29 185.75,17.32 172.8,0.28 "
         style="fill:#ffffff"
         id="polygon14" />
      <path
         inkscape:connector-curvature="0"
         d="m 616.15,104.12 a 14.19,14.19 0 0 0 -4.66,-2.9 16.26,16.26 0 0 0 -5.94,-1 h -10.79 v 27.66 h 10.78 a 15.94,15.94 0 0 0 6,-1.06 14.24,14.24 0 0 0 4.66,-2.92 12.93,12.93 0 0 0 3,-4.39 14.05,14.05 0 0 0 1.07,-5.45 v -0.08 a 13.81,13.81 0 0 0 -1.07,-5.43 12.88,12.88 0 0 0 -3.05,-4.43 z m -2.27,10 a 8.78,8.78 0 0 1 -0.62,3.36 8,8 0 0 1 -1.7,2.6 7.16,7.16 0 0 1 -2.63,1.7 9.25,9.25 0 0 1 -3.39,0.59 h -4.71 v -16.71 h 4.7 a 9.06,9.06 0 0 1 3.4,0.61 7.7,7.7 0 0 1 2.63,1.72 7.81,7.81 0 0 1 1.69,2.65 9,9 0 0 1 0.62,3.36 z"
         transform="translate(-394.38,-99.86)"
         style="fill:#ffffff"
         id="path16" />
      <polygon
         points="249.85,27.93 256.21,27.94 245.96,2.46 243.01,9.68 "
         style="fill:#ffffff"
         id="polygon18" />
      <polygon
         points="226.89,27.92 233.09,27.93 244.45,0.26 244.37,0.08 238.76,0.08 "
         style="fill:#ffffff"
         id="polygon20" />
      <path
         inkscape:connector-curvature="0"
         d="m 475.3,135.94 h 5.7 a 5,5 0 0 1 3.65,1.27 3.88,3.88 0 0 1 1.08,2.87 v 0 a 3.92,3.92 0 0 1 -0.75,2.48 4.26,4.26 0 0 1 -1.94,1.4 l 3.06,4.48 h -3.22 l -2.69,-4 h -2.17 v 4 h -2.76 z m 5.55,6.09 a 2.32,2.32 0 0 0 1.57,-0.48 1.65,1.65 0 0 0 0.54,-1.29 v 0 a 1.6,1.6 0 0 0 -0.57,-1.34 2.51,2.51 0 0 0 -1.59,-0.45 h -2.74 V 142 Z"
         transform="translate(-394.38,-99.86)"
         style="fill:#80bc00"
         id="path22" />
      <path
         inkscape:connector-curvature="0"
         d="m 494.33,148.7 a 6.83,6.83 0 0 1 -2.67,-0.51 6.61,6.61 0 0 1 -2.1,-1.38 6.24,6.24 0 0 1 -1.38,-2 6.47,6.47 0 0 1 -0.49,-2.52 v 0 a 6.39,6.39 0 0 1 0.5,-2.51 6.43,6.43 0 0 1 3.51,-3.46 7.24,7.24 0 0 1 5.34,0 6.65,6.65 0 0 1 2.11,1.38 6.1,6.1 0 0 1 1.37,2 6.38,6.38 0 0 1 0.49,2.51 v 0 a 6.22,6.22 0 0 1 -0.5,2.51 6.35,6.35 0 0 1 -1.39,2.06 6.43,6.43 0 0 1 -2.11,1.4 6.92,6.92 0 0 1 -2.68,0.52 z m 0,-2.54 a 3.66,3.66 0 0 0 1.52,-0.31 3.38,3.38 0 0 0 1.19,-0.84 3.86,3.86 0 0 0 0.77,-1.24 4,4 0 0 0 0.28,-1.52 v 0 a 4,4 0 0 0 -0.28,-1.52 3.71,3.71 0 0 0 -0.78,-1.26 3.84,3.84 0 0 0 -1.21,-0.85 3.66,3.66 0 0 0 -1.52,-0.32 3.81,3.81 0 0 0 -1.54,0.31 3.44,3.44 0 0 0 -1.18,0.84 4,4 0 0 0 -0.77,1.24 4.27,4.27 0 0 0 -0.28,1.52 v 0 a 4.33,4.33 0 0 0 0.28,1.53 3.8,3.8 0 0 0 2,2.1 3.64,3.64 0 0 0 1.56,0.32 z"
         transform="translate(-394.38,-99.86)"
         style="fill:#80bc00"
         id="path24" />
      <path
         inkscape:connector-curvature="0"
         d="m 503.47,136 h 5.81 a 4.43,4.43 0 0 1 3.27,1.11 2.9,2.9 0 0 1 0.86,2.13 v 0 a 3,3 0 0 1 -0.13,1 2.85,2.85 0 0 1 -0.88,1.33 3,3 0 0 1 -0.63,0.43 4.12,4.12 0 0 1 1.71,1.12 2.78,2.78 0 0 1 0.62,2 v 0 a 3.25,3.25 0 0 1 -0.33,1.5 2.84,2.84 0 0 1 -0.94,1.07 4.4,4.4 0 0 1 -1.49,0.65 8.18,8.18 0 0 1 -1.92,0.21 h -5.95 z m 5.23,5 a 2.86,2.86 0 0 0 1.45,-0.31 1.07,1.07 0 0 0 0.54,-1 v 0 a 1.13,1.13 0 0 0 -0.47,-1 2.31,2.31 0 0 0 -1.34,-0.33 h -2.72 V 141 Z m 0.73,5 a 2.55,2.55 0 0 0 1.43,-0.33 1.12,1.12 0 0 0 0.52,-1 v 0 a 1.17,1.17 0 0 0 -0.48,-1 2.56,2.56 0 0 0 -1.56,-0.37 h -3.19 v 2.76 z"
         transform="translate(-394.38,-99.86)"
         style="fill:#80bc00"
         id="path26" />
      <path
         inkscape:connector-curvature="0"
         d="m 522.49,148.71 a 6.83,6.83 0 0 1 -2.67,-0.51 6.54,6.54 0 0 1 -2.11,-1.38 6.24,6.24 0 0 1 -1.38,-2 6.58,6.58 0 0 1 -0.49,-2.52 v 0 a 6.46,6.46 0 0 1 1.9,-4.58 6.41,6.41 0 0 1 2.11,-1.39 7.27,7.27 0 0 1 5.35,0 6.61,6.61 0 0 1 2.1,1.38 6.24,6.24 0 0 1 1.38,2 6.58,6.58 0 0 1 0.49,2.52 v 0 a 6.4,6.4 0 0 1 -0.5,2.52 6.62,6.62 0 0 1 -1.39,2.06 6.48,6.48 0 0 1 -2.12,1.4 7.09,7.09 0 0 1 -2.67,0.5 z m 0,-2.54 a 3.78,3.78 0 0 0 1.52,-0.3 3.56,3.56 0 0 0 1.2,-0.84 4.3,4.3 0 0 0 0.77,-1.25 4.17,4.17 0 0 0 0.27,-1.51 v 0 a 4.31,4.31 0 0 0 -0.27,-1.52 3.75,3.75 0 0 0 -0.79,-1.25 3.58,3.58 0 0 0 -1.21,-0.85 3.63,3.63 0 0 0 -1.52,-0.32 3.8,3.8 0 0 0 -1.53,0.3 3.6,3.6 0 0 0 -1.18,0.85 3.76,3.76 0 0 0 -0.77,1.24 4,4 0 0 0 -0.28,1.51 v 0 a 4.27,4.27 0 0 0 0.27,1.52 3.9,3.9 0 0 0 0.79,1.26 4,4 0 0 0 1.2,0.85 3.64,3.64 0 0 0 1.56,0.31 z"
         transform="translate(-394.38,-99.86)"
         style="fill:#80bc00"
         id="path28" />
      <path
         inkscape:connector-curvature="0"
         d="m 534.54,138.51 h -3.81 V 136 h 10.39 v 2.55 h -3.82 v 10 h -2.76 z"
         transform="translate(-394.38,-99.86)"
         style="fill:#80bc00"
         id="path30" />
      <path
         inkscape:connector-curvature="0"
         d="m 543.36,136 h 2.75 v 12.54 h -2.76 z"
         transform="translate(-394.38,-99.86)"
         style="fill:#80bc00"
         id="path32" />
      <path
         inkscape:connector-curvature="0"
         d="m 555.12,148.73 a 6.62,6.62 0 0 1 -2.57,-0.5 6.54,6.54 0 0 1 -2,-1.37 6.27,6.27 0 0 1 -1.34,-2.06 6.57,6.57 0 0 1 -0.48,-2.52 v 0 a 6.46,6.46 0 0 1 1.83,-4.57 6.22,6.22 0 0 1 2.06,-1.4 6.69,6.69 0 0 1 2.65,-0.5 7.94,7.94 0 0 1 1.6,0.14 7.61,7.61 0 0 1 1.32,0.39 5.77,5.77 0 0 1 1.09,0.61 7.91,7.91 0 0 1 0.93,0.79 l -1.75,2 a 7,7 0 0 0 -1.5,-1 3.83,3.83 0 0 0 -1.71,-0.37 3.53,3.53 0 0 0 -1.46,0.3 3.46,3.46 0 0 0 -1.16,0.84 4,4 0 0 0 -0.75,1.25 4.17,4.17 0 0 0 -0.27,1.51 v 0 a 4.31,4.31 0 0 0 0.27,1.52 4.1,4.1 0 0 0 0.74,1.25 3.35,3.35 0 0 0 1.15,0.85 3.45,3.45 0 0 0 1.48,0.32 3.73,3.73 0 0 0 1.81,-0.4 7,7 0 0 0 1.48,-1.07 l 1.76,1.78 a 10.9,10.9 0 0 1 -1,0.93 5.64,5.64 0 0 1 -1.13,0.7 5.87,5.87 0 0 1 -1.36,0.45 8.25,8.25 0 0 1 -1.69,0.13 z"
         transform="translate(-394.38,-99.86)"
         style="fill:#80bc00"
         id="path34" />
      <path
         inkscape:connector-curvature="0"
         d="m 566.94,148.7 a 8.29,8.29 0 0 1 -2.82,-0.49 7.54,7.54 0 0 1 -2.5,-1.52 l 1.63,-1.95 a 7.82,7.82 0 0 0 1.76,1.11 4.62,4.62 0 0 0 2,0.42 2.44,2.44 0 0 0 1.34,-0.32 1,1 0 0 0 0.47,-0.87 v 0 a 1,1 0 0 0 -0.1,-0.47 1,1 0 0 0 -0.38,-0.39 3.75,3.75 0 0 0 -0.77,-0.36 c -0.33,-0.12 -0.75,-0.24 -1.28,-0.38 a 14.16,14.16 0 0 1 -1.72,-0.52 4.83,4.83 0 0 1 -1.32,-0.7 3,3 0 0 1 -0.83,-1 3.62,3.62 0 0 1 -0.3,-1.56 v 0 a 3.71,3.71 0 0 1 0.33,-1.55 3.48,3.48 0 0 1 0.9,-1.19 4,4 0 0 1 1.38,-0.77 5.77,5.77 0 0 1 1.77,-0.26 7.34,7.34 0 0 1 2.53,0.41 7.48,7.48 0 0 1 2.12,1.18 l -1.43,2.08 a 9.74,9.74 0 0 0 -1.65,-0.91 4.22,4.22 0 0 0 -1.61,-0.33 1.94,1.94 0 0 0 -1.21,0.32 0.92,0.92 0 0 0 -0.4,0.77 v 0 a 1.25,1.25 0 0 0 0.11,0.53 1.05,1.05 0 0 0 0.43,0.4 4,4 0 0 0 0.83,0.34 c 0.35,0.11 0.8,0.24 1.34,0.38 a 12.87,12.87 0 0 1 1.69,0.56 4.54,4.54 0 0 1 1.26,0.76 2.77,2.77 0 0 1 0.77,1 3.35,3.35 0 0 1 0.26,1.41 v 0 a 3.77,3.77 0 0 1 -0.34,1.65 3.34,3.34 0 0 1 -0.94,1.22 4.07,4.07 0 0 1 -1.45,0.75 6,6 0 0 1 -1.87,0.25 z"
         transform="translate(-394.38,-99.86)"
         style="fill:#80bc00"
         id="path36" />
      <path
         inkscape:connector-curvature="0"
         d="m 400.19,127.94 20.29,-26.62 a 3.65,3.65 0 0 1 1.47,-1.2 3.27,3.27 0 0 1 1.17,-0.2 h 5.65 l -19.24,25.55 c -1,1.24 -1.82,2.37 -3.7,2.47 z"
         transform="translate(-394.38,-99.86)"
         style="fill:#ffffff;fill-rule:evenodd"
         id="path38" />
      <path
         inkscape:connector-curvature="0"
         d="m 428.4,102.21 c 1,-1.23 1.11,-1.43 1.6,-1.77 0.72,-0.51 1.3,-0.52 2.64,-0.52 h 5.12 c -6.44,8.35 -12.88,16.86 -19.32,25.2 -0.09,0.12 -0.38,0.54 -0.6,0.79 a 6,6 0 0 1 -1.36,1.32 3,3 0 0 1 -1.27,0.58 6.48,6.48 0 0 1 -1.45,0.13 H 409 Z"
         transform="translate(-394.38,-99.86)"
         style="fill:#ffffff;fill-rule:evenodd"
         id="path40" />
      <path
         inkscape:connector-curvature="0"
         d="m 440.57,99.92 h 9.17 l -19.58,25.38 a 5,5 0 0 1 -3.28,2.5 6.14,6.14 0 0 1 -1.66,0.15 h -7.58 l 19.06,-25.21 a 10.63,10.63 0 0 1 1.94,-2.29 3.4,3.4 0 0 1 1.93,-0.52 z"
         transform="translate(-394.38,-99.86)"
         style="fill:#ffffff;fill-rule:evenodd"
         id="path42" />
      <polygon
         points="15.86,12.21 11.45,18.02 7.59,0.04 13.4,0.04 "
         style="fill:#ffffff;fill-rule:evenodd"
         id="polygon44" />
      <polygon
         points="10.57,18.9 5.46,25.61 0,0.04 6.53,0.04 "
         style="fill:#ffffff;fill-rule:evenodd"
         id="polygon46" />
      <polygon
         points="20.28,6.57 16.75,11.15 14.46,0.04 18.86,0.04 "
         style="fill:#ffffff;fill-rule:evenodd"
         id="polygon48" />
      <path
         inkscape:connector-curvature="0"
         d="m 403.48,143.17 3.43,1 a 6.27,6.27 0 0 1 -1.1,2.37 4.65,4.65 0 0 1 -1.81,1.46 6.88,6.88 0 0 1 -2.81,0.49 8.36,8.36 0 0 1 -3.38,-0.59 5.39,5.39 0 0 1 -2.27,-2.08 7,7 0 0 1 -0.95,-3.8 6.35,6.35 0 0 1 1.68,-4.74 6.45,6.45 0 0 1 4.75,-1.66 6.52,6.52 0 0 1 3.77,0.95 5.53,5.53 0 0 1 2,2.92 l -3.45,0.75 a 3,3 0 0 0 -0.38,-0.83 2.18,2.18 0 0 0 -0.81,-0.67 2.37,2.37 0 0 0 -1.07,-0.24 2.32,2.32 0 0 0 -2.05,1 4.38,4.38 0 0 0 -0.54,2.45 4.57,4.57 0 0 0 0.64,2.84 2.24,2.24 0 0 0 1.81,0.77 2.18,2.18 0 0 0 1.7,-0.63 3.69,3.69 0 0 0 0.84,-1.8 z"
         transform="translate(-394.38,-99.86)"
         style="fill:#ffffff"
         id="path50" />
      <polygon
         points="22.37,42.86 22.37,35.95 26.05,35.95 26.05,48.42 22.37,48.42 17.61,41.54 17.61,48.42 13.93,48.42 13.93,35.95 17.58,35.95 "
         style="fill:#ffffff"
         id="polygon52" />
      <polygon
         points="34.37,40.12 36.94,35.95 41.26,35.95 36.33,43.19 36.33,48.42 32.39,48.42 32.39,43.19 27.45,35.95 31.8,35.95 "
         style="fill:#ffffff"
         id="polygon54" />
      <path
         inkscape:connector-curvature="0"
         d="m 437.05,135.81 h 5.82 a 7,7 0 0 1 2.78,0.46 4.42,4.42 0 0 1 1.75,1.31 5.46,5.46 0 0 1 1,2 9.07,9.07 0 0 1 0.32,2.42 8.2,8.2 0 0 1 -0.47,3.1 5.08,5.08 0 0 1 -1.25,1.9 4.36,4.36 0 0 1 -1.77,1 9.5,9.5 0 0 1 -2.33,0.34 h -5.82 v -12.53 z m 3.91,2.82 v 6.82 h 1 a 4.09,4.09 0 0 0 1.75,-0.27 1.83,1.83 0 0 0 0.81,-0.93 5.72,5.72 0 0 0 0.3,-2.17 4.17,4.17 0 0 0 -0.66,-2.72 2.86,2.86 0 0 0 -2.19,-0.73 z"
         transform="translate(-394.38,-99.86)"
         style="fill:#ffffff"
         id="path56" />
    </g>
  </g>
</svg>
