<?xml version="1.0" encoding="UTF-8" standalone="no"?>
<!-- Created with Inkscape (http://www.inkscape.org/) -->

<svg
   xmlns:dc="http://purl.org/dc/elements/1.1/"
   xmlns:cc="http://creativecommons.org/ns#"
   xmlns:rdf="http://www.w3.org/1999/02/22-rdf-syntax-ns#"
   xmlns:svg="http://www.w3.org/2000/svg"
   xmlns="http://www.w3.org/2000/svg"
   xmlns:sodipodi="http://sodipodi.sourceforge.net/DTD/sodipodi-0.dtd"
   xmlns:inkscape="http://www.inkscape.org/namespaces/inkscape"
   width="400px"
   height="200px"
   viewBox="0 0 400 200"
   version="1.1"
   id="SVGRoot"
   inkscape:version="0.91 r13725"
   sodipodi:docname="cebit_banner_angle_en.svg">
  <sodipodi:namedview
     id="base"
     pagecolor="#ffffff"
     bordercolor="#666666"
     borderopacity="1.0"
     inkscape:pageopacity="0.0"
     inkscape:pageshadow="2"
     inkscape:zoom="1.4707821"
     inkscape:cx="190.45355"
     inkscape:cy="-3.1646613"
     inkscape:document-units="px"
     inkscape:current-layer="layer1"
     showgrid="false"
     inkscape:window-width="1215"
     inkscape:window-height="1000"
     inkscape:window-x="65"
     inkscape:window-y="24"
     inkscape:window-maximized="1"
     showguides="false" />
  <defs
     id="defs4915">
    <clipPath
       id="clip3">
      <path
         inkscape:connector-curvature="0"
         d="m 83,0 h 58.73047 V 56.691406 H 83 Z m 0,0"
         id="path3812" />
    </clipPath>
    <clipPath
       id="clip2">
      <path
         inkscape:connector-curvature="0"
         d="M 93.542969,8.503906 H 133.22656 V 48.1875 H 93.542969 Z m 0,0"
         id="path3809" />
    </clipPath>
  </defs>
  <metadata
     id="metadata4918">
    <rdf:RDF>
      <cc:Work
         rdf:about="">
        <dc:format>image/svg+xml</dc:format>
        <dc:type
           rdf:resource="http://purl.org/dc/dcmitype/StillImage" />
        <dc:title></dc:title>
      </cc:Work>
    </rdf:RDF>
  </metadata>
  <g
     id="layer1"
     inkscape:groupmode="layer"
     inkscape:label="Layer 1">
    <g
       id="g6350"
       transform="rotate(30,263.76972,194.45142)">
      <rect
         y="69.059807"
         x="-31.633347"
         height="61.88039"
         width="463.26669"
         id="rect4931"
         style="fill:#b3b3b3;fill-opacity:1;stroke-width:1.07036352" />
      <flowRoot
         xml:space="preserve"
         id="flowRoot3508"
         style="font-style:normal;font-weight:normal;font-size:40px;line-height:125%;font-family:'Nexa XBold';letter-spacing:0px;word-spacing:0px;fill:#000000;fill-opacity:1;stroke:none;stroke-width:1px;stroke-linecap:butt;stroke-linejoin:miter;stroke-opacity:1;-inkscape-font-specification:'Nexa XBold';font-stretch:normal;font-variant:normal;"
         transform="matrix(0.8660254,-0.5,0.5,0.8660254,-61.887268,157.93641)"><flowRegion
           id="flowRegion3510"><rect
             id="rect3512"
             width="65.384613"
             height="40.865383"
             x="95.67308"
             y="81.971153"
             style="-inkscape-font-specification:'Nexa XBold';font-family:'Nexa XBold';font-weight:normal;font-style:normal;font-stretch:normal;font-variant:normal;" /></flowRegion><flowPara
           id="flowPara3514">12-15 June 2018</flowPara></flowRoot>      <text
         xml:space="preserve"
         style="font-style:normal;font-variant:normal;font-weight:normal;font-stretch:normal;font-size:40px;line-height:125%;font-family:'Nexa XBold';-inkscape-font-specification:'Nexa XBold';letter-spacing:0px;word-spacing:0px;fill:#000000;fill-opacity:1;stroke:none;stroke-width:1px;stroke-linecap:butt;stroke-linejoin:miter;stroke-opacity:1;"
         x="116.53119"
         y="92.661613"
         id="text3516"
         sodipodi:linespacing="125%"
         transform="matrix(0.99979014,0.02048591,-0.02048591,0.99979014,0,0)"><tspan
           sodipodi:role="line"
           id="tspan3518"
           x="116.53119"
           y="92.661613"
           style="font-style:normal;font-variant:normal;font-weight:bold;font-stretch:normal;font-size:12.5px;font-family:'Nexa XBold';-inkscape-font-specification:'Nexa XBold Bold';fill:#000000;">12-15 June 2018</tspan></text>
      <text
         xml:space="preserve"
         style="font-style:normal;font-variant:normal;font-weight:normal;font-stretch:normal;font-size:40px;line-height:125%;font-family:'Nexa XBold';-inkscape-font-specification:'Nexa XBold';letter-spacing:0px;word-spacing:0px;fill:#000000;fill-opacity:1;stroke:none;stroke-width:1px;stroke-linecap:butt;stroke-linejoin:miter;stroke-opacity:1;"
         x="102.12819"
         y="108.20345"
         id="text3516-3"
         sodipodi:linespacing="125%"
         transform="matrix(0.99972358,0.0235111,-0.0235111,0.99972358,0,0)"><tspan
           sodipodi:role="line"
           id="tspan3518-6"
           x="102.12819"
           y="108.20345"
           style="font-style:normal;font-variant:normal;font-weight:bold;font-stretch:normal;font-size:12.5px;font-family:'Nexa XBold';-inkscape-font-specification:'Nexa XBold Bold';fill:#000000;">Hall 27, Stand A38/3</tspan></text>
    </g>
    <g
       id="g3468"
       transform="matrix(0.85643667,0.5162521,-0.5162521,0.85643667,227.22381,70.833103)">
      <path
         inkscape:connector-curvature="0"
         id="path30"
         style="fill:#000000;fill-opacity:1;fill-rule:nonzero;stroke:none"
         d="m 172.98907,-17.574932 c 0.3325,0 0.6275,0.055 0.885,0.16625 0.25875,0.11 0.475,0.26125 0.64875,0.4525 0.1725,0.19125 0.30625,0.41375 0.3975,0.6675 0.0913,0.253748 0.1375,0.522498 0.1375,0.804998 0,0.2825 -0.0463,0.55125 -0.1375,0.805 -0.0912,0.25375 -0.225,0.47625 -0.3975,0.6675 -0.17375,0.19 -0.39,0.34125 -0.64875,0.4525 -0.2575,0.11 -0.5525,0.16625 -0.885,0.16625 -0.3325,0 -0.62625,-0.0563 -0.88125,-0.16625 -0.25625,-0.11125 -0.4725,-0.2625 -0.6475,-0.4525 -0.17625,-0.19125 -0.31,-0.41375 -0.40125,-0.6675 -0.0913,-0.25375 -0.1375,-0.5225 -0.1375,-0.805 0,-0.2825 0.0462,-0.55125 0.1375,-0.804998 0.0913,-0.25375 0.225,-0.47625 0.40125,-0.6675 0.175,-0.19125 0.39125,-0.3425 0.6475,-0.4525 0.255,-0.11125 0.54875,-0.16625 0.88125,-0.16625 m -1.70125,2.091248 c 0,0.2475 0.0387,0.47875 0.115,0.6925 0.0762,0.21375 0.18625,0.4 0.3325,0.55875 0.145,0.15875 0.3225,0.28375 0.5325,0.375 0.21,0.0925 0.45,0.1375 0.72125,0.1375 0.27125,0 0.51125,-0.045 0.7225,-0.1375 0.21,-0.0913 0.3875,-0.21625 0.5325,-0.375 0.145,-0.15875 0.25625,-0.345 0.3325,-0.55875 0.075,-0.21375 0.115,-0.445 0.115,-0.6925 0,-0.245 -0.04,-0.475 -0.115,-0.69125 -0.0762,-0.214998 -0.1875,-0.402498 -0.3325,-0.561248 -0.145,-0.15875 -0.3225,-0.28375 -0.5325,-0.375 -0.21125,-0.0913 -0.45125,-0.1375 -0.7225,-0.1375 -0.27125,0 -0.51125,0.0462 -0.72125,0.1375 -0.21,0.0913 -0.3875,0.21625 -0.5325,0.375 -0.14625,0.15875 -0.25625,0.34625 -0.3325,0.561248 -0.0763,0.21625 -0.115,0.44625 -0.115,0.69125 m 2.705,0.99625 0,0.0687 -0.36125,0 -0.66625,-0.785 -0.4275,0 0,0.785 -0.32875,0 0,-2.171248 0.98,0 c 0.1575,0 0.29,0.0312 0.39625,0.0925 0.1075,0.06 0.18875,0.1375 0.24625,0.23125 0.0575,0.0937 0.09,0.196248 0.10125,0.309998 0.009,0.1125 -0.006,0.21875 -0.0475,0.32 -0.0387,0.10125 -0.105,0.19 -0.19375,0.26375 -0.09,0.0737 -0.205,0.12125 -0.34625,0.14 l 0.6475,0.745 z m -1.455,-1.792498 0,0.778748 0.64125,0 c 0.0913,0 0.1675,-0.0188 0.22875,-0.0575 0.0613,-0.0375 0.1075,-0.0863 0.1375,-0.1425 0.03,-0.0575 0.0475,-0.12125 0.0488,-0.19 0.002,-0.0687 -0.0125,-0.13125 -0.0437,-0.18875 -0.03,-0.0575 -0.075,-0.105 -0.135,-0.14375 -0.0588,-0.0375 -0.13375,-0.0562 -0.22625,-0.0562 l -0.65125,0 z" />
      <path
         inkscape:connector-curvature="0"
         id="path34"
         style="fill:#000000;fill-opacity:1;fill-rule:nonzero;stroke:none"
         d="m 109.45408,1.313686 c -2.19125,2.16 -5.02,3.165 -8.095,3.165 -7.9125,0 -11.25875,-5.44749995 -11.28875,-10.98625 -0.03125,-5.56875 3.59,-11.228748 11.28875,-11.228748 2.89125,0 5.63,1.095 7.82125,3.256248 l -2.6775,2.58625 c -1.4,-1.36875 -3.2875,-2.0075 -5.14375,-2.0075 -5.1425,0 -7.365,3.83375 -7.33375,7.39375 0.03,3.53 2.06875,7.2125 7.33375,7.2125 1.85625,0 3.95625,-0.76124995 5.355,-2.16 l 2.74,2.76875 z" />
      <path
         inkscape:connector-curvature="0"
         id="path38"
         style="fill:#000000;fill-opacity:1;fill-rule:nonzero;stroke:none"
         d="m 126.19695,3.991186 -15.94624,0 0,-21.301248 15.94624,0 0,3.894998 -11.95999,0 0,4.89875 11.53374,0 0,3.74375 -11.53374,0 0,4.80750005 11.95999,0 0,3.95624995 z" />
      <path
         inkscape:connector-curvature="0"
         id="path42"
         style="fill:#000000;fill-opacity:1;fill-rule:nonzero;stroke:none"
         d="m 145.22295,-11.132684 c 0,1.64375 -0.79125,3.22625 -2.77,4.10875 2.49625,0.76 3.41,3.4075 3.41,4.74625 0,4.7475 -3.56125,6.26875 -7.97375,6.26875 l -10.10375,0 0,-21.301248 10.10375,0 c 4.19875,0 7.33375,1.886248 7.33375,6.177498 m -13.48125,2.37375 6.1475,0 c 2.52625,0 3.3475,-1.065 3.3475,-2.2825 0,-0.97375 -0.7925,-2.6175 -3.3475,-2.6175 l -6.1475,0 0,4.9 z m 0,9.00750005 6.1475,0 c 1.6425,0 3.9875,-0.5475 3.9875,-2.55625005 0,-1.9175 -2.345,-2.92125 -3.9875,-2.92125 l -6.1475,0 0,5.47750005 z" />
      <path
         inkscape:connector-curvature="0"
         id="path44"
         style="fill:#000000;fill-opacity:1;fill-rule:nonzero;stroke:none"
         d="m 146.74482,-17.310062 3.98625,0 0,21.301248 -3.98625,0 0,-21.301248 z" />
      <path
         inkscape:connector-curvature="0"
         id="path48"
         style="fill:#000000;fill-opacity:1;fill-rule:nonzero;stroke:none"
         d="m 158.26995,-13.658434 -6.565,0 0,-3.652498 17.14875,0 0,3.652498 -6.56625,0 0,17.65 -4.0175,0 0,-17.65 z" />
    </g>
  </g>
</svg>
