<?xml version="1.0" encoding="UTF-8" standalone="no"?>
<!-- Created with Inkscape (http://www.inkscape.org/) -->

<svg
   xmlns:dc="http://purl.org/dc/elements/1.1/"
   xmlns:cc="http://creativecommons.org/ns#"
   xmlns:rdf="http://www.w3.org/1999/02/22-rdf-syntax-ns#"
   xmlns:svg="http://www.w3.org/2000/svg"
   xmlns="http://www.w3.org/2000/svg"
   xmlns:sodipodi="http://sodipodi.sourceforge.net/DTD/sodipodi-0.dtd"
   xmlns:inkscape="http://www.inkscape.org/namespaces/inkscape"
   width="800px"
   height="200px"
   viewBox="0 0 800 200"
   version="1.1"
   id="SVGRoot"
   inkscape:version="0.92.2 (5c3e80d, 2017-08-06)"
   sodipodi:docname="rf-hannovermesse2018-4x1.svg">
  <sodipodi:namedview
     id="base"
     pagecolor="#ffffff"
     bordercolor="#666666"
     borderopacity="1.0"
     inkscape:pageopacity="0.0"
     inkscape:pageshadow="2"
     inkscape:zoom="0.64"
     inkscape:cx="400"
     inkscape:cy="100"
     inkscape:document-units="px"
     inkscape:current-layer="layer1"
     showgrid="false"
     inkscape:window-width="1920"
     inkscape:window-height="1017"
     inkscape:window-x="1912"
     inkscape:window-y="-8"
     inkscape:window-maximized="1" />
  <defs
     id="defs5511">
    <clipPath
       id="clip3">
      <path
         inkscape:connector-curvature="0"
         d="m 83,0 h 58.73047 V 56.691406 H 83 Z m 0,0"
         id="path3812" />
    </clipPath>
    <clipPath
       id="clip2">
      <path
         inkscape:connector-curvature="0"
         d="M 93.542969,8.503906 H 133.22656 V 48.1875 H 93.542969 Z m 0,0"
         id="path3809" />
    </clipPath>
  </defs>
  <metadata
     id="metadata5514">
    <rdf:RDF>
      <cc:Work
         rdf:about="">
        <dc:format>image/svg+xml</dc:format>
        <dc:type
           rdf:resource="http://purl.org/dc/dcmitype/StillImage" />
        <dc:title></dc:title>
      </cc:Work>
    </rdf:RDF>
  </metadata>
  <g
     id="layer1"
     inkscape:groupmode="layer"
     inkscape:label="Layer 1">
    <rect
       style="fill:#eb1923;fill-opacity:1;stroke-width:1.42400336"
       id="rect5529"
       width="800"
       height="200"
       x="0"
       y="0" />
    <g
       id="g6107"
       transform="matrix(3.0238232,0,0,3.0238232,-1338.6983,355.13508)">
      <g
         id="g3823"
         clip-path="url(#clip2)"
         style="clip-rule:nonzero"
         transform="matrix(1.3333333,0,0,1.3333333,480.16886,-122.16927)">
        <path
           id="path3821"
           d="M 93.542969,48.1875 H 133.22656 V 8.503906 H 93.542969 Z m 0,0"
           style="fill:#eb1923;fill-opacity:1;fill-rule:nonzero;stroke:none"
           inkscape:connector-curvature="0" />
      </g>
      <path
         id="path3825"
         d="m 636.84073,-96.690104 c -1.83333,0 -3.39584,-0.739583 -4.86458,-0.739583 -1.06771,0 -1.84375,0.796875 -1.84375,1.739583 0,0.416666 -0.0729,0.651041 -0.63543,0.651041 h -2.2552 c 0.13027,-1.119791 0.44792,-1.984375 1.23959,-2.708333 0.86457,-0.78125 1.94791,-1.140624 3,-1.140624 2.38541,0 4.2552,1.630208 6.28124,1.630208 v -1.140626 c -1.74479,0 -3.69791,-1.609372 -6.28124,-1.609372 -1.39584,0 -2.72396,0.458331 -3.80729,1.442706 -1.22918,1.114584 -1.53126,2.442708 -1.64584,3.526041 h -1.0625 v 1.161459 h 0.97396 c -0.0885,1.213541 -0.17709,2.427083 -0.27084,3.645833 h 1.31771 v 0.96875 c 0.55729,0.140624 1.54167,0.354167 1.54167,0.994791 0,0.588543 -0.98959,0.822917 -1.54167,0.927084 v 3.057292 c 0.66147,0.177083 1.08333,0.276041 2.02604,0.276041 0.33855,0 0.77084,-0.04688 1.04167,-0.09896 v 1.671875 h 1.20833 v -3.182291 c -0.47396,0.270834 -1.36457,0.453124 -2.16667,0.453124 -0.27082,0 -0.71874,-0.03125 -0.90104,-0.07292 v -1.307286 c 0.90626,-0.302083 1.56771,-0.848959 1.56771,-1.723959 0,-1.015624 -0.76563,-1.520833 -1.56771,-1.796875 v -1.328125 h -1.22916 c 0.0521,-0.671875 0.11974,-1.682291 0.17708,-2.484374 h 4.29688 c 0,0 -0.23958,-0.911459 -0.23958,-1.229167 0,-0.567708 0.38541,-0.8125 1.1927,-0.8125 0.53646,0 0.90626,0.09896 2.09375,0.09896 1.33333,0 2.46875,-0.1875 3.41667,-0.666667 v -0.291666 c -0.38542,0.06771 -0.69271,0.08855 -1.0625,0.08855"
         style="fill:#ffffff;fill-opacity:1;fill-rule:nonzero;stroke:none;stroke-width:1.33333325"
         inkscape:connector-curvature="0" />
      <path
         id="path3827"
         d="m 622.8824,-68.856772 v -4.864582 h -1.81771 l -1.52605,3.802082 -1.4479,-3.802082 h -1.82292 v 4.864582 h 1.18229 v -3.656249 l 1.4427,3.656249 h 1.28126 l 1.52082,-3.656249 v 3.656249 h 1.18751"
         style="fill:#ffffff;fill-opacity:1;fill-rule:evenodd;stroke:none;stroke-width:1.33333325"
         inkscape:connector-curvature="0" />
      <path
         id="path3829"
         d="m 628.36156,-68.856772 v -0.864582 h -1.56771 c -1.04166,0 -1.61978,-0.19271 -1.71354,-1.125 h 3.28125 v -0.859376 h -3.28125 c 0.0364,-0.276042 0.0521,-0.5625 0.26042,-0.786458 0.11454,-0.130213 0.24479,-0.213542 0.42187,-0.270833 0.25521,-0.08333 0.71876,-0.08855 0.97917,-0.08855 h 1.61979 v -0.86979 h -2.09896 c -0.45833,0 -0.94791,0.03125 -1.33853,0.234374 -0.89584,0.463542 -1.25,1.3125 -1.25,2.161459 0,0.864583 0.35416,1.973957 1.4427,2.302083 0.47916,0.145833 1.11979,0.166666 1.625,0.166666 h 1.61979"
         style="fill:#ffffff;fill-opacity:1;fill-rule:evenodd;stroke:none;stroke-width:1.33333325"
         inkscape:connector-curvature="0" />
      <path
         id="path3831"
         d="m 634.79385,-70.289064 c 0,-0.505208 -0.21354,-1.05729 -0.79688,-1.291666 -0.42186,-0.171875 -0.85416,-0.182291 -1.30728,-0.182291 h -0.9375 c -0.46875,0 -1.0625,-0.02604 -1.0625,-0.552084 0,-0.598959 0.63542,-0.536459 1.16667,-0.536459 h 2.60937 v -0.86979 h -2.88542 c -0.58854,0 -1.23438,-0.01563 -1.70312,0.322916 -0.35938,0.260417 -0.56771,0.71875 -0.56771,1.114584 0,0.515624 0.32292,1.0625 0.92188,1.255208 0.32291,0.104173 0.7552,0.130213 1.09375,0.130213 h 1.07292 c 0.27082,0 0.60416,0.01563 0.80208,0.192708 0.13026,0.109373 0.20833,0.260417 0.20833,0.421876 0,0.552083 -0.66667,0.5625 -1.15625,0.5625 h -2.66146 v 0.864583 h 2.9323 c 0.70833,0 1.39582,0.03645 1.89061,-0.463542 0.26043,-0.270833 0.38021,-0.630208 0.38021,-0.96875"
         style="fill:#ffffff;fill-opacity:1;fill-rule:evenodd;stroke:none;stroke-width:1.33333325"
         inkscape:connector-curvature="0" />
      <path
         id="path3833"
         d="m 640.96573,-70.289064 c 0,-0.505208 -0.21876,-1.05729 -0.79688,-1.291666 -0.41666,-0.171875 -0.85937,-0.182291 -1.31249,-0.182291 h -0.93229 c -0.47396,0 -1.06771,-0.02604 -1.06771,-0.552084 0,-0.598959 0.64061,-0.536459 1.17187,-0.536459 h 2.60417 v -0.86979 h -2.88543 c -0.58333,0 -1.22916,-0.01563 -1.6979,0.322916 -0.35938,0.260417 -0.57292,0.71875 -0.57292,1.114584 0,0.515624 0.32812,1.0625 0.92708,1.255208 0.32292,0.104173 0.75,0.130213 1.09374,0.130213 h 1.06772 c 0.27083,0 0.60938,0.01563 0.80208,0.192708 0.14063,0.109373 0.21354,0.260417 0.21354,0.421876 0,0.552083 -0.67187,0.5625 -1.16146,0.5625 h -2.66145 v 0.864583 h 2.93229 c 0.70834,0 1.40104,0.03645 1.89062,-0.463542 0.26042,-0.270833 0.38542,-0.630208 0.38542,-0.96875"
         style="fill:#ffffff;fill-opacity:1;fill-rule:evenodd;stroke:none;stroke-width:1.33333325"
         inkscape:connector-curvature="0" />
      <path
         id="path3835"
         d="m 646.40844,-68.856772 v -0.864582 h -1.57292 c -1.03645,0 -1.61459,-0.19271 -1.71355,-1.125 h 3.28647 v -0.859376 h -3.28647 c 0.0364,-0.276042 0.0521,-0.5625 0.26563,-0.786458 0.11453,-0.130213 0.2448,-0.213542 0.41667,-0.270833 0.25521,-0.08333 0.71876,-0.08855 0.97917,-0.08855 h 1.625 v -0.86979 h -2.10417 c -0.45312,0 -0.94271,0.03125 -1.33854,0.234374 -0.89062,0.463542 -1.25,1.3125 -1.25,2.161459 0,0.864583 0.35938,1.973957 1.44271,2.302083 0.47916,0.145833 1.11979,0.166666 1.625,0.166666 h 1.625"
         style="fill:#ffffff;fill-opacity:1;fill-rule:evenodd;stroke:none;stroke-width:1.33333325"
         inkscape:connector-curvature="0" />
      <path
         id="path3837"
         d="m 612.30948,-74.757813 v -4.864584 h -1.23437 v 1.989584 h -2.26042 v -1.989584 h -1.23958 v 4.864584 h 1.23958 v -2.010417 h 2.26042 v 2.010417 h 1.23437"
         style="fill:#ffffff;fill-opacity:1;fill-rule:evenodd;stroke:none;stroke-width:1.33333325"
         inkscape:connector-curvature="0" />
      <path
         id="path3839"
         d="m 616.89803,-76.747397 h -1.66667 l 0.83334,-1.713541 z m 2.29686,1.989584 -2.41145,-4.864584 h -1.42708 l -2.41667,4.864584 h 1.44791 l 0.56251,-1.130208 h 2.22396 l 0.56249,1.130208 h 1.45833"
         style="fill:#ffffff;fill-opacity:1;fill-rule:evenodd;stroke:none;stroke-width:1.33333325"
         inkscape:connector-curvature="0" />
      <path
         id="path3841"
         d="m 624.91885,-74.757813 v -4.864584 h -1.18229 v 3.625 l -2.31771,-3.625 h -1.59374 v 4.864584 h 1.1927 v -3.567708 l 2.36979,3.567708 h 1.53125"
         style="fill:#ffffff;fill-opacity:1;fill-rule:evenodd;stroke:none;stroke-width:1.33333325"
         inkscape:connector-curvature="0" />
      <path
         id="path3843"
         d="m 631.20011,-74.757813 v -4.864584 h -1.1823 v 3.625 l -2.3177,-3.625 h -1.59375 v 4.864584 h 1.19271 v -3.567708 l 2.36978,3.567708 h 1.53126"
         style="fill:#ffffff;fill-opacity:1;fill-rule:evenodd;stroke:none;stroke-width:1.33333325"
         inkscape:connector-curvature="0" />
      <path
         id="path3845"
         d="m 636.47093,-77.20573 c 0,0.885417 -0.2552,1.661458 -1.5,1.661458 -1.24478,0 -1.51562,-0.755208 -1.51562,-1.656249 0,-0.911459 0.27084,-1.635417 1.51562,-1.635417 1.21876,0 1.5,0.734374 1.5,1.630208 z m 1.36459,0.07292 c 0,-1.630208 -0.85937,-2.520834 -2.875,-2.520834 -1.99479,0 -2.88541,0.854167 -2.88541,2.489583 0,0.708333 0.21874,1.510417 0.9427,1.958333 0.54167,0.343751 1.35938,0.473959 2.02604,0.473959 1.88022,0 2.79167,-0.859375 2.79167,-2.401041"
         style="fill:#ffffff;fill-opacity:1;fill-rule:evenodd;stroke:none;stroke-width:1.33333325"
         inkscape:connector-curvature="0" />
      <path
         id="path3847"
         d="m 644.1324,-79.622397 h -1.39584 l -1.74479,3.661459 -1.71874,-3.661459 h -1.39584 l 2.46354,4.864584 h 1.23958 l 2.55209,-4.864584"
         style="fill:#ffffff;fill-opacity:1;fill-rule:evenodd;stroke:none;stroke-width:1.33333325"
         inkscape:connector-curvature="0" />
      <path
         id="path3849"
         d="m 648.77303,-74.757813 v -0.869792 h -1.56772 c -1.04167,0 -1.61979,-0.1875 -1.71875,-1.119792 h 3.28647 v -0.859375 h -3.28647 c 0.0364,-0.281249 0.0521,-0.567708 0.26563,-0.791666 0.11453,-0.125 0.24478,-0.208334 0.42188,-0.265626 0.25,-0.08855 0.71353,-0.09375 0.97916,-0.09375 h 1.6198 v -0.864584 h -2.09896 c -0.45834,0 -0.94271,0.02604 -1.34376,0.229166 -0.89062,0.468751 -1.25,1.3125 -1.25,2.161459 0,0.869792 0.35938,1.979167 1.44272,2.302084 0.48437,0.145833 1.125,0.171875 1.6302,0.171875 h 1.6198"
         style="fill:#ffffff;fill-opacity:1;fill-rule:evenodd;stroke:none;stroke-width:1.33333325"
         inkscape:connector-curvature="0" />
      <path
         id="path3851"
         d="m 653.72615,-78.14323 c 0,0.515625 -0.33334,0.666666 -0.90104,0.666666 h -1.73959 v -1.281249 h 1.73959 c 0.51562,0 0.90104,0.109373 0.90104,0.614583 z m 1.45312,3.385417 c -0.0521,-0.135417 -0.0885,-0.255208 -0.10934,-0.395833 -0.0416,-0.333334 -0.026,-0.682292 -0.18229,-1.005208 -0.20833,-0.421876 -0.40104,-0.541667 -0.90625,-0.69271 0.79166,-0.213541 1.10938,-0.75 1.10938,-1.416666 0,-0.583334 -0.41146,-1.088542 -1.09376,-1.25 -0.41145,-0.09375 -0.875,-0.104174 -1.30208,-0.104174 h -2.85416 v 4.864584 h 1.24479 v -1.84375 h 0.99479 c 1.07813,0 1.46354,0.244792 1.57813,1.151042 0.0312,0.229167 0.0416,0.463542 0.13027,0.692708 h 1.39062"
         style="fill:#ffffff;fill-opacity:1;fill-rule:evenodd;stroke:none;stroke-width:1.33333325"
         inkscape:connector-curvature="0" />
      <g
         id="g3855"
         clip-path="url(#clip3)"
         style="clip-rule:nonzero"
         transform="matrix(1.3333333,0,0,1.3333333,480.16886,-122.16927)">
        <path
           id="path3853"
           transform="matrix(1,0,0,-1,93.903,8.864001)"
           d="m -6.5612e-4,7.2019e-4 c 0,-12.98828119 0,-25.97656219 0,-38.96484419 12.98828112,0 25.98046912,0 38.96484412,0 0,12.988282 0,25.976563 0,38.96484419 -12.984375,0 -25.976563,0 -38.96484412,0 z m 0,0"
           style="fill:none;stroke:#ffffff;stroke-width:0.72000003;stroke-linecap:butt;stroke-linejoin:miter;stroke-miterlimit:10;stroke-opacity:1"
           inkscape:connector-curvature="0" />
      </g>
      <g
         id="g3869"
         style="fill:#ffffff;fill-opacity:1"
         transform="matrix(1.3333333,0,0,1.3333333,480.16886,-122.16927)">
        <g
           transform="translate(8.5038996,38.176498)"
           id="use3861">
          <path
             style="stroke:none"
             d="M 3.84375,0 V -0.734375 C 2.875,-0.734375 2,-0.71875 1.484375,-0.703125 L 2.25,-1.59375 c 1.015625,-1.15625 1.390625,-1.875 1.390625,-2.671875 0,-0.875 -0.5625,-1.546875 -1.640625,-1.546875 -0.578125,0 -1.046875,0.140625 -1.4375,0.328125 l 0.125,0.703125 C 1,-4.984375 1.421875,-5.140625 1.796875,-5.140625 c 0.6875,0 1.015625,0.453125 1.015625,1 0,0.59375 -0.25,1.171875 -1.21875,2.265625 l -1.078125,1.25 V 0 Z m 0,0"
             id="path5915"
             inkscape:connector-curvature="0" />
        </g>
        <g
           transform="translate(12.80745,38.176498)"
           id="use3863">
          <path
             style="stroke:none"
             d="m 3.640625,-1.71875 c 0,-0.71875 -0.484375,-1.21875 -1.1875,-1.375 v -0.015625 c 0.59375,-0.21875 0.96875,-0.71875 0.96875,-1.375 0,-0.734375 -0.5,-1.328125 -1.578125,-1.328125 -0.453125,0 -0.890625,0.09375 -1.234375,0.25 l 0.0625,0.65625 c 0.296875,-0.171875 0.640625,-0.265625 1,-0.265625 0.59375,0 0.9375,0.3125 0.9375,0.84375 0,0.671875 -0.515625,1.09375 -1.8125,1.0625 V -2.65625 C 0.953125,-2.671875 1.125,-2.6875 1.328125,-2.6875 c 0.984375,0 1.5,0.40625 1.5,1 0,0.609375 -0.515625,1.09375 -1.359375,1.09375 -0.328125,0 -0.65625,-0.046875 -0.890625,-0.125 L 0.5,-0.03125 c 0.21875,0.0625 0.578125,0.09375 0.921875,0.09375 1.296875,0 2.21875,-0.75 2.21875,-1.78125 z m 0,0"
             id="path5859"
             inkscape:connector-curvature="0" />
        </g>
        <g
           transform="translate(17.009001,38.176498)"
           id="use3865">
          <path
             style="stroke:none"
             d="m 1.5,-0.453125 c 0,-0.28125 -0.234375,-0.53125 -0.53125,-0.53125 -0.28125,0 -0.53125,0.25 -0.53125,0.53125 0,0.296875 0.25,0.53125 0.53125,0.53125 0.296875,0 0.53125,-0.234375 0.53125,-0.53125 z m 0,0"
             id="path5955"
             inkscape:connector-curvature="0" />
        </g>
        <g
           transform="translate(18.99205,38.176498)"
           id="use3867">
          <path
             style="stroke:none"
             d=""
             id="path5879"
             inkscape:connector-curvature="0" />
        </g>
      </g>
      <g
         id="g3875"
         style="fill:#ffffff;fill-opacity:1"
         transform="matrix(1.3333333,0,0,1.3333333,480.16886,-122.16927)">
        <g
           transform="translate(20.03755,38.176498)"
           id="use3871">
          <path
             style="stroke:none"
             d="m 4.671875,-2.203125 v -0.65625 H 0 v 0.65625 z m 0,0"
             id="path5867"
             inkscape:connector-curvature="0" />
        </g>
        <g
           transform="translate(24.757601,38.176498)"
           id="use3873">
          <path
             style="stroke:none"
             d=""
             id="path5883"
             inkscape:connector-curvature="0" />
        </g>
      </g>
      <g
         id="g3881"
         style="fill:#ffffff;fill-opacity:1"
         transform="matrix(1.3333333,0,0,1.3333333,480.16886,-122.16927)">
        <g
           transform="translate(26.483101,38.176498)"
           id="use3877">
          <path
             style="stroke:none"
             d="M 3.84375,0 V -0.734375 C 2.875,-0.734375 2,-0.71875 1.484375,-0.703125 L 2.25,-1.59375 c 1.015625,-1.15625 1.390625,-1.875 1.390625,-2.671875 0,-0.875 -0.5625,-1.546875 -1.640625,-1.546875 -0.578125,0 -1.046875,0.140625 -1.4375,0.328125 l 0.125,0.703125 C 1,-4.984375 1.421875,-5.140625 1.796875,-5.140625 c 0.6875,0 1.015625,0.453125 1.015625,1 0,0.59375 -0.25,1.171875 -1.21875,2.265625 l -1.078125,1.25 V 0 Z m 0,0"
             id="path5919"
             inkscape:connector-curvature="0" />
        </g>
        <g
           transform="translate(30.78665,38.176498)"
           id="use3879">
          <path
             style="stroke:none"
             d="m 3.625,-5.078125 v -0.65625 H 0.21875 v 0.75 c 0.5,0 2.28125,0 2.546875,-0.015625 C 2.265625,-3.90625 1.5,-1.8125 1.0625,0 H 1.921875 C 2.265625,-1.578125 2.9375,-3.609375 3.625,-5.078125 Z m 0,0"
             id="path5939"
             inkscape:connector-curvature="0" />
        </g>
      </g>
      <g
         id="g3889"
         style="fill:#ffffff;fill-opacity:1"
         transform="matrix(1.3333333,0,0,1.3333333,480.16886,-122.16927)">
        <g
           transform="translate(34.303101,38.176498)"
           id="use3883">
          <path
             style="stroke:none"
             d="m 1.5,-0.453125 c 0,-0.28125 -0.234375,-0.53125 -0.53125,-0.53125 -0.28125,0 -0.53125,0.25 -0.53125,0.53125 0,0.296875 0.25,0.53125 0.53125,0.53125 0.296875,0 0.53125,-0.234375 0.53125,-0.53125 z m 0,0"
             id="path5959"
             inkscape:connector-curvature="0" />
        </g>
        <g
           transform="translate(36.286152,38.176498)"
           id="use3885">
          <path
             style="stroke:none"
             d=""
             id="path5887"
             inkscape:connector-curvature="0" />
        </g>
        <g
           transform="translate(38.181648,38.176498)"
           id="use3887">
          <path
             style="stroke:none"
             d="M 5.15625,0 3.046875,-5.734375 h -0.875 L 0.078125,0 h 0.8125 l 0.46875,-1.34375 h 2.4375 L 4.28125,0 Z M 3.59375,-1.96875 H 1.5625 L 2.328125,-4.125 C 2.421875,-4.390625 2.5,-4.65625 2.5625,-4.890625 h 0.015625 c 0.078125,0.234375 0.15625,0.5 0.25,0.78125 z m 0,0"
             id="path5963"
             inkscape:connector-curvature="0" />
        </g>
      </g>
      <g
         id="g3893"
         style="fill:#ffffff;fill-opacity:1"
         transform="matrix(1.3333333,0,0,1.3333333,480.16886,-122.16927)">
        <g
           transform="translate(43.526451,38.176498)"
           id="use3891">
          <path
             style="stroke:none"
             d="m 4.375,-2.3125 c 0,-1.296875 -0.5625,-1.984375 -1.546875,-1.984375 -0.671875,0 -1.171875,0.359375 -1.421875,0.9375 H 1.390625 c 0.046875,-0.25 0.078125,-0.625 0.078125,-0.859375 h -0.75 v 6.3125 H 1.484375 V 0 c 0.25,0.046875 0.453125,0.046875 0.71875,0.046875 C 3.5625,0.046875 4.375,-0.8125 4.375,-2.3125 Z M 3.578125,-2.25 c 0,1.21875 -0.546875,1.703125 -1.34375,1.703125 -0.28125,0 -0.53125,-0.03125 -0.75,-0.09375 v -1.40625 c 0,-0.734375 0.390625,-1.625 1.15625,-1.625 0.640625,0 0.9375,0.515625 0.9375,1.421875 z m 0,0"
             id="path5903"
             inkscape:connector-curvature="0" />
        </g>
      </g>
      <g
         id="g3899"
         style="fill:#ffffff;fill-opacity:1"
         transform="matrix(1.3333333,0,0,1.3333333,480.16886,-122.16927)">
        <g
           transform="translate(48.341702,38.176498)"
           id="use3895">
          <path
             style="stroke:none"
             d="M 2.84375,-4.296875 C 2,-4.390625 1.5625,-3.8125 1.390625,-3.21875 H 1.375 c 0.0625,-0.34375 0.09375,-0.75 0.09375,-1 h -0.75 V 0 h 0.765625 v -1.703125 c 0,-1.34375 0.421875,-2 1.328125,-1.84375 z m 0,0"
             id="path5895"
             inkscape:connector-curvature="0" />
        </g>
        <g
           transform="translate(51.404251,38.176498)"
           id="use3897">
          <path
             style="stroke:none"
             d="m 1.609375,-5.5625 c 0,-0.28125 -0.21875,-0.5 -0.5,-0.5 -0.28125,0 -0.515625,0.21875 -0.515625,0.5 0,0.28125 0.234375,0.5 0.515625,0.5 0.28125,0 0.5,-0.21875 0.5,-0.5 z M 1.484375,0 V -4.21875 H 0.71875 V 0 Z m 0,0"
             id="path5927"
             inkscape:connector-curvature="0" />
        </g>
      </g>
      <g
         id="g3907"
         style="fill:#ffffff;fill-opacity:1"
         transform="matrix(1.3333333,0,0,1.3333333,480.16886,-122.16927)">
        <g
           transform="translate(53.608299,38.176498)"
           id="use3901">
          <path
             style="stroke:none"
             d="M 1.484375,0 V -6.203125 H 0.71875 V 0 Z m 0,0"
             id="path5863"
             inkscape:connector-curvature="0" />
        </g>
        <g
           transform="translate(55.86335,38.176498)"
           id="use3903">
          <path
             style="stroke:none"
             d=""
             id="path5891"
             inkscape:connector-curvature="0" />
        </g>
        <g
           transform="translate(57.75885,38.176498)"
           id="use3905">
          <path
             style="stroke:none"
             d="M 3.84375,0 V -0.734375 C 2.875,-0.734375 2,-0.71875 1.484375,-0.703125 L 2.25,-1.59375 c 1.015625,-1.15625 1.390625,-1.875 1.390625,-2.671875 0,-0.875 -0.5625,-1.546875 -1.640625,-1.546875 -0.578125,0 -1.046875,0.140625 -1.4375,0.328125 l 0.125,0.703125 C 1,-4.984375 1.421875,-5.140625 1.796875,-5.140625 c 0.6875,0 1.015625,0.453125 1.015625,1 0,0.59375 -0.25,1.171875 -1.21875,2.265625 l -1.078125,1.25 V 0 Z m 0,0"
             id="path5923"
             inkscape:connector-curvature="0" />
        </g>
      </g>
      <g
         id="g3911"
         style="fill:#ffffff;fill-opacity:1"
         transform="matrix(1.3333333,0,0,1.3333333,480.16886,-122.16927)">
        <g
           transform="translate(61.996101,38.176498)"
           id="use3909">
          <path
             style="stroke:none"
             d="M 4.5625,-2.921875 C 4.5625,-5 3.78125,-5.8125 2.546875,-5.8125 c -1.171875,0 -2.140625,0.953125 -2.140625,3 0,2.078125 0.796875,2.890625 2.015625,2.890625 1.1875,0 2.140625,-0.953125 2.140625,-3 z M 3.75,-2.859375 C 3.75,-1.1875 3.203125,-0.5625 2.484375,-0.5625 1.65625,-0.5625 1.21875,-1.296875 1.21875,-2.875 c 0,-1.671875 0.5625,-2.296875 1.28125,-2.296875 0.828125,0 1.25,0.71875 1.25,2.3125 z m 0,0"
             id="path5839"
             inkscape:connector-curvature="0" />
        </g>
      </g>
      <g
         id="g3917"
         style="fill:#ffffff;fill-opacity:1"
         transform="matrix(1.3333333,0,0,1.3333333,480.16886,-122.16927)">
        <g
           transform="translate(67.030647,38.176498)"
           id="use3913">
          <path
             style="stroke:none"
             d="m 2.21875,0 v -5.734375 h -0.625 l -1.375,0.484375 0.125,0.71875 1.078125,-0.421875 V 0 Z m 0,0"
             id="path5899"
             inkscape:connector-curvature="0" />
        </g>
        <g
           transform="translate(70.067703,38.176498)"
           id="use3915">
          <path
             style="stroke:none"
             d="m 4.1875,-1.46875 c 0,-0.703125 -0.515625,-1.15625 -1.21875,-1.546875 0.578125,-0.375 1.109375,-0.796875 1.109375,-1.46875 0,-0.78125 -0.640625,-1.359375 -1.671875,-1.359375 -1.09375,0 -1.84375,0.59375 -1.84375,1.515625 0,0.59375 0.390625,1.015625 1.0625,1.40625 -0.59375,0.390625 -1.15625,0.859375 -1.15625,1.578125 0,0.828125 0.625,1.421875 1.78125,1.421875 1.078125,0 1.9375,-0.546875 1.9375,-1.546875 z M 3.265625,-4.421875 c 0,0.390625 -0.265625,0.6875 -0.921875,1.09375 -0.609375,-0.328125 -1,-0.640625 -1,-1.09375 0,-0.46875 0.375,-0.8125 1,-0.8125 0.625,0 0.921875,0.375 0.921875,0.8125 z m 0.125,3.03125 c 0,0.546875 -0.46875,0.828125 -1.046875,0.828125 -0.65625,0 -1.0625,-0.34375 -1.0625,-0.859375 0,-0.53125 0.453125,-0.859375 0.96875,-1.171875 0.59375,0.3125 1.140625,0.625 1.140625,1.203125 z m 0,0"
             id="path5875"
             inkscape:connector-curvature="0" />
        </g>
      </g>
      <g
         id="g3963"
         style="fill:#ffffff;fill-opacity:1"
         transform="matrix(1.3333333,0,0,1.3333333,480.16886,-122.16927)">
        <g
           transform="translate(8.5050001,23.891001)"
           id="use3919">
          <path
             style="stroke:none"
             d="M 0.515625,0 V -5.015625 H 1.53125 V -3.03125 H 3.5 V -5.015625 H 4.515625 V 0 H 3.5 V -2.1875 H 1.53125 V 0 Z m 0,0"
             id="path5935"
             inkscape:connector-curvature="0" />
        </g>
        <g
           transform="translate(13.559,23.891001)"
           id="use3921">
          <path
             style="stroke:none"
             d="M 1.21875,-2.515625 0.34375,-2.6875 c 0.101563,-0.34375 0.273438,-0.597656 0.515625,-0.765625 0.238281,-0.175781 0.59375,-0.265625 1.0625,-0.265625 0.425781,0 0.742188,0.054687 0.953125,0.15625 0.207031,0.105469 0.351563,0.234375 0.4375,0.390625 0.09375,0.15625 0.140625,0.445312 0.140625,0.859375 L 3.4375,-1.1875 c 0,0.3125 0.015625,0.546875 0.046875,0.703125 C 3.515625,-0.335938 3.570313,-0.175781 3.65625,0 H 2.703125 C 2.679688,-0.0625 2.648438,-0.15625 2.609375,-0.28125 2.597656,-0.34375 2.585938,-0.378906 2.578125,-0.390625 c -0.167969,0.15625 -0.34375,0.277344 -0.53125,0.359375 -0.179687,0.0703125 -0.375,0.109375 -0.59375,0.109375 -0.375,0 -0.671875,-0.0976563 -0.890625,-0.296875 C 0.351563,-0.425781 0.25,-0.679688 0.25,-0.984375 0.25,-1.191406 0.296875,-1.375 0.390625,-1.53125 0.492188,-1.695313 0.632813,-1.820313 0.8125,-1.90625 0.988281,-1.988281 1.242188,-2.066406 1.578125,-2.140625 2.023438,-2.222656 2.332031,-2.300781 2.5,-2.375 v -0.09375 c 0,-0.175781 -0.046875,-0.304688 -0.140625,-0.390625 -0.085937,-0.082031 -0.25,-0.125 -0.5,-0.125 -0.179687,0 -0.3125,0.039062 -0.40625,0.109375 -0.09375,0.0625 -0.171875,0.183594 -0.234375,0.359375 z M 2.5,-1.75 c -0.117187,0.042969 -0.308594,0.09375 -0.578125,0.15625 -0.273437,0.054687 -0.449219,0.109375 -0.53125,0.171875 -0.125,0.085937 -0.1875,0.195312 -0.1875,0.328125 0,0.136719 0.050781,0.257812 0.15625,0.359375 0.101563,0.09375 0.234375,0.140625 0.390625,0.140625 0.164063,0 0.328125,-0.054688 0.484375,-0.171875 0.113281,-0.082031 0.191406,-0.1875 0.234375,-0.3125 C 2.488281,-1.160156 2.5,-1.316406 2.5,-1.546875 Z m 0,0"
             id="path5907"
             inkscape:connector-curvature="0" />
        </g>
        <g
           transform="translate(17.451,23.891001)"
           id="use3923">
          <path
             style="stroke:none"
             d="M 0.5,0 V -5.015625 H 1.46875 V 0 Z m 0,0"
             id="path5843"
             inkscape:connector-curvature="0" />
        </g>
        <g
           transform="translate(19.396999,23.891001)"
           id="use3925">
          <path
             style="stroke:none"
             d="M 0.5,0 V -5.015625 H 1.46875 V 0 Z m 0,0"
             id="path5847"
             inkscape:connector-curvature="0" />
        </g>
        <g
           transform="translate(21.343,23.891001)"
           id="use3927">
          <path
             style="stroke:none"
             d="M 2.609375,-1.15625 3.5625,-1 c -0.125,0.355469 -0.324219,0.625 -0.59375,0.8125 -0.261719,0.1796875 -0.589844,0.265625 -0.984375,0.265625 -0.636719,0 -1.105469,-0.203125 -1.40625,-0.609375 -0.242187,-0.332031 -0.359375,-0.75 -0.359375,-1.25 0,-0.601563 0.15625,-1.078125 0.46875,-1.421875 0.320313,-0.34375 0.722656,-0.515625 1.203125,-0.515625 0.539063,0 0.96875,0.183594 1.28125,0.546875 0.3125,0.355469 0.457031,0.902344 0.4375,1.640625 h -2.40625 c 0.00781,0.28125 0.085938,0.5 0.234375,0.65625 0.144531,0.15625 0.332031,0.234375 0.5625,0.234375 0.144531,0 0.269531,-0.035156 0.375,-0.109375 0.101563,-0.082031 0.179688,-0.21875 0.234375,-0.40625 z M 2.65625,-2.125 c 0,-0.28125 -0.074219,-0.492188 -0.21875,-0.640625 -0.136719,-0.144531 -0.304687,-0.21875 -0.5,-0.21875 -0.210937,0 -0.382812,0.078125 -0.515625,0.234375 -0.136719,0.15625 -0.203125,0.367187 -0.203125,0.625 z m 0,0"
             id="path5931"
             inkscape:connector-curvature="0" />
        </g>
        <g
           transform="translate(25.235001,23.891001)"
           id="use3929">
          <path
             style="stroke:none"
             d=""
             id="path5943"
             inkscape:connector-curvature="0" />
        </g>
        <g
           transform="translate(27.181,23.891001)"
           id="use3931">
          <path
             style="stroke:none"
             d="M 3.546875,-3.78125 2.625,-3.6875 C 2.601563,-3.875 2.539063,-4.007813 2.4375,-4.09375 2.34375,-4.1875 2.222656,-4.234375 2.078125,-4.234375 c -0.210937,0 -0.386719,0.09375 -0.53125,0.28125 -0.136719,0.179687 -0.21875,0.554687 -0.25,1.125 C 1.535156,-3.109375 1.832031,-3.25 2.1875,-3.25 c 0.394531,0 0.734375,0.152344 1.015625,0.453125 0.289063,0.304687 0.4375,0.699219 0.4375,1.1875 0,0.511719 -0.152344,0.921875 -0.453125,1.234375 C 2.882813,-0.0703125 2.5,0.078125 2.03125,0.078125 c -0.5,0 -0.917969,-0.191406 -1.25,-0.578125 -0.324219,-0.394531 -0.484375,-1.039063 -0.484375,-1.9375 0,-0.914063 0.164063,-1.578125 0.5,-1.984375 0.34375,-0.40625 0.785156,-0.609375 1.328125,-0.609375 0.382813,0 0.703125,0.109375 0.953125,0.328125 0.25,0.210937 0.40625,0.515625 0.46875,0.921875 z M 1.375,-1.6875 c 0,0.3125 0.070313,0.554687 0.21875,0.71875 0.144531,0.167969 0.304688,0.25 0.484375,0.25 0.175781,0 0.320313,-0.066406 0.4375,-0.203125 0.125,-0.132813 0.1875,-0.363281 0.1875,-0.6875 0,-0.320313 -0.0625,-0.554688 -0.1875,-0.703125 -0.125,-0.15625 -0.289062,-0.234375 -0.484375,-0.234375 -0.1875,0 -0.34375,0.074219 -0.46875,0.21875 C 1.4375,-2.179688 1.375,-1.96875 1.375,-1.6875 Z m 0,0"
             id="path5851"
             inkscape:connector-curvature="0" />
        </g>
        <g
           transform="translate(31.073,23.891001)"
           id="use3933">
          <path
             style="stroke:none"
             d="M 0.484375,-0.953125 H 1.4375 V -0.28125 C 1.4375,0 1.410156,0.21875 1.359375,0.375 1.316406,0.539063 1.226563,0.6875 1.09375,0.8125 0.957031,0.945313 0.789063,1.050781 0.59375,1.125 L 0.40625,0.71875 C 0.59375,0.65625 0.726563,0.566406 0.8125,0.453125 0.894531,0.347656 0.9375,0.195313 0.9375,0 H 0.484375 Z m 0,0"
             id="path5967"
             inkscape:connector-curvature="0" />
        </g>
        <g
           transform="translate(33.019001,23.891001)"
           id="use3935">
          <path
             style="stroke:none"
             d=""
             id="path5947"
             inkscape:connector-curvature="0" />
        </g>
        <g
           transform="translate(34.965,23.891001)"
           id="use3937">
          <path
             style="stroke:none"
             d="m 0.25,-1.625 0.984375,-0.09375 c 0.0625,0.324219 0.179688,0.5625 0.359375,0.71875 0.1875,0.15625 0.429688,0.234375 0.734375,0.234375 0.320313,0 0.566406,-0.066406 0.734375,-0.203125 0.164063,-0.132813 0.25,-0.296875 0.25,-0.484375 0,-0.125 -0.039062,-0.226563 -0.109375,-0.3125 C 3.140625,-1.847656 3.019531,-1.914063 2.84375,-1.96875 2.726563,-2.007813 2.457031,-2.082031 2.03125,-2.1875 1.488281,-2.320313 1.109375,-2.488281 0.890625,-2.6875 0.585938,-2.96875 0.4375,-3.304688 0.4375,-3.703125 c 0,-0.25 0.070313,-0.484375 0.21875,-0.703125 0.144531,-0.226563 0.351563,-0.398438 0.625,-0.515625 0.269531,-0.113281 0.597656,-0.171875 0.984375,-0.171875 0.625,0 1.09375,0.140625 1.40625,0.421875 0.320313,0.273437 0.492188,0.636719 0.515625,1.09375 L 3.171875,-3.53125 C 3.128906,-3.789063 3.035156,-3.976563 2.890625,-4.09375 2.753906,-4.207031 2.539063,-4.265625 2.25,-4.265625 c -0.292969,0 -0.523437,0.0625 -0.6875,0.1875 -0.105469,0.074219 -0.15625,0.179687 -0.15625,0.3125 0,0.117187 0.046875,0.214844 0.140625,0.296875 0.132813,0.117187 0.445313,0.230469 0.9375,0.34375 0.488281,0.117187 0.847656,0.234375 1.078125,0.359375 0.238281,0.125 0.425781,0.296875 0.5625,0.515625 0.132813,0.210937 0.203125,0.476562 0.203125,0.796875 0,0.28125 -0.085937,0.546875 -0.25,0.796875 -0.15625,0.25 -0.382812,0.4375 -0.671875,0.5625 -0.292969,0.125 -0.652344,0.1875 -1.078125,0.1875 -0.636719,0 -1.125,-0.1445313 -1.46875,-0.4375 C 0.523438,-0.644531 0.320313,-1.070313 0.25,-1.625 Z m 0,0"
             id="path5827"
             inkscape:connector-curvature="0" />
        </g>
        <g
           transform="translate(39.633999,23.891001)"
           id="use3939">
          <path
             style="stroke:none"
             d="m 2.171875,-3.625 v 0.765625 h -0.65625 v 1.453125 c 0,0.304687 0.00391,0.480469 0.015625,0.53125 0.00781,0.042969 0.035156,0.078125 0.078125,0.109375 0.050781,0.03125 0.109375,0.046875 0.171875,0.046875 0.082031,0 0.207031,-0.03125 0.375,-0.09375 L 2.25,-0.0625 C 2.019531,0.03125 1.765625,0.078125 1.484375,0.078125 1.316406,0.078125 1.160156,0.0507813 1.015625,0 0.878906,-0.0625 0.773438,-0.140625 0.703125,-0.234375 c -0.0625,-0.09375 -0.105469,-0.21875 -0.125,-0.375 C 0.554688,-0.710938 0.546875,-0.9375 0.546875,-1.28125 v -1.578125 h -0.4375 V -3.625 h 0.4375 v -0.71875 l 0.96875,-0.5625 V -3.625 Z m 0,0"
             id="path5871"
             inkscape:connector-curvature="0" />
        </g>
        <g
           transform="translate(41.965,23.891001)"
           id="use3941">
          <path
             style="stroke:none"
             d="M 1.21875,-2.515625 0.34375,-2.6875 c 0.101563,-0.34375 0.273438,-0.597656 0.515625,-0.765625 0.238281,-0.175781 0.59375,-0.265625 1.0625,-0.265625 0.425781,0 0.742188,0.054687 0.953125,0.15625 0.207031,0.105469 0.351563,0.234375 0.4375,0.390625 0.09375,0.15625 0.140625,0.445312 0.140625,0.859375 L 3.4375,-1.1875 c 0,0.3125 0.015625,0.546875 0.046875,0.703125 C 3.515625,-0.335938 3.570313,-0.175781 3.65625,0 H 2.703125 C 2.679688,-0.0625 2.648438,-0.15625 2.609375,-0.28125 2.597656,-0.34375 2.585938,-0.378906 2.578125,-0.390625 c -0.167969,0.15625 -0.34375,0.277344 -0.53125,0.359375 -0.179687,0.0703125 -0.375,0.109375 -0.59375,0.109375 -0.375,0 -0.671875,-0.0976563 -0.890625,-0.296875 C 0.351563,-0.425781 0.25,-0.679688 0.25,-0.984375 0.25,-1.191406 0.296875,-1.375 0.390625,-1.53125 0.492188,-1.695313 0.632813,-1.820313 0.8125,-1.90625 0.988281,-1.988281 1.242188,-2.066406 1.578125,-2.140625 2.023438,-2.222656 2.332031,-2.300781 2.5,-2.375 v -0.09375 c 0,-0.175781 -0.046875,-0.304688 -0.140625,-0.390625 -0.085937,-0.082031 -0.25,-0.125 -0.5,-0.125 -0.179687,0 -0.3125,0.039062 -0.40625,0.109375 -0.09375,0.0625 -0.171875,0.183594 -0.234375,0.359375 z M 2.5,-1.75 c -0.117187,0.042969 -0.308594,0.09375 -0.578125,0.15625 -0.273437,0.054687 -0.449219,0.109375 -0.53125,0.171875 -0.125,0.085937 -0.1875,0.195312 -0.1875,0.328125 0,0.136719 0.050781,0.257812 0.15625,0.359375 0.101563,0.09375 0.234375,0.140625 0.390625,0.140625 0.164063,0 0.328125,-0.054688 0.484375,-0.171875 0.113281,-0.082031 0.191406,-0.1875 0.234375,-0.3125 C 2.488281,-1.160156 2.5,-1.316406 2.5,-1.546875 Z m 0,0"
             id="path5911"
             inkscape:connector-curvature="0" />
        </g>
        <g
           transform="translate(45.856998,23.891001)"
           id="use3943">
          <path
             style="stroke:none"
             d="M 3.796875,0 H 2.84375 v -1.859375 c 0,-0.382813 -0.023437,-0.632813 -0.0625,-0.75 C 2.738281,-2.722656 2.671875,-2.8125 2.578125,-2.875 2.484375,-2.945313 2.375,-2.984375 2.25,-2.984375 c -0.167969,0 -0.320312,0.046875 -0.453125,0.140625 -0.125,0.09375 -0.214844,0.21875 -0.265625,0.375 -0.054687,0.148437 -0.078125,0.421875 -0.078125,0.828125 V 0 H 0.5 v -3.625 h 0.890625 v 0.53125 c 0.3125,-0.414063 0.707031,-0.625 1.1875,-0.625 0.21875,0 0.410156,0.042969 0.578125,0.125 0.175781,0.074219 0.3125,0.171875 0.40625,0.296875 0.09375,0.117187 0.15625,0.25 0.1875,0.40625 0.03125,0.148437 0.046875,0.359375 0.046875,0.640625 z m 0,0"
             id="path5975"
             inkscape:connector-curvature="0" />
        </g>
        <g
           transform="translate(50.133999,23.891001)"
           id="use3945">
          <path
             style="stroke:none"
             d="M 3.828125,0 H 2.9375 V -0.53125 C 2.789063,-0.320313 2.613281,-0.164063 2.40625,-0.0625 2.207031,0.03125 2.007813,0.078125 1.8125,0.078125 c -0.429687,0 -0.792969,-0.1640625 -1.09375,-0.5 -0.292969,-0.332031 -0.4375,-0.800781 -0.4375,-1.40625 0,-0.613281 0.144531,-1.082031 0.4375,-1.40625 C 1.007813,-3.554688 1.375,-3.71875 1.8125,-3.71875 c 0.40625,0 0.757813,0.171875 1.0625,0.515625 v -1.8125 h 0.953125 z m -2.5625,-1.890625 c 0,0.386719 0.050781,0.667969 0.15625,0.84375 0.15625,0.25 0.375,0.375 0.65625,0.375 0.21875,0 0.40625,-0.09375 0.5625,-0.28125 0.15625,-0.1875 0.234375,-0.46875 0.234375,-0.84375 0,-0.414063 -0.078125,-0.71875 -0.234375,-0.90625 -0.148437,-0.1875 -0.335937,-0.28125 -0.5625,-0.28125 -0.230469,0 -0.421875,0.09375 -0.578125,0.28125 -0.15625,0.179687 -0.234375,0.449219 -0.234375,0.8125 z m 0,0"
             id="path5831"
             inkscape:connector-curvature="0" />
        </g>
        <g
           transform="translate(54.410999,23.891001)"
           id="use3947">
          <path
             style="stroke:none"
             d=""
             id="path5951"
             inkscape:connector-curvature="0" />
        </g>
        <g
           transform="translate(56.356998,23.891001)"
           id="use3949">
          <path
             style="stroke:none"
             d="m 3.71875,-1.84375 0.984375,0.3125 C 4.546875,-0.988281 4.289063,-0.582031 3.9375,-0.3125 3.59375,-0.0507813 3.148438,0.078125 2.609375,0.078125 c -0.667969,0 -1.214844,-0.222656 -1.640625,-0.671875 -0.429687,-0.457031 -0.640625,-1.082031 -0.640625,-1.875 0,-0.832031 0.210938,-1.476563 0.640625,-1.9375 0.4375,-0.457031 1.003906,-0.6875 1.703125,-0.6875 0.613281,0 1.113281,0.183594 1.5,0.546875 C 4.398438,-4.335938 4.570313,-4.03125 4.6875,-3.625 l -1,0.234375 C 3.625,-3.648438 3.5,-3.851563 3.3125,-4 3.125,-4.15625 2.894531,-4.234375 2.625,-4.234375 c -0.375,0 -0.679687,0.136719 -0.90625,0.40625 C 1.488281,-3.566406 1.375,-3.132813 1.375,-2.53125 c 0,0.625 0.113281,1.074219 0.34375,1.34375 0.226563,0.273437 0.523438,0.40625 0.890625,0.40625 0.269531,0 0.5,-0.082031 0.6875,-0.25 0.195313,-0.175781 0.335938,-0.445313 0.421875,-0.8125 z m 0,0"
             id="path5855"
             inkscape:connector-curvature="0" />
        </g>
        <g
           transform="translate(61.410999,23.891001)"
           id="use3951">
          <path
             style="stroke:none"
             d="M 0.265625,-1.328125 1.1875,-1.4375 c 0.03125,0.230469 0.109375,0.40625 0.234375,0.53125 0.132813,0.125 0.296875,0.1875 0.484375,0.1875 0.195313,0 0.363281,-0.070313 0.5,-0.21875 0.132813,-0.144531 0.203125,-0.347656 0.203125,-0.609375 0,-0.238281 -0.070312,-0.425781 -0.203125,-0.5625 -0.125,-0.144531 -0.28125,-0.21875 -0.46875,-0.21875 -0.125,0 -0.273437,0.023437 -0.4375,0.0625 l 0.109375,-0.78125 c 0.257813,0.011719 0.457031,-0.039063 0.59375,-0.15625 0.132813,-0.125 0.203125,-0.285156 0.203125,-0.484375 0,-0.164063 -0.054687,-0.296875 -0.15625,-0.390625 -0.09375,-0.101563 -0.226562,-0.15625 -0.390625,-0.15625 -0.167969,0 -0.308594,0.058594 -0.421875,0.171875 C 1.320313,-3.957031 1.25,-3.796875 1.21875,-3.578125 L 0.328125,-3.71875 c 0.0625,-0.300781 0.15625,-0.539063 0.28125,-0.71875 0.125,-0.1875 0.296875,-0.332031 0.515625,-0.4375 0.226563,-0.101563 0.476563,-0.15625 0.75,-0.15625 0.476563,0 0.859375,0.152344 1.140625,0.453125 0.226563,0.242187 0.34375,0.515625 0.34375,0.828125 0,0.4375 -0.242187,0.792969 -0.71875,1.0625 0.289063,0.0625 0.519531,0.203125 0.6875,0.421875 0.175781,0.210937 0.265625,0.464844 0.265625,0.765625 0,0.4375 -0.164062,0.8125 -0.484375,1.125 -0.324219,0.3046875 -0.726562,0.453125 -1.203125,0.453125 -0.449219,0 -0.824219,-0.1289063 -1.125,-0.390625 C 0.476563,-0.570313 0.304688,-0.910156 0.265625,-1.328125 Z m 0,0"
             id="path5979"
             inkscape:connector-curvature="0" />
        </g>
        <g
           transform="translate(65.303001,23.891001)"
           id="use3953">
          <path
             style="stroke:none"
             d="M 0.296875,-4.046875 V -4.9375 h 3.28125 V -4.25 C 3.304688,-3.976563 3.03125,-3.59375 2.75,-3.09375 2.46875,-2.59375 2.253906,-2.0625 2.109375,-1.5 1.960938,-0.9375 1.890625,-0.4375 1.890625,0 H 0.96875 c 0.019531,-0.695313 0.164063,-1.40625 0.4375,-2.125 0.269531,-0.71875 0.628906,-1.359375 1.078125,-1.921875 z m 0,0"
             id="path5835"
             inkscape:connector-curvature="0" />
        </g>
        <g
           transform="translate(69.195,23.891001)"
           id="use3955">
          <path
             style="stroke:none"
             d="M 0.484375,-0.953125 H 1.4375 V -0.28125 C 1.4375,0 1.410156,0.21875 1.359375,0.375 1.316406,0.539063 1.226563,0.6875 1.09375,0.8125 0.957031,0.945313 0.789063,1.050781 0.59375,1.125 L 0.40625,0.71875 C 0.59375,0.65625 0.726563,0.566406 0.8125,0.453125 0.894531,0.347656 0.9375,0.195313 0.9375,0 H 0.484375 Z m 0,0"
             id="path5971"
             inkscape:connector-curvature="0" />
        </g>
        <g
           transform="translate(71.140999,23.891001)"
           id="use3957">
          <path
             style="stroke:none"
             d="M 2.09375,1.46875 H 1.4375 C 1.082031,0.945313 0.8125,0.40625 0.625,-0.15625 0.445313,-0.726563 0.359375,-1.28125 0.359375,-1.8125 c 0,-0.65625 0.113281,-1.28125 0.34375,-1.875 0.195313,-0.507813 0.445313,-0.976563 0.75,-1.40625 h 0.65625 c -0.3125,0.6875 -0.53125,1.277344 -0.65625,1.765625 -0.117187,0.480469 -0.171875,0.992187 -0.171875,1.53125 0,0.375 0.035156,0.761719 0.109375,1.15625 0.070313,0.386719 0.164063,0.753906 0.28125,1.109375 0.082031,0.238281 0.222656,0.570313 0.421875,1 z m 0,0"
             id="path5983"
             inkscape:connector-curvature="0" />
        </g>
        <g
           transform="translate(73.472,23.891001)"
           id="use3959">
          <path
             style="stroke:none"
             d="M 2.75,0 H 1.796875 v -3.625 c -0.355469,0.335937 -0.773437,0.578125 -1.25,0.734375 v -0.875 C 0.804688,-3.847656 1.082031,-4.003906 1.375,-4.234375 1.664063,-4.460938 1.863281,-4.726563 1.96875,-5.03125 H 2.75 Z m 0,0"
             id="path5987"
             inkscape:connector-curvature="0" />
        </g>
        <g
           transform="translate(77.363998,23.891001)"
           id="use3961">
          <path
             style="stroke:none"
             d="M 0.234375,1.46875 C 0.421875,1.0625 0.550781,0.75 0.625,0.53125 0.707031,0.320313 0.78125,0.078125 0.84375,-0.203125 0.914063,-0.484375 0.96875,-0.75 1,-1 1.03125,-1.257813 1.046875,-1.523438 1.046875,-1.796875 1.046875,-2.335938 0.988281,-2.847656 0.875,-3.328125 0.757813,-3.816406 0.546875,-4.40625 0.234375,-5.09375 H 0.875 c 0.34375,0.492187 0.609375,1.011719 0.796875,1.5625 0.195313,0.542969 0.296875,1.101562 0.296875,1.671875 0,0.46875 -0.074219,0.980469 -0.21875,1.53125 C 1.570313,0.273438 1.289063,0.875 0.90625,1.46875 Z m 0,0"
             id="path5991"
             inkscape:connector-curvature="0" />
        </g>
      </g>
    </g>
  </g>
</svg>
