<?xml version="1.0" encoding="UTF-8" standalone="no"?>
<!-- Created with Inkscape (http://www.inkscape.org/) -->

<svg
   xmlns:dc="http://purl.org/dc/elements/1.1/"
   xmlns:cc="http://creativecommons.org/ns#"
   xmlns:rdf="http://www.w3.org/1999/02/22-rdf-syntax-ns#"
   xmlns:svg="http://www.w3.org/2000/svg"
   xmlns="http://www.w3.org/2000/svg"
   xmlns:sodipodi="http://sodipodi.sourceforge.net/DTD/sodipodi-0.dtd"
   xmlns:inkscape="http://www.inkscape.org/namespaces/inkscape"
   width="800px"
   height="200px"
   viewBox="0 0 800 200"
   version="1.1"
   id="SVGRoot"
   inkscape:version="0.92.2 (5c3e80d, 2017-08-06)"
   sodipodi:docname="rf-hannovermesse2018-4x1-en.svg">
  <sodipodi:namedview
     id="base"
     pagecolor="#ffffff"
     bordercolor="#666666"
     borderopacity="1.0"
     inkscape:pageopacity="0.0"
     inkscape:pageshadow="2"
     inkscape:zoom="2.56"
     inkscape:cx="391.26017"
     inkscape:cy="58.052005"
     inkscape:document-units="px"
     inkscape:current-layer="layer1"
     showgrid="false"
     inkscape:window-width="3072"
     inkscape:window-height="1665"
     inkscape:window-x="-8"
     inkscape:window-y="-8"
     inkscape:window-maximized="1" />
  <defs
     id="defs5511">
    <clipPath
       id="clip3">
      <path
         inkscape:connector-curvature="0"
         d="m 83,0 h 58.73047 V 56.691406 H 83 Z m 0,0"
         id="path3812" />
    </clipPath>
    <clipPath
       id="clip2">
      <path
         inkscape:connector-curvature="0"
         d="M 93.542969,8.503906 H 133.22656 V 48.1875 H 93.542969 Z m 0,0"
         id="path3809" />
    </clipPath>
    <clipPath
       id="clip2-1">
      <path
         inkscape:connector-curvature="0"
         d="M 93.542969,8.503906 H 133.22656 V 48.1875 H 93.542969 Z m 0,0"
         id="path231" />
    </clipPath>
    <clipPath
       id="clip3-0">
      <path
         inkscape:connector-curvature="0"
         d="m 83,0 h 58.73047 V 56.691406 H 83 Z m 0,0"
         id="path234" />
    </clipPath>
  </defs>
  <metadata
     id="metadata5514">
    <rdf:RDF>
      <cc:Work
         rdf:about="">
        <dc:format>image/svg+xml</dc:format>
        <dc:type
           rdf:resource="http://purl.org/dc/dcmitype/StillImage" />
        <dc:title></dc:title>
      </cc:Work>
    </rdf:RDF>
  </metadata>
  <g
     id="layer1"
     inkscape:groupmode="layer"
     inkscape:label="Layer 1">
    <rect
       style="fill:#eb1923;fill-opacity:1;stroke-width:1.42400336"
       id="rect5529"
       width="800"
       height="200"
       x="0"
       y="0" />
    <g
       transform="matrix(4.0317642,0,0,4.0317642,113.2474,-14.28319)"
       id="g4201">
      <g
         clip-path="url(#clip2-1)"
         id="g245"
         style="clip-rule:nonzero">
        <path
           style="fill:#eb1923;fill-opacity:1;fill-rule:nonzero;stroke:none"
           d="M 93.542969,48.1875 H 133.22656 V 8.503906 H 93.542969 Z m 0,0"
           id="path243"
           inkscape:connector-curvature="0" />
      </g>
      <path
         style="fill:#ffffff;fill-opacity:1;fill-rule:nonzero;stroke:none"
         d="m 117.50391,19.109375 c -1.375,0 -2.54688,-0.554687 -3.64844,-0.554687 -0.80078,0 -1.38281,0.597656 -1.38281,1.304687 0,0.3125 -0.0547,0.488281 -0.47657,0.488281 h -1.6914 c 0.0977,-0.839843 0.33594,-1.488281 0.92969,-2.03125 0.64843,-0.585937 1.46093,-0.855468 2.25,-0.855468 1.78906,0 3.1914,1.222656 4.71093,1.222656 v -0.855469 c -1.30859,0 -2.77343,-1.207031 -4.71093,-1.207031 -1.04688,0 -2.04297,0.34375 -2.85547,1.082031 -0.92188,0.835938 -1.14844,1.832031 -1.23438,2.644531 h -0.79687 v 0.871094 h 0.73047 c -0.0664,0.910156 -0.13282,1.820313 -0.20313,2.734375 h 0.98828 v 0.726563 c 0.41797,0.105468 1.15625,0.265625 1.15625,0.746093 0,0.441407 -0.74219,0.617188 -1.15625,0.695313 v 2.292969 c 0.4961,0.132812 0.8125,0.207031 1.51953,0.207031 0.25391,0 0.57813,-0.03516 0.78125,-0.07422 v 1.253906 h 0.90625 v -2.386718 c -0.35547,0.203125 -1.02343,0.339843 -1.625,0.339843 -0.20312,0 -0.53906,-0.02344 -0.67578,-0.05469 V 26.71875 c 0.67969,-0.226562 1.17578,-0.636719 1.17578,-1.292969 0,-0.761718 -0.57422,-1.140625 -1.17578,-1.347656 v -0.996094 h -0.92187 c 0.0391,-0.503906 0.0898,-1.261718 0.13281,-1.863281 h 3.22266 c 0,0 -0.17969,-0.683594 -0.17969,-0.921875 0,-0.425781 0.28906,-0.609375 0.89453,-0.609375 0.40234,0 0.67969,0.07422 1.57031,0.07422 1,0 1.85156,-0.140625 2.5625,-0.5 v -0.21875 c -0.28906,0.05078 -0.51953,0.06641 -0.79687,0.06641"
         id="path247"
         inkscape:connector-curvature="0" />
      <path
         style="fill:#ffffff;fill-opacity:1;fill-rule:evenodd;stroke:none"
         d="m 107.03516,39.984375 v -3.648437 h -1.36328 l -1.14454,2.851562 -1.08593,-2.851562 h -1.36719 v 3.648437 h 0.88672 v -2.742187 l 1.08203,2.742187 h 0.96094 l 1.14062,-2.742187 v 2.742187 h 0.89063"
         id="path249"
         inkscape:connector-curvature="0" />
      <path
         style="fill:#ffffff;fill-opacity:1;fill-rule:evenodd;stroke:none"
         d="m 111.14453,39.984375 v -0.648437 h -1.17578 c -0.78125,0 -1.21484,-0.144532 -1.28516,-0.84375 h 2.46094 v -0.644532 h -2.46094 c 0.0273,-0.207031 0.0391,-0.421875 0.19532,-0.589843 0.0859,-0.09766 0.18359,-0.160157 0.3164,-0.203125 0.19141,-0.0625 0.53907,-0.06641 0.73438,-0.06641 h 1.21484 v -0.652343 h -1.57422 c -0.34375,0 -0.71093,0.02344 -1.0039,0.175781 -0.67188,0.347656 -0.9375,0.984375 -0.9375,1.621094 0,0.648437 0.26562,1.480468 1.08203,1.726562 0.35937,0.109375 0.83984,0.125 1.21875,0.125 h 1.21484"
         id="path251"
         inkscape:connector-curvature="0" />
      <path
         style="fill:#ffffff;fill-opacity:1;fill-rule:evenodd;stroke:none"
         d="m 115.96875,38.910156 c 0,-0.378906 -0.16016,-0.792968 -0.59766,-0.96875 -0.3164,-0.128906 -0.64062,-0.136718 -0.98046,-0.136718 h -0.70313 c -0.35156,0 -0.79687,-0.01953 -0.79687,-0.414063 0,-0.449219 0.47656,-0.402344 0.875,-0.402344 h 1.95703 v -0.652343 h -2.16407 c -0.4414,0 -0.92578,-0.01172 -1.27734,0.242187 -0.26953,0.195313 -0.42578,0.539063 -0.42578,0.835938 0,0.386718 0.24219,0.796875 0.69141,0.941406 0.24218,0.07813 0.5664,0.09766 0.82031,0.09766 h 0.80469 c 0.20312,0 0.45312,0.01172 0.60156,0.144531 0.0977,0.08203 0.15625,0.195313 0.15625,0.316407 0,0.414062 -0.5,0.421875 -0.86719,0.421875 h -1.99609 v 0.648437 h 2.19922 c 0.53125,0 1.04687,0.02734 1.41796,-0.347656 0.19532,-0.203125 0.28516,-0.472656 0.28516,-0.726563"
         id="path253"
         inkscape:connector-curvature="0" />
      <path
         style="fill:#ffffff;fill-opacity:1;fill-rule:evenodd;stroke:none"
         d="m 120.59766,38.910156 c 0,-0.378906 -0.16407,-0.792968 -0.59766,-0.96875 -0.3125,-0.128906 -0.64453,-0.136718 -0.98437,-0.136718 h -0.69922 c -0.35547,0 -0.80078,-0.01953 -0.80078,-0.414063 0,-0.449219 0.48046,-0.402344 0.8789,-0.402344 h 1.95313 v -0.652343 h -2.16407 c -0.4375,0 -0.92187,-0.01172 -1.27343,0.242187 -0.26953,0.195313 -0.42969,0.539063 -0.42969,0.835938 0,0.386718 0.24609,0.796875 0.69531,0.941406 0.24219,0.07813 0.5625,0.09766 0.82031,0.09766 h 0.80079 c 0.20312,0 0.45703,0.01172 0.60156,0.144531 0.10547,0.08203 0.16015,0.195313 0.16015,0.316407 0,0.414062 -0.5039,0.421875 -0.87109,0.421875 h -1.99609 v 0.648437 h 2.19922 c 0.53125,0 1.05078,0.02734 1.41796,-0.347656 0.19532,-0.203125 0.28907,-0.472656 0.28907,-0.726563"
         id="path255"
         inkscape:connector-curvature="0" />
      <path
         style="fill:#ffffff;fill-opacity:1;fill-rule:evenodd;stroke:none"
         d="M 124.67969,39.984375 V 39.335938 H 123.5 c -0.77734,0 -1.21094,-0.144532 -1.28516,-0.84375 h 2.46485 v -0.644532 h -2.46485 c 0.0273,-0.207031 0.0391,-0.421875 0.19922,-0.589843 0.0859,-0.09766 0.1836,-0.160157 0.3125,-0.203125 0.19141,-0.0625 0.53907,-0.06641 0.73438,-0.06641 h 1.21875 v -0.652343 h -1.57813 c -0.33984,0 -0.70703,0.02344 -1.0039,0.175781 -0.66797,0.347656 -0.9375,0.984375 -0.9375,1.621094 0,0.648437 0.26953,1.480468 1.08203,1.726562 0.35937,0.109375 0.83984,0.125 1.21875,0.125 h 1.21875"
         id="path257"
         inkscape:connector-curvature="0" />
      <path
         style="fill:#ffffff;fill-opacity:1;fill-rule:evenodd;stroke:none"
         d="m 99.105469,35.558594 v -3.648438 h -0.925781 v 1.492188 h -1.695313 v -1.492188 h -0.929687 v 3.648438 h 0.929687 v -1.507813 h 1.695313 v 1.507813 h 0.925781"
         id="path259"
         inkscape:connector-curvature="0" />
      <path
         style="fill:#ffffff;fill-opacity:1;fill-rule:evenodd;stroke:none"
         d="m 102.54688,34.066406 h -1.25 l 0.625,-1.285156 z m 1.72265,1.492188 -1.80859,-3.648438 h -1.07031 l -1.812505,3.648438 h 1.085935 l 0.42188,-0.847656 h 1.66797 l 0.42187,0.847656 h 1.09375"
         id="path261"
         inkscape:connector-curvature="0" />
      <path
         style="fill:#ffffff;fill-opacity:1;fill-rule:evenodd;stroke:none"
         d="m 108.5625,35.558594 v -3.648438 h -0.88672 v 2.71875 l -1.73828,-2.71875 h -1.19531 v 3.648438 h 0.89453 v -2.675781 l 1.77734,2.675781 h 1.14844"
         id="path263"
         inkscape:connector-curvature="0" />
      <path
         style="fill:#ffffff;fill-opacity:1;fill-rule:evenodd;stroke:none"
         d="m 113.27344,35.558594 v -3.648438 h -0.88672 v 2.71875 l -1.73828,-2.71875 h -1.19531 v 3.648438 h 0.89453 v -2.675781 l 1.77734,2.675781 h 1.14844"
         id="path265"
         inkscape:connector-curvature="0" />
      <path
         style="fill:#ffffff;fill-opacity:1;fill-rule:evenodd;stroke:none"
         d="m 117.22656,33.722656 c 0,0.664063 -0.1914,1.246094 -1.125,1.246094 -0.93359,0 -1.13672,-0.566406 -1.13672,-1.242187 0,-0.683594 0.20313,-1.226563 1.13672,-1.226563 0.91407,0 1.125,0.550781 1.125,1.222656 z m 1.02344,0.05469 c 0,-1.222656 -0.64453,-1.890625 -2.15625,-1.890625 -1.49609,0 -2.16406,0.640625 -2.16406,1.867187 0,0.53125 0.16406,1.132813 0.70703,1.46875 0.40625,0.257813 1.01953,0.355469 1.51953,0.355469 1.41016,0 2.09375,-0.644531 2.09375,-1.800781"
         id="path267"
         inkscape:connector-curvature="0" />
      <path
         style="fill:#ffffff;fill-opacity:1;fill-rule:evenodd;stroke:none"
         d="m 122.97266,31.910156 h -1.04688 l -1.30859,2.746094 -1.28906,-2.746094 h -1.04688 l 1.84766,3.648438 h 0.92968 l 1.91407,-3.648438"
         id="path269"
         inkscape:connector-curvature="0" />
      <path
         style="fill:#ffffff;fill-opacity:1;fill-rule:evenodd;stroke:none"
         d="M 126.45313,35.558594 V 34.90625 h -1.17579 c -0.78125,0 -1.21484,-0.140625 -1.28906,-0.839844 h 2.46485 v -0.644531 h -2.46485 c 0.0273,-0.210937 0.0391,-0.425781 0.19922,-0.59375 0.0859,-0.09375 0.18359,-0.15625 0.31641,-0.199219 0.1875,-0.06641 0.53515,-0.07031 0.73437,-0.07031 h 1.21485 v -0.648438 h -1.57422 c -0.34375,0 -0.70703,0.01953 -1.00782,0.171875 -0.66796,0.351563 -0.9375,0.984375 -0.9375,1.621094 0,0.652344 0.26954,1.484375 1.08204,1.726563 0.36328,0.109375 0.84375,0.128906 1.22265,0.128906 h 1.21485"
         id="path271"
         inkscape:connector-curvature="0" />
      <path
         style="fill:#ffffff;fill-opacity:1;fill-rule:evenodd;stroke:none"
         d="m 130.16797,33.019531 c 0,0.386719 -0.25,0.5 -0.67578,0.5 h -1.30469 v -0.960937 h 1.30469 c 0.38672,0 0.67578,0.08203 0.67578,0.460937 z m 1.08984,2.539063 c -0.0391,-0.101563 -0.0664,-0.191406 -0.082,-0.296875 -0.0312,-0.25 -0.0195,-0.511719 -0.13672,-0.753906 -0.15625,-0.316407 -0.30078,-0.40625 -0.67969,-0.519532 0.59375,-0.160156 0.83204,-0.5625 0.83204,-1.0625 0,-0.4375 -0.3086,-0.816406 -0.82032,-0.9375 -0.30859,-0.07031 -0.65625,-0.07813 -0.97656,-0.07813 h -2.14062 v 3.648438 h 0.93359 v -1.382813 h 0.74609 c 0.8086,0 1.09766,0.183594 1.1836,0.863282 0.0234,0.171875 0.0312,0.347656 0.0977,0.519531 h 1.04297"
         id="path273"
         inkscape:connector-curvature="0" />
      <g
         clip-path="url(#clip3-0)"
         id="g277"
         style="clip-rule:nonzero">
        <path
           style="fill:none;stroke:#ffffff;stroke-width:0.72000003;stroke-linecap:butt;stroke-linejoin:miter;stroke-miterlimit:10;stroke-opacity:1"
           d="m -6.5612e-4,7.2019e-4 c 0,-12.98828119 0,-25.97656219 0,-38.96484419 12.98828112,0 25.98046912,0 38.96484412,0 0,12.988282 0,25.976563 0,38.96484419 -12.984375,0 -25.976563,0 -38.96484412,0 z m 0,0"
           transform="matrix(1,0,0,-1,93.903,8.864001)"
           id="path275"
           inkscape:connector-curvature="0" />
      </g>
      <g
         style="fill:#ffffff;fill-opacity:1"
         id="g283">
        <g
           id="use279"
           transform="translate(8.5038996,38.176498)">
          <path
             inkscape:connector-curvature="0"
             id="path5417"
             d="M 3.84375,0 V -0.734375 C 2.875,-0.734375 2,-0.71875 1.484375,-0.703125 L 2.25,-1.59375 c 1.015625,-1.15625 1.390625,-1.875 1.390625,-2.671875 0,-0.875 -0.5625,-1.546875 -1.640625,-1.546875 -0.578125,0 -1.046875,0.140625 -1.4375,0.328125 l 0.125,0.703125 C 1,-4.984375 1.421875,-5.140625 1.796875,-5.140625 c 0.6875,0 1.015625,0.453125 1.015625,1 0,0.59375 -0.25,1.171875 -1.21875,2.265625 l -1.078125,1.25 V 0 Z m 0,0"
             style="stroke:none" />
        </g>
        <g
           id="use281"
           transform="translate(12.8117,38.176498)">
          <path
             inkscape:connector-curvature="0"
             id="path5453"
             d="m 3.640625,-1.71875 c 0,-0.71875 -0.484375,-1.21875 -1.1875,-1.375 v -0.015625 c 0.59375,-0.21875 0.96875,-0.71875 0.96875,-1.375 0,-0.734375 -0.5,-1.328125 -1.578125,-1.328125 -0.453125,0 -0.890625,0.09375 -1.234375,0.25 l 0.0625,0.65625 c 0.296875,-0.171875 0.640625,-0.265625 1,-0.265625 0.59375,0 0.9375,0.3125 0.9375,0.84375 0,0.671875 -0.515625,1.09375 -1.8125,1.0625 V -2.65625 C 0.953125,-2.671875 1.125,-2.6875 1.328125,-2.6875 c 0.984375,0 1.5,0.40625 1.5,1 0,0.609375 -0.515625,1.09375 -1.359375,1.09375 -0.328125,0 -0.65625,-0.046875 -0.890625,-0.125 L 0.5,-0.03125 c 0.21875,0.0625 0.578125,0.09375 0.921875,0.09375 1.296875,0 2.21875,-0.75 2.21875,-1.78125 z m 0,0"
             style="stroke:none" />
        </g>
      </g>
      <g
         style="fill:#ffffff;fill-opacity:1"
         id="g287">
        <g
           id="use285"
           transform="translate(18.540701,38.176498)">
          <path
             inkscape:connector-curvature="0"
             id="path5465"
             d="m 4.671875,-2.203125 v -0.65625 H 0 v 0.65625 z m 0,0"
             style="stroke:none" />
        </g>
      </g>
      <g
         style="fill:#ffffff;fill-opacity:1"
         id="g291">
        <g
           id="use289"
           transform="translate(24.4652,38.176498)">
          <path
             inkscape:connector-curvature="0"
             id="path5421"
             d="M 3.84375,0 V -0.734375 C 2.875,-0.734375 2,-0.71875 1.484375,-0.703125 L 2.25,-1.59375 c 1.015625,-1.15625 1.390625,-1.875 1.390625,-2.671875 0,-0.875 -0.5625,-1.546875 -1.640625,-1.546875 -0.578125,0 -1.046875,0.140625 -1.4375,0.328125 l 0.125,0.703125 C 1,-4.984375 1.421875,-5.140625 1.796875,-5.140625 c 0.6875,0 1.015625,0.453125 1.015625,1 0,0.59375 -0.25,1.171875 -1.21875,2.265625 l -1.078125,1.25 V 0 Z m 0,0"
             style="stroke:none" />
        </g>
      </g>
      <g
         style="fill:#ffffff;fill-opacity:1"
         id="g299">
        <g
           id="use293"
           transform="translate(28.773001,38.176498)">
          <path
             inkscape:connector-curvature="0"
             id="path5457"
             d="m 3.625,-5.078125 v -0.65625 H 0.21875 v 0.75 c 0.5,0 2.28125,0 2.546875,-0.015625 C 2.265625,-3.90625 1.5,-1.8125 1.0625,0 H 1.921875 C 2.265625,-1.578125 2.9375,-3.609375 3.625,-5.078125 Z m 0,0"
             style="stroke:none" />
        </g>
        <g
           id="use295"
           transform="translate(32.6898,38.176498)">
          <path
             inkscape:connector-curvature="0"
             id="path5433"
             d=""
             style="stroke:none" />
        </g>
        <g
           id="use297"
           transform="translate(34.5853,38.176498)">
          <path
             inkscape:connector-curvature="0"
             id="path5441"
             d="M 5.15625,0 3.046875,-5.734375 h -0.875 L 0.078125,0 h 0.8125 l 0.46875,-1.34375 h 2.4375 L 4.28125,0 Z M 3.59375,-1.96875 H 1.5625 L 2.328125,-4.125 C 2.421875,-4.390625 2.5,-4.65625 2.5625,-4.890625 h 0.015625 c 0.078125,0.234375 0.15625,0.5 0.25,0.78125 z m 0,0"
             style="stroke:none" />
        </g>
      </g>
      <g
         style="fill:#ffffff;fill-opacity:1"
         id="g303">
        <g
           id="use301"
           transform="translate(39.930099,38.176498)">
          <path
             inkscape:connector-curvature="0"
             id="path5445"
             d="m 4.375,-2.3125 c 0,-1.296875 -0.5625,-1.984375 -1.546875,-1.984375 -0.671875,0 -1.171875,0.359375 -1.421875,0.9375 H 1.390625 c 0.046875,-0.25 0.078125,-0.625 0.078125,-0.859375 h -0.75 v 6.3125 H 1.484375 V 0 c 0.25,0.046875 0.453125,0.046875 0.71875,0.046875 C 3.5625,0.046875 4.375,-0.8125 4.375,-2.3125 Z M 3.578125,-2.25 c 0,1.21875 -0.546875,1.703125 -1.34375,1.703125 -0.28125,0 -0.53125,-0.03125 -0.75,-0.09375 v -1.40625 c 0,-0.734375 0.390625,-1.625 1.15625,-1.625 0.640625,0 0.9375,0.515625 0.9375,1.421875 z m 0,0"
             style="stroke:none" />
        </g>
      </g>
      <g
         style="fill:#ffffff;fill-opacity:1"
         id="g309">
        <g
           id="use305"
           transform="translate(44.74535,38.176498)">
          <path
             inkscape:connector-curvature="0"
             id="path5481"
             d="M 2.84375,-4.296875 C 2,-4.390625 1.5625,-3.8125 1.390625,-3.21875 H 1.375 c 0.0625,-0.34375 0.09375,-0.75 0.09375,-1 h -0.75 V 0 h 0.765625 v -1.703125 c 0,-1.34375 0.421875,-2 1.328125,-1.84375 z m 0,0"
             style="stroke:none" />
        </g>
        <g
           id="use307"
           transform="translate(47.812149,38.176498)">
          <path
             inkscape:connector-curvature="0"
             id="path5461"
             d="m 1.609375,-5.5625 c 0,-0.28125 -0.21875,-0.5 -0.5,-0.5 -0.28125,0 -0.515625,0.21875 -0.515625,0.5 0,0.28125 0.234375,0.5 0.515625,0.5 0.28125,0 0.5,-0.21875 0.5,-0.5 z M 1.484375,0 V -4.21875 H 0.71875 V 0 Z m 0,0"
             style="stroke:none" />
        </g>
      </g>
      <g
         style="fill:#ffffff;fill-opacity:1"
         id="g317">
        <g
           id="use311"
           transform="translate(50.016201,38.176498)">
          <path
             inkscape:connector-curvature="0"
             id="path5469"
             d="M 1.484375,0 V -6.203125 H 0.71875 V 0 Z m 0,0"
             style="stroke:none" />
        </g>
        <g
           id="use313"
           transform="translate(52.275501,38.176498)">
          <path
             inkscape:connector-curvature="0"
             id="path5437"
             d=""
             style="stroke:none" />
        </g>
        <g
           id="use315"
           transform="translate(54.171001,38.176498)">
          <path
             inkscape:connector-curvature="0"
             id="path5425"
             d="M 3.84375,0 V -0.734375 C 2.875,-0.734375 2,-0.71875 1.484375,-0.703125 L 2.25,-1.59375 c 1.015625,-1.15625 1.390625,-1.875 1.390625,-2.671875 0,-0.875 -0.5625,-1.546875 -1.640625,-1.546875 -0.578125,0 -1.046875,0.140625 -1.4375,0.328125 l 0.125,0.703125 C 1,-4.984375 1.421875,-5.140625 1.796875,-5.140625 c 0.6875,0 1.015625,0.453125 1.015625,1 0,0.59375 -0.25,1.171875 -1.21875,2.265625 l -1.078125,1.25 V 0 Z m 0,0"
             style="stroke:none" />
        </g>
      </g>
      <g
         style="fill:#ffffff;fill-opacity:1"
         id="g321">
        <g
           id="use319"
           transform="translate(58.408249,38.176498)">
          <path
             inkscape:connector-curvature="0"
             id="path5473"
             d="M 4.5625,-2.921875 C 4.5625,-5 3.78125,-5.8125 2.546875,-5.8125 c -1.171875,0 -2.140625,0.953125 -2.140625,3 0,2.078125 0.796875,2.890625 2.015625,2.890625 1.1875,0 2.140625,-0.953125 2.140625,-3 z M 3.75,-2.859375 C 3.75,-1.1875 3.203125,-0.5625 2.484375,-0.5625 1.65625,-0.5625 1.21875,-1.296875 1.21875,-2.875 c 0,-1.671875 0.5625,-2.296875 1.28125,-2.296875 0.828125,0 1.25,0.71875 1.25,2.3125 z m 0,0"
             style="stroke:none" />
        </g>
      </g>
      <g
         style="fill:#ffffff;fill-opacity:1"
         id="g327">
        <g
           id="use323"
           transform="translate(63.442799,38.176498)">
          <path
             inkscape:connector-curvature="0"
             id="path5477"
             d="m 2.21875,0 v -5.734375 h -0.625 l -1.375,0.484375 0.125,0.71875 1.078125,-0.421875 V 0 Z m 0,0"
             style="stroke:none" />
        </g>
        <g
           id="use325"
           transform="translate(66.4841,38.176498)">
          <path
             inkscape:connector-curvature="0"
             id="path5429"
             d="m 4.1875,-1.46875 c 0,-0.703125 -0.515625,-1.15625 -1.21875,-1.546875 0.578125,-0.375 1.109375,-0.796875 1.109375,-1.46875 0,-0.78125 -0.640625,-1.359375 -1.671875,-1.359375 -1.09375,0 -1.84375,0.59375 -1.84375,1.515625 0,0.59375 0.390625,1.015625 1.0625,1.40625 -0.59375,0.390625 -1.15625,0.859375 -1.15625,1.578125 0,0.828125 0.625,1.421875 1.78125,1.421875 1.078125,0 1.9375,-0.546875 1.9375,-1.546875 z M 3.265625,-4.421875 c 0,0.390625 -0.265625,0.6875 -0.921875,1.09375 -0.609375,-0.328125 -1,-0.640625 -1,-1.09375 0,-0.46875 0.375,-0.8125 1,-0.8125 0.625,0 0.921875,0.375 0.921875,0.8125 z m 0.125,3.03125 c 0,0.546875 -0.46875,0.828125 -1.046875,0.828125 -0.65625,0 -1.0625,-0.34375 -1.0625,-0.859375 0,-0.53125 0.453125,-0.859375 0.96875,-1.171875 0.59375,0.3125 1.140625,0.625 1.140625,1.203125 z m 0,0"
             style="stroke:none" />
        </g>
      </g>
      <g
         style="fill:#ffffff;fill-opacity:1"
         id="g371">
        <g
           id="use329"
           transform="translate(8.5050001,24.874001)">
          <path
             inkscape:connector-curvature="0"
             id="path5449"
             d="M 0.59375,0 V -5.734375 H 1.75 v 2.265625 h 2.265625 v -2.265625 h 1.15625 V 0 H 4.015625 V -2.5 H 1.75 V 0 Z m 0,0"
             style="stroke:none" />
        </g>
        <g
           id="use331"
           transform="translate(14.281,24.874001)">
          <path
             inkscape:connector-curvature="0"
             id="path5533"
             d="M 1.390625,-2.890625 0.40625,-3.0625 C 0.507813,-3.46875 0.695313,-3.765625 0.96875,-3.953125 1.25,-4.148438 1.660156,-4.25 2.203125,-4.25 c 0.488281,0 0.851563,0.0625 1.09375,0.1875 0.238281,0.117187 0.40625,0.261719 0.5,0.4375 0.09375,0.179687 0.140625,0.507812 0.140625,0.984375 v 1.28125 c 0,0.367187 0.015625,0.636719 0.046875,0.8125 C 4.015625,-0.378906 4.082031,-0.195313 4.1875,0 H 3.09375 C 3.0625,-0.0703125 3.023438,-0.179688 2.984375,-0.328125 c -0.011719,-0.0625 -0.023437,-0.101563 -0.03125,-0.125 -0.1875,0.179687 -0.390625,0.3125 -0.609375,0.40625 C 2.132813,0.046875 1.910156,0.09375 1.671875,0.09375 1.242188,0.09375 0.90625,-0.0195313 0.65625,-0.25 c -0.25,-0.238281 -0.375,-0.535156 -0.375,-0.890625 0,-0.226563 0.054688,-0.429688 0.171875,-0.609375 0.113281,-0.1875 0.269531,-0.328125 0.46875,-0.421875 0.207031,-0.101563 0.5,-0.191406 0.875,-0.265625 0.507813,-0.09375 0.863281,-0.179688 1.0625,-0.265625 V -2.8125 c 0,-0.21875 -0.054687,-0.367188 -0.15625,-0.453125 C 2.597656,-3.359375 2.40625,-3.40625 2.125,-3.40625 c -0.199219,0 -0.355469,0.042969 -0.46875,0.125 -0.105469,0.074219 -0.195312,0.203125 -0.265625,0.390625 z M 2.859375,-2 C 2.722656,-1.945313 2.5,-1.890625 2.1875,-1.828125 c -0.304687,0.0625 -0.5,0.125 -0.59375,0.1875 C 1.457031,-1.535156 1.390625,-1.40625 1.390625,-1.25 c 0,0.15625 0.054688,0.292969 0.171875,0.40625 0.113281,0.105469 0.257813,0.15625 0.4375,0.15625 0.195313,0 0.382813,-0.0625 0.5625,-0.1875 0.132813,-0.101563 0.222656,-0.222656 0.265625,-0.359375 0.019531,-0.09375 0.03125,-0.273438 0.03125,-0.546875 z m 0,0"
             style="stroke:none" />
        </g>
        <g
           id="use333"
           transform="translate(18.729,24.874001)">
          <path
             inkscape:connector-curvature="0"
             id="path5497"
             d="m 0.578125,0 v -5.734375 h 1.09375 V 0 Z m 0,0"
             style="stroke:none" />
        </g>
        <g
           id="use335"
           transform="translate(20.952999,24.874001)">
          <path
             inkscape:connector-curvature="0"
             id="path5501"
             d="m 0.578125,0 v -5.734375 h 1.09375 V 0 Z m 0,0"
             style="stroke:none" />
        </g>
        <g
           id="use337"
           transform="translate(23.177,24.874001)">
          <path
             inkscape:connector-curvature="0"
             id="path5517"
             d=""
             style="stroke:none" />
        </g>
        <g
           id="use339"
           transform="translate(25.400999,24.874001)">
          <path
             inkscape:connector-curvature="0"
             id="path5553"
             d="M 4.0625,-4.328125 3,-4.203125 C 2.96875,-4.421875 2.894531,-4.582031 2.78125,-4.6875 2.675781,-4.789063 2.539063,-4.84375 2.375,-4.84375 c -0.242187,0 -0.4375,0.105469 -0.59375,0.3125 C 1.625,-4.320313 1.523438,-3.890625 1.484375,-3.234375 1.753906,-3.554688 2.09375,-3.71875 2.5,-3.71875 c 0.457031,0 0.847656,0.179687 1.171875,0.53125 0.332031,0.34375 0.5,0.792969 0.5,1.34375 0,0.585937 -0.171875,1.054687 -0.515625,1.40625 -0.34375,0.3554687 -0.789062,0.53125 -1.328125,0.53125 -0.585937,0 -1.0625,-0.222656 -1.4375,-0.671875 C 0.523438,-1.023438 0.34375,-1.757813 0.34375,-2.78125 c 0,-1.050781 0.191406,-1.804688 0.578125,-2.265625 C 1.304688,-5.515625 1.8125,-5.75 2.4375,-5.75 c 0.4375,0 0.796875,0.125 1.078125,0.375 0.28125,0.242187 0.460938,0.589844 0.546875,1.046875 z M 1.578125,-1.9375 c 0,0.367187 0.078125,0.648437 0.234375,0.84375 0.164063,0.1875 0.351563,0.28125 0.5625,0.28125 0.207031,0 0.378906,-0.078125 0.515625,-0.234375 0.132813,-0.164063 0.203125,-0.425781 0.203125,-0.78125 0,-0.375 -0.074219,-0.644531 -0.21875,-0.8125 C 2.726563,-2.816406 2.546875,-2.90625 2.328125,-2.90625 c -0.210937,0 -0.386719,0.085937 -0.53125,0.25 C 1.648438,-2.5 1.578125,-2.257813 1.578125,-1.9375 Z m 0,0"
             style="stroke:none" />
        </g>
        <g
           id="use341"
           transform="translate(29.849001,24.874001)">
          <path
             inkscape:connector-curvature="0"
             id="path5485"
             d="m 0.546875,-1.09375 h 1.09375 v 0.78125 c 0,0.3203125 -0.027344,0.570313 -0.078125,0.75 C 1.507813,0.625 1.40625,0.789063 1.25,0.9375 1.101563,1.082031 0.910156,1.195313 0.671875,1.28125 L 0.453125,0.828125 C 0.679688,0.753906 0.84375,0.648438 0.9375,0.515625 1.03125,0.390625 1.078125,0.21875 1.078125,0 h -0.53125 z m 0,0"
             style="stroke:none" />
        </g>
        <g
           id="use343"
           transform="translate(32.073002,24.874001)">
          <path
             inkscape:connector-curvature="0"
             id="path5521"
             d=""
             style="stroke:none" />
        </g>
        <g
           id="use345"
           transform="translate(34.297001,24.874001)">
          <path
             inkscape:connector-curvature="0"
             id="path5549"
             d="m 0.296875,-1.859375 1.125,-0.109375 c 0.0625,0.375 0.195313,0.652344 0.40625,0.828125 0.207031,0.179687 0.488281,0.265625 0.84375,0.265625 0.363281,0 0.640625,-0.078125 0.828125,-0.234375 0.195313,-0.15625 0.296875,-0.34375 0.296875,-0.5625 0,-0.132813 -0.042969,-0.25 -0.125,-0.34375 -0.085937,-0.09375 -0.226562,-0.175781 -0.421875,-0.25 -0.136719,-0.039063 -0.445312,-0.125 -0.921875,-0.25 C 1.710938,-2.660156 1.28125,-2.847656 1.03125,-3.078125 0.675781,-3.390625 0.5,-3.773438 0.5,-4.234375 c 0,-0.289063 0.082031,-0.5625 0.25,-0.8125 0.164063,-0.25 0.398438,-0.441406 0.703125,-0.578125 0.3125,-0.132813 0.691406,-0.203125 1.140625,-0.203125 0.71875,0 1.253906,0.164062 1.609375,0.484375 0.363281,0.3125 0.554688,0.730469 0.578125,1.25 L 3.625,-4.046875 c -0.054687,-0.289063 -0.164062,-0.5 -0.328125,-0.625 C 3.140625,-4.804688 2.898438,-4.875 2.578125,-4.875 c -0.335937,0 -0.601562,0.074219 -0.796875,0.21875 -0.117187,0.085937 -0.171875,0.199219 -0.171875,0.34375 0,0.136719 0.054688,0.257812 0.171875,0.359375 0.144531,0.117187 0.5,0.242187 1.0625,0.375 0.5625,0.136719 0.972656,0.277344 1.234375,0.421875 0.269531,0.136719 0.484375,0.328125 0.640625,0.578125 0.15625,0.242187 0.234375,0.542969 0.234375,0.90625 0,0.335937 -0.09375,0.648437 -0.28125,0.9375 -0.179687,0.28125 -0.433594,0.496094 -0.765625,0.640625 -0.335937,0.1328125 -0.75,0.203125 -1.25,0.203125 -0.730469,0 -1.289062,-0.1640625 -1.671875,-0.5 -0.386719,-0.34375 -0.617187,-0.832031 -0.6875,-1.46875 z m 0,0"
             style="stroke:none" />
        </g>
        <g
           id="use347"
           transform="translate(39.632999,24.874001)">
          <path
             inkscape:connector-curvature="0"
             id="path5513"
             d="m 2.484375,-4.15625 v 0.875 h -0.75 v 1.671875 c 0,0.34375 0.00391,0.546875 0.015625,0.609375 0.00781,0.054687 0.039063,0.101562 0.09375,0.140625 0.050781,0.03125 0.113281,0.046875 0.1875,0.046875 0.101563,0 0.25,-0.035156 0.4375,-0.109375 l 0.09375,0.84375 C 2.3125,0.0351563 2.023438,0.09375 1.703125,0.09375 1.503906,0.09375 1.320313,0.0625 1.15625,0 1,-0.0703125 0.882813,-0.160156 0.8125,-0.265625 0.738281,-0.367188 0.6875,-0.507813 0.65625,-0.6875 0.632813,-0.820313 0.625,-1.082031 0.625,-1.46875 v -1.8125 h -0.5 v -0.875 h 0.5 v -0.8125 l 1.109375,-0.640625 v 1.453125 z m 0,0"
             style="stroke:none" />
        </g>
        <g
           id="use349"
           transform="translate(42.297001,24.874001)">
          <path
             inkscape:connector-curvature="0"
             id="path5537"
             d="M 1.390625,-2.890625 0.40625,-3.0625 C 0.507813,-3.46875 0.695313,-3.765625 0.96875,-3.953125 1.25,-4.148438 1.660156,-4.25 2.203125,-4.25 c 0.488281,0 0.851563,0.0625 1.09375,0.1875 0.238281,0.117187 0.40625,0.261719 0.5,0.4375 0.09375,0.179687 0.140625,0.507812 0.140625,0.984375 v 1.28125 c 0,0.367187 0.015625,0.636719 0.046875,0.8125 C 4.015625,-0.378906 4.082031,-0.195313 4.1875,0 H 3.09375 C 3.0625,-0.0703125 3.023438,-0.179688 2.984375,-0.328125 c -0.011719,-0.0625 -0.023437,-0.101563 -0.03125,-0.125 -0.1875,0.179687 -0.390625,0.3125 -0.609375,0.40625 C 2.132813,0.046875 1.910156,0.09375 1.671875,0.09375 1.242188,0.09375 0.90625,-0.0195313 0.65625,-0.25 c -0.25,-0.238281 -0.375,-0.535156 -0.375,-0.890625 0,-0.226563 0.054688,-0.429688 0.171875,-0.609375 0.113281,-0.1875 0.269531,-0.328125 0.46875,-0.421875 0.207031,-0.101563 0.5,-0.191406 0.875,-0.265625 0.507813,-0.09375 0.863281,-0.179688 1.0625,-0.265625 V -2.8125 c 0,-0.21875 -0.054687,-0.367188 -0.15625,-0.453125 C 2.597656,-3.359375 2.40625,-3.40625 2.125,-3.40625 c -0.199219,0 -0.355469,0.042969 -0.46875,0.125 -0.105469,0.074219 -0.195312,0.203125 -0.265625,0.390625 z M 2.859375,-2 C 2.722656,-1.945313 2.5,-1.890625 2.1875,-1.828125 c -0.304687,0.0625 -0.5,0.125 -0.59375,0.1875 C 1.457031,-1.535156 1.390625,-1.40625 1.390625,-1.25 c 0,0.15625 0.054688,0.292969 0.171875,0.40625 0.113281,0.105469 0.257813,0.15625 0.4375,0.15625 0.195313,0 0.382813,-0.0625 0.5625,-0.1875 0.132813,-0.101563 0.222656,-0.222656 0.265625,-0.359375 0.019531,-0.09375 0.03125,-0.273438 0.03125,-0.546875 z m 0,0"
             style="stroke:none" />
        </g>
        <g
           id="use351"
           transform="translate(46.744999,24.874001)">
          <path
             inkscape:connector-curvature="0"
             id="path5529"
             d="M 4.34375,0 H 3.25 v -2.125 c 0,-0.445313 -0.027344,-0.734375 -0.078125,-0.859375 -0.042969,-0.132813 -0.117187,-0.238281 -0.21875,-0.3125 -0.105469,-0.070313 -0.230469,-0.109375 -0.375,-0.109375 -0.199219,0 -0.375,0.054687 -0.53125,0.15625 C 1.898438,-3.144531 1.800781,-3.003906 1.75,-2.828125 1.695313,-2.660156 1.671875,-2.34375 1.671875,-1.875 V 0 H 0.5625 v -4.15625 h 1.03125 v 0.609375 C 1.945313,-4.015625 2.398438,-4.25 2.953125,-4.25 c 0.238281,0 0.457031,0.046875 0.65625,0.140625 0.207031,0.085937 0.363281,0.195312 0.46875,0.328125 0.101563,0.136719 0.171875,0.292969 0.203125,0.46875 0.039063,0.167969 0.0625,0.414062 0.0625,0.734375 z m 0,0"
             style="stroke:none" />
        </g>
        <g
           id="use353"
           transform="translate(51.632999,24.874001)">
          <path
             inkscape:connector-curvature="0"
             id="path5541"
             d="M 4.375,0 H 3.359375 V -0.609375 C 3.191406,-0.367188 2.992188,-0.191406 2.765625,-0.078125 2.535156,0.0351563 2.300781,0.09375 2.0625,0.09375 c -0.480469,0 -0.890625,-0.1914063 -1.234375,-0.578125 -0.335937,-0.382813 -0.5,-0.921875 -0.5,-1.609375 0,-0.695313 0.164063,-1.226563 0.5,-1.59375 0.332031,-0.375 0.75,-0.5625 1.25,-0.5625 0.46875,0 0.867188,0.195312 1.203125,0.578125 v -2.0625 H 4.375 Z M 1.453125,-2.171875 c 0,0.449219 0.0625,0.773437 0.1875,0.96875 0.175781,0.28125 0.421875,0.421875 0.734375,0.421875 0.25,0 0.460938,-0.101563 0.640625,-0.3125 0.175781,-0.21875 0.265625,-0.539063 0.265625,-0.96875 0,-0.476563 -0.089844,-0.820313 -0.265625,-1.03125 -0.167969,-0.207031 -0.382812,-0.3125 -0.640625,-0.3125 -0.261719,0 -0.480469,0.105469 -0.65625,0.3125 -0.179687,0.210937 -0.265625,0.515625 -0.265625,0.921875 z m 0,0"
             style="stroke:none" />
        </g>
        <g
           id="use355"
           transform="translate(56.521,24.874001)">
          <path
             inkscape:connector-curvature="0"
             id="path5525"
             d=""
             style="stroke:none" />
        </g>
        <g
           id="use357"
           transform="translate(58.744999,24.874001)">
          <path
             inkscape:connector-curvature="0"
             id="path5545"
             d="M 4.25,-2.109375 5.375,-1.75 C 5.195313,-1.125 4.90625,-0.660156 4.5,-0.359375 4.101563,-0.0546875 3.597656,0.09375 2.984375,0.09375 c -0.761719,0 -1.386719,-0.257813 -1.875,-0.78125 C 0.617188,-1.207031 0.375,-1.914063 0.375,-2.8125 c 0,-0.957031 0.242188,-1.695313 0.734375,-2.21875 0.5,-0.53125 1.148438,-0.796875 1.953125,-0.796875 0.695313,0 1.265625,0.210937 1.703125,0.625 0.257813,0.242187 0.457031,0.589844 0.59375,1.046875 L 4.203125,-3.875 C 4.140625,-4.175781 4,-4.410156 3.78125,-4.578125 3.570313,-4.753906 3.3125,-4.84375 3,-4.84375 c -0.429687,0 -0.773437,0.15625 -1.03125,0.46875 -0.261719,0.304687 -0.390625,0.792969 -0.390625,1.46875 0,0.730469 0.128906,1.25 0.390625,1.5625 0.257813,0.304687 0.597656,0.453125 1.015625,0.453125 0.300781,0 0.5625,-0.097656 0.78125,-0.296875 C 3.992188,-1.382813 4.15625,-1.691406 4.25,-2.109375 Z m 0,0"
             style="stroke:none" />
        </g>
        <g
           id="use359"
           transform="translate(64.521004,24.874001)">
          <path
             inkscape:connector-curvature="0"
             id="path5509"
             d="m 0.296875,-1.515625 1.0625,-0.140625 c 0.039063,0.273437 0.132813,0.480469 0.28125,0.625 0.144531,0.148437 0.320313,0.21875 0.53125,0.21875 0.226563,0 0.421875,-0.082031 0.578125,-0.25 0.15625,-0.175781 0.234375,-0.410156 0.234375,-0.703125 0,-0.28125 -0.078125,-0.5 -0.234375,-0.65625 -0.148437,-0.164063 -0.324219,-0.25 -0.53125,-0.25 -0.148437,0 -0.3125,0.03125 -0.5,0.09375 l 0.109375,-0.90625 c 0.300781,0.011719 0.53125,-0.050781 0.6875,-0.1875 C 2.671875,-3.804688 2.75,-3.988281 2.75,-4.21875 2.75,-4.40625 2.691406,-4.554688 2.578125,-4.671875 2.460938,-4.785156 2.3125,-4.84375 2.125,-4.84375 c -0.1875,0 -0.351562,0.070312 -0.484375,0.203125 -0.136719,0.125 -0.21875,0.3125 -0.25,0.5625 l -1,-0.171875 c 0.0625,-0.351563 0.164063,-0.628906 0.3125,-0.828125 0.144531,-0.207031 0.34375,-0.367188 0.59375,-0.484375 0.25,-0.125 0.535156,-0.1875 0.859375,-0.1875 0.53125,0 0.960938,0.171875 1.296875,0.515625 0.257813,0.28125 0.390625,0.601562 0.390625,0.953125 0,0.5 -0.273437,0.902344 -0.8125,1.203125 0.320313,0.074219 0.582031,0.234375 0.78125,0.484375 0.195313,0.242187 0.296875,0.53125 0.296875,0.875 0,0.5 -0.1875,0.929687 -0.5625,1.28125 -0.367187,0.3554687 -0.820312,0.53125 -1.359375,0.53125 -0.523437,0 -0.953125,-0.1445313 -1.296875,-0.4375 -0.335937,-0.300781 -0.53125,-0.691406 -0.59375,-1.171875 z m 0,0"
             style="stroke:none" />
        </g>
        <g
           id="use361"
           transform="translate(68.969002,24.874001)">
          <path
             inkscape:connector-curvature="0"
             id="path5557"
             d="m 0.34375,-4.625 v -1.03125 h 3.75 v 0.796875 c -0.3125,0.3125 -0.632812,0.757812 -0.953125,1.328125 -0.3125,0.5625 -0.554687,1.167969 -0.71875,1.8125 -0.167969,0.636719 -0.25,1.210937 -0.25,1.71875 h -1.0625 c 0.019531,-0.789063 0.179688,-1.597656 0.484375,-2.421875 0.3125,-0.820313 0.726563,-1.554688 1.25,-2.203125 z m 0,0"
             style="stroke:none" />
        </g>
        <g
           id="use363"
           transform="translate(73.417,24.874001)">
          <path
             inkscape:connector-curvature="0"
             id="path5489"
             d="m 0.546875,-1.09375 h 1.09375 v 0.78125 c 0,0.3203125 -0.027344,0.570313 -0.078125,0.75 C 1.507813,0.625 1.40625,0.789063 1.25,0.9375 1.101563,1.082031 0.910156,1.195313 0.671875,1.28125 L 0.453125,0.828125 C 0.679688,0.753906 0.84375,0.648438 0.9375,0.515625 1.03125,0.390625 1.078125,0.21875 1.078125,0 h -0.53125 z m 0,0"
             style="stroke:none" />
        </g>
        <g
           id="use365"
           transform="translate(75.640999,24.874001)">
          <path
             inkscape:connector-curvature="0"
             id="path5561"
             d="m 2.390625,1.6875 h -0.75 C 1.242188,1.082031 0.941406,0.457031 0.734375,-0.1875 c -0.210937,-0.65625 -0.3125,-1.285156 -0.3125,-1.890625 0,-0.75 0.128906,-1.460938 0.390625,-2.140625 0.21875,-0.582031 0.5,-1.117188 0.84375,-1.609375 h 0.75 C 2.050781,-5.035156 1.804688,-4.363281 1.671875,-3.8125 1.535156,-3.257813 1.46875,-2.671875 1.46875,-2.046875 c 0,0.429687 0.035156,0.867187 0.109375,1.3125 0.082031,0.449219 0.195313,0.875 0.34375,1.28125 C 2.003906,0.804688 2.160156,1.1875 2.390625,1.6875 Z m 0,0"
             style="stroke:none" />
        </g>
        <g
           id="use367"
           transform="translate(78.305,24.874001)">
          <path
             inkscape:connector-curvature="0"
             id="path5493"
             d="M 3.15625,0 H 2.046875 v -4.140625 c -0.398437,0.375 -0.867187,0.652344 -1.40625,0.828125 V -4.296875 C 0.921875,-4.390625 1.226563,-4.566406 1.5625,-4.828125 1.90625,-5.097656 2.140625,-5.40625 2.265625,-5.75 H 3.15625 Z m 0,0"
             style="stroke:none" />
        </g>
        <g
           id="use369"
           transform="translate(82.752998,24.874001)">
          <path
             inkscape:connector-curvature="0"
             id="path5505"
             d="M 0.265625,1.6875 C 0.484375,1.21875 0.632813,0.859375 0.71875,0.609375 0.8125,0.367188 0.894531,0.0859375 0.96875,-0.234375 1.050781,-0.554688 1.109375,-0.863281 1.140625,-1.15625 1.179688,-1.445313 1.203125,-1.742188 1.203125,-2.046875 1.203125,-2.671875 1.132813,-3.257813 1,-3.8125 0.863281,-4.363281 0.617188,-5.035156 0.265625,-5.828125 h 0.75 c 0.382813,0.5625 0.6875,1.15625 0.90625,1.78125 0.21875,0.625 0.328125,1.261719 0.328125,1.90625 0,0.554687 -0.085937,1.136719 -0.25,1.75 C 1.800781,0.316406 1.476563,1.007813 1.03125,1.6875 Z m 0,0"
             style="stroke:none" />
        </g>
      </g>
    </g>
  </g>
</svg>
