<?xml version="1.0" encoding="utf-8"?>
<!-- Generator: Adobe Illustrator 20.1.0, SVG Export Plug-In . SVG Version: 6.00 Build 0)  -->
<svg version="1.1" id="Layer_1" xmlns="http://www.w3.org/2000/svg" xmlns:xlink="http://www.w3.org/1999/xlink" x="0px" y="0px"
	 viewBox="0 0 500 500" style="enable-background:new 0 0 500 500;" xml:space="preserve">
<style type="text/css">
	.st0{fill:#BCBEC0;stroke:#BCBEC0;stroke-miterlimit:10;}
	.st1{fill:none;stroke:#BCBEC0;stroke-width:7;stroke-miterlimit:10;}
	.st2{fill:none;stroke:#000000;stroke-width:7;stroke-miterlimit:10;}
	.st3{fill:#FFFFFF;stroke:#000000;stroke-width:4;stroke-miterlimit:10;}
	.st4{fill:#BCBEC0;stroke:#BCBEC0;stroke-width:7;stroke-miterlimit:10;}
	.st5{fill:#FFFFFF;}
	.st6{fill:none;stroke:#BCBEC0;stroke-width:6;stroke-miterlimit:10;}
</style>
<path class="st0" d="M344.1,422.8H93.4c-21.9,0-39.8-17.9-39.8-39.8v-5.7c0-21.9,17.9-39.8,39.8-39.8h250.6
	c21.9,0,39.8,17.9,39.8,39.8v5.7C384,404.9,366.1,422.8,344.1,422.8z"/>
<line class="st1" x1="49.3" y1="326.6" x2="335.3" y2="326.6"/>
<path class="st2" d="M354.8,326.6"/>
<path class="st1" d="M400.1,380.9c-1-35.5-16.5-54.6-65-54.5"/>
<rect x="49.3" y="337.3" class="st0" width="85.4" height="85.4"/>
<ellipse class="st3" cx="97.9" cy="380.1" rx="36.8" ry="32.9"/>
<ellipse class="st3" cx="180.3" cy="380.1" rx="36.8" ry="32.9"/>
<ellipse class="st3" cx="262.8" cy="380.1" rx="36.8" ry="32.9"/>
<path class="st2" d="M372.8,420.8"/>
<rect x="61.2" y="130.2" class="st4" width="195.5" height="177.8"/>
<path class="st3" d="M183.9,181.2h-61.6c-8.2,0-14.9-6.6-14.9-14.9l0,0c0-8.2,6.6-14.9,14.9-14.9h61.6c8.2,0,14.9,6.6,14.9,14.9l0,0
	C198.7,174.6,192.1,181.2,183.9,181.2z"/>
<path class="st2" d="M267.6,293.5"/>
<path class="st2" d="M267.6,116.2"/>
<path class="st2" d="M265.7,119.9"/>
<path class="st2" d="M269.8,297"/>
<polygon class="st4" points="273.5,126.1 325.9,73.9 325.6,244.7 273.1,297 "/>
<polygon class="st4" points="121.9,60.5 67.8,114.6 262.6,114.8 316.9,60.7 "/>
<polygon class="st5" points="135.4,93.6 82.2,93.6 104,71.6 157.4,71.6 "/>
<polygon class="st5" points="188.4,93.6 135.2,93.6 157,71.6 210.3,71.6 "/>
<polygon class="st5" points="241.2,93.6 188,93.6 209.8,71.6 263,71.6 "/>
<polygon class="st5" points="290.8,93.6 237.5,93.6 259.5,71.6 312.7,71.6 "/>
<polygon class="st5" points="318.8,127.1 318.8,73.9 297,95.7 297,149.1 "/>
<line class="st6" x1="267.6" y1="328.9" x2="351.1" y2="240.6"/>
<line class="st6" x1="402.2" y1="378.4" x2="484" y2="293"/>
<path class="st4" d="M482.3,296.1c-1-35.5-16.5-54.6-65-54.5"/>
<line class="st1" x1="348.7" y1="242.5" x2="417.2" y2="241.6"/>
<g>
	<g>
		<path d="M399.1,307.3c4.1,0,4.1-6.4,0-6.4S395,307.3,399.1,307.3L399.1,307.3z"/>
	</g>
</g>
<path class="st0" d="M478.8,285.2c-0.6-13.7-8.3-25.9-20-31.6c-0.4-0.3-0.8-0.4-1.1-0.6c-6.3-7.4-15.4-12.1-26.2-12.1
	c-5,0-9.8,1.1-14.3,3.2c-1.9-0.4-4-0.6-6-0.6c-2.9-0.9-6.1-1.3-9.4-1.3c-5.5,0-11,1.4-15.8,4c-5.5-3.7-12-5.9-19.3-5.9
	c-14.5,0-28.6,10.1-33.4,23.7c-5.6,3.4-10.3,8.3-13.4,14c-1.3,0.4-2.6,1.1-3.6,2.6c-7.9,10.6-17.6,19.8-28.5,27.3
	c-2,1.4-2.8,3.3-2.8,5.2c-0.4,0-0.6,0-1,0c-2-0.1-2,3.1,0,3.2c-1.4,0.5-2.7,1-4.1,1.5c-3.8,1.4-2.2,7.5,1.7,6.1
	c0.4-0.1,0.8-0.3,1-0.4c0.6,1,1.9,1.8,3.4,1.4c3.7-0.9,7.4-1.7,11.1-2.2c0.4,0.8,0.9,1.3,1.9,1.7c5.7,1.8,11.9,0.4,17.7-0.1
	c5.6-0.5,11.2-0.8,16.7-0.4c5.1,3.2,11.2,5,17.9,5c4.2,0,8.4-0.9,12.4-2.4c2.6,1.4,5.1,2.6,7.8,3.2c1.9,0.4,3.8,0.8,5.7,0.9
	c3.3,6.6,8.4,12.1,14.8,15.6c-0.4,1-0.6,2-0.5,3.2c0.1,2.9,1.5,5.1,3.1,7.3c2.4,3.4,3.7,6.6,4.3,10.8c1,6.4,10.7,5.7,12.3,0
	c0.4-1.3,0.6-2.6,0.9-3.8c0.1,0,0.3,0,0.4-0.1c4.6-1.8,6.3-4.3,6-7.1c2.9-3.6,8.4-4.6,12.3-7.4c4.3-3.3,7.3-9.7,12.9-11
	c4.5-1,5.4-5.1,4-8.4c5-3.4,9.1-8,11.7-13.4C470.9,310.4,479.4,298.5,478.8,285.2z"/>
</svg>
