<?xml version="1.0" encoding="utf-8"?>
<!-- Generator: Adobe Illustrator 20.1.0, SVG Export Plug-In . SVG Version: 6.00 Build 0)  -->
<svg version="1.1" id="Layer_1" xmlns="http://www.w3.org/2000/svg" xmlns:xlink="http://www.w3.org/1999/xlink" x="0px" y="0px"
	 viewBox="0 0 500 500" style="enable-background:new 0 0 500 500;" xml:space="preserve">
<style type="text/css">
	.st0{fill:#BCBEC0;stroke:#BCBEC0;stroke-width:6;stroke-miterlimit:10;}
	.st1{fill:#BCBEC0;stroke:#BCBEC0;stroke-width:3;stroke-miterlimit:10;}
	.st2{fill:none;stroke:#BCBEC0;stroke-width:3;stroke-miterlimit:10;}
	.st3{fill:#FFFFFF;stroke:#000000;stroke-width:8;stroke-miterlimit:10;}
</style>
<rect x="64.8" y="303.9" class="st0" width="131.6" height="136.4"/>
<rect x="64.8" y="387.6" class="st0" width="319.8" height="56.6"/>
<rect x="179.7" y="190.6" class="st0" width="145.7" height="40.7"/>
<rect x="211" y="253.3" class="st1" width="79.1" height="118.8"/>
<line class="st2" x1="211.1" y1="304.7" x2="290.2" y2="256.2"/>
<line class="st3" x1="206" y1="356" x2="295.3" y2="313.1"/>
<line class="st3" x1="206.6" y1="301.3" x2="294.5" y2="259.2"/>
<g>
	<rect x="110.1" y="48" class="st0" width="281.1" height="90.7"/>
	<rect x="175.2" y="137.6" class="st0" width="152.9" height="34.6"/>
	<polygon class="st0" points="171.6,168.7 163.4,155 155.4,141.4 171.3,141.2 187.2,141 179.3,154.9 	"/>
	<polygon class="st0" points="331.4,168.7 323.3,155 315.3,141.4 331.1,141.2 347,141 339.2,154.9 	"/>
</g>
</svg>
