<?xml version="1.0" encoding="UTF-8" standalone="no"?>
<svg
   xmlns:dc="http://purl.org/dc/elements/1.1/"
   xmlns:cc="http://creativecommons.org/ns#"
   xmlns:rdf="http://www.w3.org/1999/02/22-rdf-syntax-ns#"
   xmlns:svg="http://www.w3.org/2000/svg"
   xmlns="http://www.w3.org/2000/svg"
   version="1.1"
   id="svg6213"
   viewBox="0 0 53.149606 53.149606"
   height="15mm"
   width="15mm">
  <defs
     id="defs6215">
    <clipPath
       id="clipPath8377-0-3-0"
       clipPathUnits="userSpaceOnUse">
      <rect
         y="677.5896"
         x="647.31384"
         height="38.551903"
         width="78.55648"
         id="rect8379-1-6-4"
         style="fill:#000000;fill-opacity:1;stroke:none;stroke-width:1;stroke-linecap:butt;stroke-linejoin:round;stroke-miterlimit:0.30000001;stroke-dasharray:none;stroke-dashoffset:15;stroke-opacity:1" />
    </clipPath>
    <clipPath
       id="clipPath8395-0-2-8"
       clipPathUnits="userSpaceOnUse">
      <rect
         y="724.33984"
         x="654.81256"
         height="34.851402"
         width="64.63459"
         id="rect8397-2-1-5"
         style="fill:#000000;fill-opacity:1;stroke:none;stroke-width:1;stroke-linecap:butt;stroke-linejoin:round;stroke-miterlimit:0.30000001;stroke-dasharray:none;stroke-dashoffset:15;stroke-opacity:1" />
    </clipPath>
  </defs>
  <metadata
     id="metadata6218">
    <rdf:RDF>
      <cc:Work
         rdf:about="">
        <dc:format>image/svg+xml</dc:format>
        <dc:type
           rdf:resource="http://purl.org/dc/dcmitype/StillImage" />
        <dc:title></dc:title>
      </cc:Work>
    </rdf:RDF>
  </metadata>
  <g
     transform="translate(-417.48692,-630.16218)"
     id="layer1">
    <g
       id="g6153"
       transform="translate(-221.49905,-305.12186)">
      <g
         id="g8437-9-6"
         transform="matrix(0.08556092,0,0,0.08541921,621.82632,884.99519)">
        <path
           transform="translate(886.11212,-561.9121)"
           id="path8417-5-0"
           d="m -463.73647,1471.2141 c 0,-3.6537 0.14813,-3.7374 7.26942,-4.1088 l 7.26941,-0.3792 0.33288,-42.6683 0.33288,-42.6683 72.66053,0 72.66053,0 0.33287,42.6683 0.33288,42.6683 7.90154,0.3764 c 7.82328,0.3727 7.90154,0.4133 7.90154,4.1088 l 0,3.7324 -88.49724,0 -88.49724,0 0,-3.7296 z m 94.24706,-39.8021 c 2.14886,-3.2796 1.35404,-6.294 -2.50376,-9.4957 -5.01649,-4.1633 -12.21593,3.0929 -9.33726,9.4109 2.01128,4.4143 8.97157,4.4641 11.84102,0.085 z"
           style="fill:#ff6600;fill-opacity:1;stroke:none;stroke-width:1;stroke-linecap:butt;stroke-linejoin:round;stroke-miterlimit:0.30000001;stroke-dasharray:none;stroke-dashoffset:15;stroke-opacity:1" />
        <path
           transform="translate(886.11212,-561.9121)"
           id="path8419-4-5"
           d="m -255.0376,1428.2197 0,-1.8964 44.56468,0 44.56468,0 0,1.8964 0,1.8963 -44.56468,0 -44.56468,0 0,-1.8963 z"
           style="fill:#ff6600;fill-opacity:1;stroke:none;stroke-width:1;stroke-linecap:butt;stroke-linejoin:round;stroke-miterlimit:0.30000001;stroke-dasharray:none;stroke-dashoffset:15;stroke-opacity:1" />
        <path
           transform="translate(886.11212,-561.9121)"
           id="path8421-3-5"
           d="m -263.88732,1440.388 0,-1.7383 44.56468,0 44.56468,0 0,1.7383 0,1.7384 -44.56468,0 -44.56468,0 0,-1.7384 z"
           style="fill:#ff6600;fill-opacity:1;stroke:none;stroke-width:1;stroke-linecap:butt;stroke-linejoin:round;stroke-miterlimit:0.30000001;stroke-dasharray:none;stroke-dashoffset:15;stroke-opacity:1" />
        <path
           transform="translate(886.11212,-561.9121)"
           id="path8423-9-3"
           d="m -255.0376,1452.3984 0,-1.7384 44.56468,0 44.56468,0 0,1.7384 0,1.7383 -44.56468,0 -44.56468,0 0,-1.7383 z"
           style="fill:#ff6600;fill-opacity:1;stroke:none;stroke-width:1;stroke-linecap:butt;stroke-linejoin:round;stroke-miterlimit:0.30000001;stroke-dasharray:none;stroke-dashoffset:15;stroke-opacity:1" />
        <path
           transform="translate(886.11212,-561.9121)"
           id="path8425-4-9"
           d="m -263.88732,1464.5668 0,-1.5804 44.56468,0 44.56468,0 0,1.5804 0,1.5803 -44.56468,0 -44.56468,0 0,-1.5803 z"
           style="fill:#ff6600;fill-opacity:1;stroke:none;stroke-width:1;stroke-linecap:butt;stroke-linejoin:round;stroke-miterlimit:0.30000001;stroke-dasharray:none;stroke-dashoffset:15;stroke-opacity:1" />
        <path
           id="path8427-9-1"
           d="m 321.34205,1052.1997 0,-100.57015 -6.70467,0 -6.70468,0 0,-11.1744 0,-11.1745 -9.38655,0 -9.38655,0 0,-5.2774 0,-5.2774 221.70136,0.01 221.70136,0.01 0,5.2407 0,5.2407 -9.61004,0.2537 -9.61004,0.2538 -0.251,10.9509 -0.25101,10.951 -6.23018,0 -6.23019,0 0,100.57015 0,100.5702 -7.59863,0 -7.59864,0 0,-15.1973 0,-15.1973 -174.32163,0 -174.32163,0 0,15.1973 0,15.1973 -7.59864,0 -7.59864,0 0,-100.5702 z"
           style="fill:#808080;fill-opacity:1;stroke:none;stroke-width:1;stroke-linecap:butt;stroke-linejoin:round;stroke-miterlimit:0.30000001;stroke-dasharray:none;stroke-dashoffset:15;stroke-opacity:1" />
        <ellipse
           ry="44.743374"
           rx="51.416187"
           cy="706.65558"
           cx="511.14581"
           id="path3355"
           style="opacity:1;fill:#ffffff;fill-opacity:1;stroke:none;stroke-width:71.35334015;stroke-linejoin:miter;stroke-miterlimit:4;stroke-dasharray:none;stroke-opacity:1" />
        <path
           transform="translate(886.11212,-561.9121)"
           id="path8433-7-4"
           d="m -389.1075,1318.5563 c -8.97465,-2.4892 -14.40771,-5.1949 -20.86609,-10.3911 -22.95388,-18.4682 -27.41497,-52.2369 -10.03463,-75.9583 2.61177,-3.5647 5.00095,-6.4862 5.3093,-6.4924 0.30834,-0.01 2.18689,-1.5146 4.17454,-3.3523 3.99769,-3.696 10.5705,-7.4469 16.05314,-9.1609 1.96671,-0.6149 4.14018,-1.5684 4.82994,-2.1189 0.7869,-0.6281 5.78238,-1.001 13.40935,-1.001 11.74496,0 12.41174,0.1028 19.75389,3.0452 10.17581,4.0779 13.65076,6.3673 20.7852,13.6939 16.05397,16.4863 20.19522,40.2418 10.61117,60.8688 -4.07592,8.7723 -11.03566,17.2343 -18.39797,22.3693 -7.0245,4.8993 -10.77232,6.5582 -19.59718,8.674 -8.98157,2.1533 -17.84814,2.0933 -26.03066,-0.1763 z m 24.56218,-18.2412 c 3.44188,-0.7829 8.03895,-2.6385 10.45698,-4.221 5.79234,-3.7909 13.70151,-11.9238 13.70151,-14.0891 0,-1.7051 -0.86518,-1.7479 -35.31131,-1.7479 -29.56348,0 -35.3113,0.2024 -35.3113,1.2436 0,2.3997 7.03957,9.7284 13.07275,13.6096 3.35128,2.1559 6.30655,3.9376 6.56726,3.9593 0.26071,0.022 2.48542,0.598 4.94381,1.2806 6.01957,1.6715 14.43624,1.658 21.8803,-0.035 l 0,0 z"
           style="fill:#bfbfbf;fill-opacity:1;stroke:none;stroke-width:1;stroke-linecap:butt;stroke-linejoin:round;stroke-miterlimit:0.30000001;stroke-dasharray:none;stroke-dashoffset:15;stroke-opacity:1" />
        <path
           transform="translate(886.11212,-561.9121)"
           id="path8435-3-9"
           d="m -442.29794,1368.8624 c 0,-3.3818 -0.50527,-3.9344 -19.41289,-21.2314 -10.67709,-9.7676 -20.4324,-18.8071 -21.67846,-20.0878 -1.24607,-1.2807 -7.49522,-7.0818 -13.88701,-12.8914 -6.3918,-5.8097 -13.20939,-12.1035 -15.1502,-13.9863 -1.94082,-1.8828 -3.83133,-3.4233 -4.20113,-3.4233 -0.36981,0 -2.57001,-2.6592 -4.88934,-5.9095 -3.83465,-5.3738 -4.21622,-6.3666 -4.20867,-10.951 0.007,-4.0819 0.54244,-5.9059 2.81472,-9.5838 4.11605,-6.6622 8.67654,-8.7743 29.08636,-13.4706 25.40489,-5.8458 49.67773,-11.6261 54.0171,-12.8636 2.10728,-0.601 4.02792,-0.8962 4.26807,-0.656 0.24017,0.2402 -0.19013,2.807 -0.9562,5.7041 -1.57035,5.9388 -1.86667,23.6284 -0.49213,29.3792 0.46677,1.9529 0.73775,3.6617 0.60215,3.7973 -0.46428,0.4643 -16.9955,4.7195 -27.14385,6.9869 -1.10628,0.2472 -2.01141,0.8239 -2.01141,1.2815 0,0.4576 10.85572,10.9092 24.12382,23.2258 l 24.12382,22.3939 41.4591,0 41.45911,0 3.47527,-2.734 c 1.91138,-1.5037 4.07868,-3.4629 4.81619,-4.3537 0.73751,-0.8909 6.1683,-5.9521 12.06842,-11.2472 5.90012,-5.2951 12.53775,-11.3403 14.75029,-13.4338 2.21255,-2.0935 6.40951,-6.0536 9.32658,-8.8002 2.91707,-2.7467 5.11664,-5.181 4.88794,-5.4097 -0.2287,-0.2287 -3.82224,-1.2181 -7.98564,-2.1986 -4.1634,-0.9805 -10.88409,-2.6588 -14.93488,-3.7295 -8.07811,-2.1353 -8.05721,-2.101 -5.46481,-8.9885 1.24023,-3.2951 0.44897,-19.8593 -1.25434,-26.2583 -0.78418,-2.946 -1.24218,-5.54 -1.01776,-5.7644 0.22441,-0.2244 2.10505,0.087 4.17917,0.6919 2.07413,0.6049 11.50782,2.8689 20.96375,5.0312 9.45593,2.1623 17.55268,4.1539 17.99277,4.4259 0.44009,0.272 8.15419,2.1095 17.14244,4.0833 17.14765,3.7656 22.00062,5.7503 26.16652,10.7012 4.37625,5.2009 4.87945,16.0029 1.01987,21.8933 -1.18843,1.8138 -17.73888,17.4475 -38.77013,36.6227 -17.4197,15.8824 -25.09322,22.9714 -32.01087,29.5726 -4.11631,3.928 -8.06694,7.4679 -8.77917,7.8665 -0.78981,0.442 -1.29497,2.1023 -1.29497,4.2561 l 0,3.5314 -66.5998,0 -66.5998,0 0,-3.4722 z"
           style="fill:#bfbfbf;fill-opacity:1;stroke:none;stroke-width:1;stroke-linecap:butt;stroke-linejoin:round;stroke-miterlimit:0.30000001;stroke-dasharray:none;stroke-dashoffset:15;stroke-opacity:1" />
      </g>
      <rect
         style="opacity:1;fill:#bfbfbf;fill-opacity:1;stroke:none;stroke-width:2.0999999;stroke-linecap:butt;stroke-linejoin:miter;stroke-miterlimit:2.31999993;stroke-dasharray:none;stroke-dashoffset:15;stroke-opacity:1"
         id="rect6118"
         width="38.202351"
         height="2.8366268"
         x="646.46075"
         y="963.47821" />
      <rect
         style="opacity:1;fill:#ff6600;fill-opacity:1;stroke:none;stroke-width:2.0999999;stroke-linecap:butt;stroke-linejoin:miter;stroke-miterlimit:2.31999993;stroke-dasharray:none;stroke-dashoffset:15;stroke-opacity:1"
         id="rect6120"
         width="7.6793213"
         height="0.71317267"
         x="674.98364"
         y="961.92395" />
      <rect
         style="opacity:1;fill:#ff6600;fill-opacity:1;stroke:none;stroke-width:2.0999999;stroke-linecap:butt;stroke-linejoin:miter;stroke-miterlimit:2.31999993;stroke-dasharray:none;stroke-dashoffset:15;stroke-opacity:1"
         id="rect6120-3"
         width="7.6793208"
         height="0.7131725"
         x="675.81934"
         y="960.89862" />
      <rect
         style="opacity:1;fill:#ff6600;fill-opacity:1;stroke:none;stroke-width:2.0999999;stroke-linecap:butt;stroke-linejoin:miter;stroke-miterlimit:2.31999993;stroke-dasharray:none;stroke-dashoffset:15;stroke-opacity:1"
         id="rect6120-6"
         width="7.6793208"
         height="0.7131725"
         x="675.00623"
         y="959.89569" />
      <rect
         style="opacity:1;fill:#ff6600;fill-opacity:1;stroke:none;stroke-width:2.0999999;stroke-linecap:butt;stroke-linejoin:miter;stroke-miterlimit:2.31999993;stroke-dasharray:none;stroke-dashoffset:15;stroke-opacity:1"
         id="rect6120-7"
         width="7.6793208"
         height="0.7131725"
         x="675.81934"
         y="958.80371" />
      <rect
         style="opacity:1;fill:#ff6600;fill-opacity:1;stroke:none;stroke-width:2.0999999;stroke-linecap:butt;stroke-linejoin:miter;stroke-miterlimit:2.31999993;stroke-dasharray:none;stroke-dashoffset:15;stroke-opacity:1"
         id="rect6149"
         width="3.0717285"
         height="2.0503712"
         x="663.30658"
         y="957.62262" />
      <rect
         style="opacity:1;fill:#bfbfbf;fill-opacity:1;stroke:none;stroke-width:2.0999999;stroke-linecap:butt;stroke-linejoin:miter;stroke-miterlimit:2.31999993;stroke-dasharray:none;stroke-dashoffset:15;stroke-opacity:1"
         id="rect6151"
         width="15.403815"
         height="0.6908859"
         x="657.75037"
         y="961.70111" />
    </g>
  </g>
</svg>
