<?xml version="1.0" encoding="UTF-8" standalone="no"?>
<svg
   xmlns:dc="http://purl.org/dc/elements/1.1/"
   xmlns:cc="http://creativecommons.org/ns#"
   xmlns:rdf="http://www.w3.org/1999/02/22-rdf-syntax-ns#"
   xmlns:svg="http://www.w3.org/2000/svg"
   xmlns="http://www.w3.org/2000/svg"
   width="15mm"
   height="15mm"
   viewBox="0 0 53.149607 53.149606"
   id="svg6213"
   version="1.1">
  <defs
     id="defs6215">
    <clipPath
       clipPathUnits="userSpaceOnUse"
       id="clipPath8377-0-3-0">
      <rect
         style="fill:#000000;fill-opacity:1;stroke:none;stroke-width:1;stroke-linecap:butt;stroke-linejoin:round;stroke-miterlimit:0.30000001;stroke-dasharray:none;stroke-dashoffset:15;stroke-opacity:1"
         id="rect8379-1-6-4"
         width="78.55648"
         height="38.551903"
         x="647.31384"
         y="677.5896" />
    </clipPath>
    <clipPath
       clipPathUnits="userSpaceOnUse"
       id="clipPath8395-0-2-8">
      <rect
         style="fill:#000000;fill-opacity:1;stroke:none;stroke-width:1;stroke-linecap:butt;stroke-linejoin:round;stroke-miterlimit:0.30000001;stroke-dasharray:none;stroke-dashoffset:15;stroke-opacity:1"
         id="rect8397-2-1-5"
         width="64.63459"
         height="34.851402"
         x="654.81256"
         y="724.33984" />
    </clipPath>
  </defs>
  <metadata
     id="metadata6218">
    <rdf:RDF>
      <cc:Work
         rdf:about="">
        <dc:format>image/svg+xml</dc:format>
        <dc:type
           rdf:resource="http://purl.org/dc/dcmitype/StillImage" />
        <dc:title></dc:title>
      </cc:Work>
    </rdf:RDF>
  </metadata>
  <rect
     y="24.547907"
     x="15.25424"
     height="22.690678"
     width="22.118643"
     id="rect3375"
     style="opacity:1;fill:#ffffff;fill-opacity:1;stroke:none;stroke-width:6.0999999;stroke-linejoin:miter;stroke-miterlimit:4;stroke-dasharray:none;stroke-opacity:1" />
  <g
     id="layer1"
     transform="translate(-96.912583,-513.29629)">
    <g
       id="g6835">
      <g
         transform="matrix(0.14550583,0,0,0.14188311,101.74053,319.19472)"
         id="g6580-9-0">
        <path
           style="fill:#808080;fill-opacity:1;stroke:none;stroke-width:1.5;stroke-linecap:butt;stroke-linejoin:round;stroke-miterlimit:0.30000001;stroke-dasharray:none;stroke-dashoffset:15;stroke-opacity:1"
           d="m -821.94539,2065.9946 c -1.14857,-1.8585 -0.12071,-26.205 1.48874,-35.2632 8.8701,-49.9217 44.17965,-78.4813 93.0925,-75.2964 5.75558,0.3748 13.98922,1.5962 18.29699,2.7143 24.28196,6.3022 46.44385,26.5483 54.52819,49.8144 5.45783,15.7072 7.13034,22.611 7.69677,31.771 0.54537,8.8194 0.5079,24.0917 -0.0627,25.5702 -0.55961,1.4499 -2.23541,1.6125 -16.61671,1.6125 -14.29223,0 -16.08545,-0.1716 -16.85052,-1.6125 -0.70075,-1.3198 -2.20286,-24.2777 -2.03476,-31.0989 0.025,-1.0136 -0.30809,-2.6722 -0.74013,-3.6858 -0.43206,-1.0136 -1.46501,-3.4119 -2.29545,-5.3296 -0.83045,-1.9176 -1.50989,-4.0723 -1.50989,-4.7882 0,-1.8814 -5.74656,-11.3548 -9.60706,-15.8375 -4.12159,-4.786 -14.40127,-10.7976 -21.63014,-12.6496 -7.48444,-1.9174 -24.80879,-2.0019 -31.67972,-0.1546 -14.09087,3.7886 -24.357,12.5534 -30.82818,26.32 -4.56539,9.7122 -6.46583,20.7247 -6.61944,38.3576 -0.0481,5.526 -0.46832,8.7373 -1.22508,9.3633 -1.61089,1.3325 -32.58849,1.5114 -33.40336,0.193 z"
           id="path6576-0-4"
           transform="translate(886.11212,-561.9121)" />
        <path
           style="fill:#ff6600;fill-opacity:1;stroke:none;stroke-width:1.5;stroke-linecap:butt;stroke-linejoin:round;stroke-miterlimit:0.30000001;stroke-dasharray:none;stroke-dashoffset:15;stroke-opacity:1"
           d="m -830.79999,2285.2981 c -16.47224,-3.0389 -27.735,-14.616 -29.33952,-30.1583 -0.39393,-3.8158 -0.88727,-35.9649 -1.09632,-71.4425 -0.40678,-69.0346 -0.0574,-73.7749 6.09758,-82.7364 5.17341,-7.5323 13.6097,-13.8532 21.20464,-15.8877 2.08185,-0.5577 46.26982,-1.1797 98.19549,-1.3822 101.38605,-0.3954 104.42576,-0.2245 110.88304,6.2327 1.40521,1.4053 2.85639,2.555 3.22487,2.555 1.58723,0 8.61174,8.9493 11.25136,14.3343 2.86404,5.8429 2.87385,6.1225 2.71411,77.3784 -0.18315,81.7076 0.0145,80.048 -10.80394,90.7246 -5.68755,5.613 -17.08861,11.2446 -19.60987,9.6864 -0.63922,-0.3951 -1.16221,-0.1611 -1.16221,0.5199 0,1.3934 -184.04347,1.5623 -191.55923,0.1758 z m 103.94821,-47.5833 c 11.77761,-4.921 14.63865,-10.6673 15.7941,-31.7216 0.80509,-14.6705 1.33559,-17.3397 4.94926,-24.9021 5.59305,-11.7047 6.27849,-16.9421 3.57928,-27.349 -2.04652,-7.8905 -2.83101,-9.0916 -8.89751,-13.6234 -9.97977,-7.4551 -14.24745,-8.8754 -25.03225,-8.3308 -8.34988,0.4217 -10.16703,1.0187 -16.61472,5.4594 -8.2815,5.7037 -11.67534,10.7065 -13.71499,20.2171 -1.38287,6.4481 0.0287,19.2479 2.31813,21.0205 2.2108,1.7116 5.41927,8.2114 6.55499,13.2792 0.69338,3.094 1.35863,12.2204 1.47834,20.2809 0.11971,8.0605 0.75442,14.6554 1.41047,14.6554 0.65604,0 1.57786,1.0263 2.04849,2.2805 1.12054,2.9863 3.76813,5.1243 10.13907,8.1874 6.3565,3.0562 9.70675,3.1707 15.98734,0.5465 z"
           id="path6578-5-5"
           transform="translate(886.11212,-561.9121)" />
      </g>
    </g>
  </g>
</svg>
