<?xml version="1.0" encoding="UTF-8" standalone="no"?>
<svg
   xmlns:dc="http://purl.org/dc/elements/1.1/"
   xmlns:cc="http://creativecommons.org/ns#"
   xmlns:rdf="http://www.w3.org/1999/02/22-rdf-syntax-ns#"
   xmlns:svg="http://www.w3.org/2000/svg"
   xmlns="http://www.w3.org/2000/svg"
   width="15mm"
   height="15mm"
   viewBox="0 0 53.149607 53.149606"
   id="svg6213"
   version="1.1">
  <defs
     id="defs6215">
    <clipPath
       clipPathUnits="userSpaceOnUse"
       id="clipPath8377-0-3-0">
      <rect
         style="fill:#000000;fill-opacity:1;stroke:none;stroke-width:1;stroke-linecap:butt;stroke-linejoin:round;stroke-miterlimit:0.30000001;stroke-dasharray:none;stroke-dashoffset:15;stroke-opacity:1"
         id="rect8379-1-6-4"
         width="78.55648"
         height="38.551903"
         x="647.31384"
         y="677.5896" />
    </clipPath>
    <clipPath
       clipPathUnits="userSpaceOnUse"
       id="clipPath8395-0-2-8">
      <rect
         style="fill:#000000;fill-opacity:1;stroke:none;stroke-width:1;stroke-linecap:butt;stroke-linejoin:round;stroke-miterlimit:0.30000001;stroke-dasharray:none;stroke-dashoffset:15;stroke-opacity:1"
         id="rect8397-2-1-5"
         width="64.63459"
         height="34.851402"
         x="654.81256"
         y="724.33984" />
    </clipPath>
  </defs>
  <metadata
     id="metadata6218">
    <rdf:RDF>
      <cc:Work
         rdf:about="">
        <dc:format>image/svg+xml</dc:format>
        <dc:type
           rdf:resource="http://purl.org/dc/dcmitype/StillImage" />
        <dc:title></dc:title>
      </cc:Work>
    </rdf:RDF>
  </metadata>
  <rect
     y="21.45932"
     x="9.2363663"
     height="21.498432"
     width="34.875237"
     id="rect3346"
     style="opacity:1;fill:#ffffff;fill-opacity:1;stroke:none;stroke-width:6.0999999;stroke-linejoin:miter;stroke-miterlimit:4;stroke-dasharray:none;stroke-opacity:1" />
  <g
     id="layer1"
     transform="translate(-290.14606,-532.99547)">
    <g
       id="g6841">
      <g
         transform="matrix(0.46634016,0,0,0.47078933,-3.1457743,215.32421)"
         id="g8399-9-7">
        <path
           style="fill:#bfbfbf;fill-opacity:1;stroke:none;stroke-width:1;stroke-linecap:butt;stroke-linejoin:round;stroke-miterlimit:0.30000001;stroke-dasharray:none;stroke-dashoffset:15;stroke-opacity:1"
           d="m -239.40463,1306.0713 0,-24.2043 0.85585,-0.9427 0.85585,-0.9427 38.28271,0.073 38.28271,0.073 0.63421,0.6299 0.6342,0.63 0.0797,24.4441 0.0797,24.4442 -39.8525,0 -39.85251,0 0,-24.2043 z m 72.33388,19.635 c 1.86776,-0.057 2.57275,-0.116 2.63689,-0.2198 0.16182,-0.2618 0.23001,-3.6982 0.29745,-14.9897 0.065,-10.8782 -0.0647,-25.6273 -0.22664,-25.7894 -0.15485,-0.1549 -37.17821,-0.2782 -53.66643,-0.1788 -15.56795,0.094 -16.46112,0.11 -16.64995,0.2988 -0.18682,0.1869 -0.20589,0.8064 -0.29924,9.7218 -0.12218,11.6682 0.0248,30.5734 0.23968,30.8322 0.0821,0.099 0.45159,0.205 0.89395,0.2567 1.8993,0.2217 59.83099,0.2809 66.77429,0.068 z"
           id="path8358-0-4"
           transform="translate(886.11212,-561.9121)" />
        <path
           style="fill:#ff6600;fill-opacity:1;stroke:none;stroke-width:1;stroke-linecap:butt;stroke-linejoin:round;stroke-miterlimit:0.30000001;stroke-dasharray:none;stroke-dashoffset:15;stroke-opacity:1"
           d="m 642.38042,780.53224 c -1.36855,-0.23416 -2.16608,-0.65158 -3.51358,-1.83897 -1.66263,-1.46507 -2.12915,-2.78638 -2.26499,-6.41509 -0.15348,-4.09995 -0.36362,-3.91441 4.43339,-3.91441 l 3.70816,0 0,-23.47721 c 0,-25.36786 -0.0288,-24.74818 1.23553,-26.62518 0.29578,-0.43912 1.00761,-1.06169 1.58184,-1.38347 l 1.04406,-0.58507 9.06854,-0.0711 9.06853,-0.0712 0,-4.21495 0,-4.21495 -0.74635,-0.62846 c -0.41049,-0.34566 -1.33197,-1.04615 -2.04773,-1.55664 -0.71576,-0.5105 -1.51201,-1.12302 -1.76944,-1.36117 -0.25743,-0.23814 -0.81516,-0.64821 -1.2394,-0.91126 -0.65819,-0.40812 -0.9094,-0.44324 -1.7125,-0.23939 -2.32009,0.5889 -4.31283,-1.31783 -3.69935,-3.53968 0.76951,-2.78693 4.80526,-2.8045 5.57292,-0.0243 0.113,0.40925 0.1553,1.00644 0.094,1.3271 -0.088,0.46055 0.0528,0.69781 0.67047,1.12943 0.43005,0.30053 0.83457,0.61641 0.89893,0.70196 0.0643,0.0855 0.75708,0.61719 1.53939,1.18141 0.78231,0.56422 2.06958,1.49976 2.8606,2.07898 l 1.43822,1.05312 0.006,4.62203 0.006,4.62202 2.80832,0 2.80832,0 0,-5.73413 0,-5.73414 -1.45322,-1.0698 c -0.79926,-0.58839 -1.82606,-1.38195 -2.28175,-1.76349 -1.84882,-1.5479 -3.31046,-2.73594 -5.00679,-4.06953 l -1.78609,-1.40416 -0.002,-2.97783 -0.002,-2.97783 -0.67372,-0.34839 c -0.37055,-0.19162 -0.75011,-0.53659 -0.84347,-0.7666 -0.77202,-1.902 -0.52536,-3.0693 0.83939,-3.97245 1.1934,-0.78975 1.96282,-0.78157 3.19521,0.034 1.70901,1.13097 1.7846,3.21972 0.16332,4.51334 l -0.80851,0.64511 0,2.62545 -10e-6,2.62545 4.58315,3.69327 c 2.52073,2.03129 4.88887,3.90389 5.26253,4.16132 l 0.67938,0.46805 0.003,6.03279 0.003,6.03279 3.21786,-0.0651 3.21787,-0.0651 0,-9.16587 c 0,-8.605 0.026,-9.18211 0.42526,-9.43137 0.2339,-0.14602 1.62928,-1.27706 3.10086,-2.51341 l 2.67559,-2.24792 0,-2.06978 0,-2.06978 -0.90238,-0.90238 c -1.13698,-1.13698 -1.28885,-1.87543 -0.64709,-3.1463 0.35948,-0.71185 0.7821,-1.12001 1.53257,-1.48013 0.95833,-0.45986 1.09904,-0.4713 1.87221,-0.15221 1.17054,0.48309 1.62158,0.94305 1.88535,1.92263 0.3458,1.28418 -0.0771,2.51367 -1.0651,3.09661 l -0.80335,0.47399 0,2.50308 0,2.50309 -1.13055,0.86217 c -0.6218,0.47419 -1.40637,1.10138 -1.74349,1.39374 -0.33712,0.29237 -1.24376,1.05814 -2.01475,1.70171 l -1.40179,1.17013 0.0444,8.776 0.0444,8.776 2.13277,0.0669 2.13277,0.0669 0.14641,-0.88596 c 0.0805,-0.48728 0.1493,-3.94 0.15282,-7.67273 l 0.006,-6.78677 1.75482,-1.28715 c 0.96515,-0.70793 2.31455,-1.70839 2.99866,-2.22325 0.68411,-0.51486 1.7942,-1.34512 2.46686,-1.84502 0.69966,-0.51997 1.17338,-1.03825 1.10702,-1.21118 -0.24403,-0.63593 0.3556,-1.97567 1.15826,-2.58789 2.21334,-1.6882 5.2603,0.3831 4.51804,3.07132 -0.46051,1.66784 -2.08973,2.44986 -3.85519,1.85047 -1.14357,-0.38825 -1.49993,-0.28121 -2.94149,0.88361 -0.42841,0.34616 -1.85836,1.43693 -3.17768,2.42395 l -2.39877,1.79457 0,7.22966 0,7.22965 3.27637,0 3.27637,0 0,-6.05777 0,-6.05778 0.64357,-0.41293 c 0.35397,-0.22711 1.06483,-0.77074 1.57968,-1.20806 1.7691,-1.50268 3.32847,-2.76608 5.81582,-4.71195 l 2.49213,-1.94963 0,-2.66639 0,-2.6664 -0.66912,-0.34601 c -1.20525,-0.62326 -1.66778,-2.78338 -0.85997,-4.01626 0.21401,-0.32663 0.86585,-0.79822 1.44852,-1.04798 0.97969,-0.41994 1.11692,-0.42682 1.82369,-0.0914 0.9362,0.44425 1.89376,1.44553 2.06614,2.16046 0.21771,0.90289 -0.27158,2.11736 -1.12852,2.80112 l -0.80851,0.64511 -10e-6,2.95274 -10e-6,2.95274 -0.8776,0.6191 c -0.48268,0.3405 -1.45681,1.09547 -2.16474,1.67771 -0.70793,0.58225 -1.71833,1.39709 -2.24534,1.81078 -0.527,0.41368 -1.92238,1.52375 -3.10085,2.46682 l -2.14266,1.71466 0,5.71568 0,5.71568 2.22325,0 2.22325,0 0,-4.54271 0,-4.54272 0.72004,-0.60587 c 0.39601,-0.33323 0.79094,-0.60595 0.8776,-0.60605 0.0867,-1e-4 0.55559,-0.34237 1.04207,-0.76059 0.48648,-0.41822 1.98014,-1.55024 3.31924,-2.5156 1.59977,-1.15328 2.44009,-1.91044 2.45037,-2.20787 0.0324,-0.93634 0.95811,-2.41852 1.7034,-2.72722 1.69069,-0.70031 3.11729,-0.13482 3.93826,1.56109 l 0.50042,1.03373 -0.50042,1.03374 c -0.27523,0.56855 -0.77674,1.21478 -1.11446,1.43607 -0.77826,0.50993 -2.08698,0.51515 -3.05958,0.0122 -0.75362,-0.38972 -0.75587,-0.38912 -2.09782,0.55683 -0.73886,0.52082 -1.93339,1.39288 -2.6545,1.9379 -0.72111,0.54501 -1.74391,1.30687 -2.27288,1.69301 l -0.96176,0.70208 -0.009,4.259 -0.009,4.25899 9.6536,0.0705 9.6536,0.0705 1.1054,0.64979 c 0.71682,0.42137 1.33384,1.03839 1.7552,1.7552 l 0.6498,1.10541 0.0638,24.28026 0.0638,24.28027 3.85078,0 3.85078,0 0.39004,0.59528 c 0.57909,0.88379 0.34537,5.89502 -0.34805,7.46261 -0.58903,1.3316 -2.33221,3.0554 -3.77563,3.73365 l -1.05312,0.49485 -43.87999,0.0331 c -24.134,0.0182 -44.36412,-0.0498 -44.95582,-0.151 z m 89.5379,-2.08096 c 2.16391,-1.00186 2.92533,-2.52908 2.92533,-5.86752 l 0,-2.34778 -16.94834,0 -16.94833,0 -0.16258,0.74019 c -0.0932,0.42418 -0.63567,1.21329 -1.27073,1.84835 -1.61139,1.61139 -2.027,1.66358 -12.56964,1.57843 -8.67522,-0.0701 -8.8735,-0.0822 -9.93734,-0.6063 -1.12794,-0.55569 -2.16096,-1.793 -2.43548,-2.9171 l -0.15717,-0.64357 -17.99468,0 -17.99468,0 0,2.2833 c 0,1.25582 0.10379,2.64521 0.23064,3.08753 0.27096,0.94475 1.69515,2.50646 2.69469,2.95487 0.58027,0.26032 8.41649,0.31566 45.16714,0.31899 42.79175,0.004 44.50029,-0.0123 45.40117,-0.42939 z m -34.29423,-6.25779 c 0.69916,-0.413 1.49552,-1.56344 1.2513,-1.80766 -0.19383,-0.19383 -22.17928,-0.19694 -22.37305,-0.003 -0.22261,0.22262 0.46601,1.41543 1.05552,1.82834 0.45163,0.31634 1.78671,0.36525 9.96987,0.36525 8.32645,0 9.52534,-0.0454 10.09636,-0.38276 l 0,-10e-6 z m 28.73928,-28.28023 -0.0617,-24.45051 -0.64888,-0.64885 -0.64887,-0.64885 -38.29231,-0.0606 -38.29231,-0.0606 -0.90185,0.94805 -0.90185,0.94804 0,24.2119 0,24.21191 39.90473,0 39.90473,0 -0.0617,-24.45051 z m -66.91541,-43.14849 c 0.0429,-0.3027 0.013,-0.80881 -0.0662,-1.1247 -0.12854,-0.51212 -0.25107,-0.56659 -1.13103,-0.50276 -0.9293,0.0674 -0.99121,0.11685 -1.06134,0.84746 -0.10151,1.05753 0.31,1.48718 1.34159,1.40071 0.67768,-0.0568 0.85411,-0.17623 0.91702,-0.62071 z m 56.39273,0.38655 c 0.38611,-0.38612 0.35315,-1.47405 -0.0549,-1.81272 -0.18466,-0.15326 -0.68489,-0.24514 -1.11162,-0.20418 -0.69091,0.0663 -0.78409,0.16021 -0.85087,0.85734 -0.0412,0.43058 -0.0182,0.93081 0.0512,1.11163 0.15537,0.40488 1.5747,0.43948 1.96626,0.0479 z m -14.50539,-6.93078 c 0.0917,-0.95518 -0.28559,-1.44738 -1.10944,-1.44738 -0.82432,0 -1.18829,0.39664 -1.18829,1.29495 0,0.96165 0.15256,1.0807 1.27866,0.99782 0.88188,-0.0649 0.94954,-0.12103 1.01907,-0.84539 z m -35.57205,-6.31872 c 0.0917,-0.95518 -0.28558,-1.44737 -1.10944,-1.44737 -0.82432,0 -1.18828,0.39663 -1.18828,1.29494 0,0.96165 0.15255,1.0807 1.27865,0.99783 0.88188,-0.0649 0.94954,-0.12104 1.01907,-0.8454 z m 43.99701,0 c 0.0917,-0.95518 -0.28559,-1.44737 -1.10944,-1.44737 -0.82433,0 -1.18829,0.39663 -1.18829,1.29494 0,0.96165 0.15256,1.0807 1.27866,0.99783 0.88188,-0.0649 0.94954,-0.12104 1.01907,-0.8454 z m -18.95616,-2.10623 c 0.0872,-0.9087 -0.28171,-1.45039 -0.98072,-1.43994 -0.72858,0.0109 -1.317,0.54712 -1.317,1.20019 0,0.81176 0.45651,1.16471 1.40316,1.08482 0.74078,-0.0625 0.82729,-0.14424 0.89456,-0.84507 z"
           id="path8310-7-3"
           clip-path="url(#clipPath8377-0-3-0)" />
        <path
           style="fill:#ff6600;fill-opacity:1;stroke:none;stroke-width:1;stroke-linecap:butt;stroke-linejoin:round;stroke-miterlimit:0.30000001;stroke-dasharray:none;stroke-dashoffset:15;stroke-opacity:1"
           d="m 651.42987,763.5495 c -0.32858,-0.32857 -0.36776,-2.49577 -0.36776,-20.3436 0,-17.84782 0.0392,-20.01502 0.36776,-20.3436 0.33103,-0.33102 3.84401,-0.36775 35.17421,-0.36775 26.75964,0 34.87136,0.0649 35.08727,0.28083 0.40695,0.40695 0.40695,40.4541 0,40.86105 -0.21591,0.21591 -8.32763,0.28083 -35.08727,0.28083 -31.3302,0 -34.84318,-0.0367 -35.17421,-0.36776 z m 68.78712,-20.3436 0,-18.95615 -7.43035,-0.0618 -7.43035,-0.0618 0.01,3.10414 0.01,3.10414 1.52095,1.05312 c 0.83653,0.57921 2.01684,1.42715 2.62292,1.88431 0.60608,0.45715 1.60134,1.17247 2.21168,1.5896 1.10196,0.75313 1.11691,0.75599 2.13861,0.4091 1.31885,-0.44775 2.43819,-0.16579 3.14683,0.79269 0.92849,1.25585 1.0289,1.80851 0.53247,2.93078 -0.52345,1.18333 -1.33592,1.79166 -2.43449,1.82281 -1.83222,0.0519 -2.90282,-0.96934 -3.06883,-2.92745 -0.0459,-0.54137 -0.20308,-1.02419 -0.34928,-1.07292 -0.14621,-0.0487 -0.92181,-0.57431 -1.72355,-1.16795 -2.73331,-2.02382 -4.73295,-3.46308 -5.61009,-4.03792 l -0.876,-0.57409 -0.002,-3.45189 -0.002,-3.4519 -2.22326,0 -2.22325,0 0,5.11361 0,5.1136 1.11163,0.72228 c 0.61139,0.39725 1.58553,1.06321 2.16475,1.47991 1.25735,0.90456 4.59206,3.21863 6.13899,4.26005 l 1.10742,0.74554 0.004,3.04234 0.004,3.04235 0.80851,0.64511 c 0.85813,0.6847 1.31897,1.82949 1.13143,2.81057 -0.0619,0.32368 -0.5165,0.98299 -1.01027,1.46515 -1.1469,1.11991 -2.35958,1.20575 -3.60579,0.25521 -0.83232,-0.63484 -1.38784,-1.92908 -1.14935,-2.67771 0.41659,-1.30772 0.68672,-1.73839 1.28413,-2.04732 l 0.66911,-0.34602 0,-2.75542 0,-2.75543 -1.8137,-1.23273 c -1.83762,-1.249 -3.6641,-2.5212 -6.84528,-4.76798 l -1.7552,-1.23964 -0.0628,-5.44331 -0.0628,-5.44331 -3.21354,0.0651 -3.21354,0.0651 -0.054,8.776 -0.054,8.77599 1.28845,1.05312 c 0.70864,0.57922 1.63588,1.36906 2.06053,1.7552 0.42464,0.38615 1.26452,1.10224 1.86641,1.59133 l 1.09433,0.88925 0,2.43962 0,2.43962 0.67307,0.34806 c 0.95175,0.49217 1.5205,1.98091 1.20476,3.1535 -0.27592,1.02467 -0.73663,1.49945 -1.9449,2.0043 -0.75424,0.31514 -0.96951,0.32013 -1.62962,0.0378 -0.90447,-0.38691 -1.9335,-1.45967 -2.11258,-2.20237 -0.22912,-0.95024 0.27142,-2.11497 1.2452,-2.89752 l 0.92588,-0.74406 0,-1.92944 0,-1.92945 -1.78656,-1.48328 c -0.98261,-0.8158 -2.36805,-1.98351 -3.07876,-2.59491 -0.71071,-0.61139 -1.3637,-1.11162 -1.45109,-1.11162 -0.0874,0 -0.14999,-4.1335 -0.13911,-9.18555 l 0.0198,-9.18554 -2.22326,0 -2.22325,0 -0.11701,8.11288 -0.11702,8.11288 -3.12143,2.4032 c -2.84182,2.18793 -3.11038,2.45841 -2.99816,3.01952 0.16536,0.82679 -1.05902,2.99045 -1.78136,3.14793 -2.08159,0.45383 -3.45182,-0.24982 -3.92766,-2.01695 -0.22083,-0.82011 -0.18407,-1.07921 0.28811,-2.03064 0.68183,-1.37385 1.74462,-1.82135 3.35975,-1.41465 0.99482,0.2505 1.06986,0.23022 2.14851,-0.58071 0.61473,-0.46215 1.72349,-1.26791 2.46391,-1.79057 2.17657,-1.53642 2.06243,-0.99228 1.99199,-9.49656 l -0.0618,-7.46633 -3.21787,-0.0651 -3.21787,-0.0651 -0.005,4.97967 -0.005,4.97968 -0.8726,0.64981 c -1.2917,0.9619 -2.43149,1.8624 -6.22385,4.91716 l -3.42475,2.75866 1e-5,2.62396 0,2.62395 0.80851,0.64511 c 0.86589,0.6909 1.31872,1.83082 1.12657,2.83598 -0.14323,0.74927 -1.62661,2.23893 -2.27931,2.28896 -2.23887,0.1716 -3.97363,-1.60686 -3.40696,-3.49278 0.36758,-1.22333 0.53561,-1.4776 1.20525,-1.82388 l 0.67372,-0.3484 0,-2.98638 0,-2.98638 1.19414,-0.92756 c 0.65678,-0.51015 1.65014,-1.29614 2.20748,-1.74664 0.55734,-0.4505 1.67864,-1.33425 2.49178,-1.96389 0.81314,-0.62963 1.6364,-1.28993 1.82947,-1.46732 0.19308,-0.1774 0.90612,-0.75239 1.58455,-1.27777 l 1.23351,-0.95523 -0.0634,-4.59824 -0.0634,-4.59824 -2.69131,0 -2.6913,0 -0.0708,3.51039 -0.0708,3.5104 -2.23401,1.63819 c -1.2287,0.901 -2.63928,1.95412 -3.13461,2.34027 -0.49533,0.38614 -1.16002,0.88414 -1.47709,1.10666 -0.46511,0.32641 -0.57357,0.59773 -0.56137,1.40431 0.0291,1.92408 -1.14635,3.11025 -3.02922,3.05688 -2.75861,-0.0782 -3.72511,-3.80405 -1.3846,-5.33761 0.63855,-0.41839 1.55065,-0.50281 2.73476,-0.25312 0.79658,0.16797 0.98457,0.0642 4.03696,-2.2285 l 3.20148,-2.40468 0,-3.2301 0,-3.23011 -6.90378,0 -6.90379,0 0,18.91716 c 0,10.40443 0.0706,18.98771 0.15681,19.07396 0.0862,0.0862 15.22485,0.13012 33.64133,0.0975 l 33.48452,-0.0593 0,-18.95616 z m -23.29834,12.4187 c 0.15326,-0.18466 0.24513,-0.6849 0.20417,-1.11162 -0.0803,-0.83706 -0.6033,-1.07522 -1.73646,-0.79082 -0.44967,0.11286 -0.56127,0.29354 -0.56127,0.9087 0,0.42231 0.12638,0.8942 0.28084,1.04866 0.38611,0.38611 1.47405,0.35315 1.81272,-0.0549 z m -31.39369,-4.15756 c 0.15446,-0.15445 0.28083,-0.62635 0.28083,-1.04866 0,-0.61516 -0.11159,-0.79584 -0.56126,-0.9087 -1.13316,-0.2844 -1.65612,-0.0462 -1.73647,0.79082 -0.041,0.42673 0.0509,0.92696 0.20418,1.11162 0.33867,0.40807 1.42661,0.44103 1.81272,0.0549 z m 43.99701,0 c 0.38611,-0.38611 0.35315,-1.47405 -0.0549,-1.81272 -0.18467,-0.15325 -0.6849,-0.24513 -1.11163,-0.20417 -0.68933,0.0662 -0.78418,0.16102 -0.85035,0.85035 -0.041,0.42673 0.0509,0.92696 0.20418,1.11162 0.33866,0.40807 1.42661,0.44103 1.81272,0.0549 z m -33.46581,-4.21248 c 0.38611,-0.38611 0.35315,-1.47405 -0.0549,-1.81272 -0.18467,-0.15325 -0.6849,-0.24513 -1.11163,-0.20417 -0.69091,0.0663 -0.78408,0.1602 -0.85087,0.85734 -0.0412,0.43057 -0.0182,0.9308 0.0512,1.11163 0.15536,0.40488 1.57469,0.43948 1.96625,0.0479 z m -16.61162,-9.03701 c 0.0917,-0.95519 -0.28559,-1.44738 -1.10945,-1.44738 -0.7907,0 -1.18828,0.39151 -1.18828,1.17013 0,0.8483 0.44381,1.20329 1.40315,1.12233 0.74079,-0.0625 0.8273,-0.14424 0.89458,-0.84508 z m 56.39615,0.61205 c 0.38611,-0.38611 0.35315,-1.47405 -0.0549,-1.81272 -0.18466,-0.15325 -0.68489,-0.24513 -1.11162,-0.20417 -0.69091,0.0663 -0.78409,0.1602 -0.85087,0.85734 -0.0412,0.43058 -0.0182,0.93081 0.0512,1.11163 0.15537,0.40488 1.5747,0.43948 1.96626,0.0479 z"
           id="path8312-2-0"
           clip-path="url(#clipPath8395-0-2-8)" />
        <path
           style="fill:#ffffff;fill-opacity:1;stroke:none;stroke-width:1;stroke-linecap:butt;stroke-linejoin:round;stroke-miterlimit:0.30000001;stroke-dasharray:none;stroke-dashoffset:15;stroke-opacity:1"
           d="m 644.67759,778.609 -3.54404,-0.1286 -1.17115,-1.259 c -1.30922,-1.4074 -1.46254,-1.9464 -1.46254,-5.1416 l 0,-1.7567 17.84376,0 17.84376,0 0.65278,1.2764 c 0.42463,0.8303 0.9826,1.5082 1.59646,1.9396 0.93575,0.6577 0.97993,0.665 5.2492,0.8648 2.36803,0.1108 6.76948,0.1575 9.781,0.1037 4.55423,-0.081 5.63558,-0.1637 6.42704,-0.4899 1.06171,-0.4376 2.89179,-2.3209 3.00089,-3.0881 l 0.0704,-0.4948 16.96307,-0.057 16.96306,-0.057 -0.13147,2.3217 c -0.14276,2.5209 -0.50084,3.6747 -1.45644,4.6927 -1.38865,1.4794 2.13106,1.3676 -43.62443,1.3861 -22.80149,0.01 -43.05208,-0.041 -45.00131,-0.1117 z"
           id="path8343-7-9" />
        <path
           style="fill:#000000;fill-opacity:1;stroke:none;stroke-width:1;stroke-linecap:butt;stroke-linejoin:round;stroke-miterlimit:0.30000001;stroke-dasharray:none;stroke-dashoffset:15;stroke-opacity:1"
           d="m -241.35456,1340.5211 c -3.88253,-0.1441 -3.98198,-0.1809 -5.36715,-1.9852 -0.74398,-0.9692 -0.75764,-1.0276 -0.85088,-3.6429 l -0.0948,-2.6578 17.91222,0 17.91221,0 0.23045,0.6146 c 0.42096,1.1226 1.31768,2.2055 2.26938,2.7404 0.84718,0.4761 1.3505,0.5482 5.08131,0.7273 4.90797,0.2356 14.529,0.069 15.6781,-0.2718 1.11222,-0.3297 2.75196,-1.829 3.18564,-2.9129 l 0.35916,-0.8976 16.90892,0 16.90892,0 -0.13353,2.2907 c -0.15447,2.6501 -0.46541,3.6999 -1.38422,4.6734 -1.44744,1.5335 2.1679,1.4149 -43.69443,1.4335 -22.80149,0.01 -43.0161,-0.041 -44.92134,-0.1117 z"
           id="path8356-2-6"
           transform="translate(886.11212,-561.9121)" />
      </g>
      <rect
         y="577.9118"
         x="294.50143"
         height="4.0519929"
         width="45.200253"
         id="rect6833"
         style="opacity:1;fill:#808080;fill-opacity:1;stroke:none;stroke-width:2.0999999;stroke-linecap:butt;stroke-linejoin:miter;stroke-miterlimit:2.31999993;stroke-dasharray:none;stroke-dashoffset:15;stroke-opacity:1" />
    </g>
  </g>
</svg>
