<?xml version="1.0" encoding="UTF-8" standalone="no"?>
<svg
   xmlns:dc="http://purl.org/dc/elements/1.1/"
   xmlns:cc="http://creativecommons.org/ns#"
   xmlns:rdf="http://www.w3.org/1999/02/22-rdf-syntax-ns#"
   xmlns:svg="http://www.w3.org/2000/svg"
   xmlns="http://www.w3.org/2000/svg"
   version="1.1"
   id="svg2"
   viewBox="0 0 181.13644 159.47804"
   style="clip-rule:evenodd;fill-rule:evenodd;image-rendering:optimizeQuality;shape-rendering:geometricPrecision;text-rendering:geometricPrecision"
   height="159.47804mm"
   width="181.13644mm"
   xml:space="preserve"><metadata
     id="metadata844"><rdf:RDF><cc:Work
         rdf:about=""><dc:format>image/svg+xml</dc:format><dc:type
           rdf:resource="http://purl.org/dc/dcmitype/StillImage" /><dc:title></dc:title></cc:Work></rdf:RDF></metadata><defs
     id="defs4"><style
       id="style6"
       type="text/css"><![CDATA[
    .str1 {stroke:#2B2A29;stroke-width:0.0762}
    .str0 {stroke:#EF7F1A;stroke-width:0.2}
    .str2 {stroke:#FEFEFE;stroke-width:0.2}
    .fil1 {fill:none}
    .fil0 {fill:#EF7F1A}
    .fil2 {fill:#FEFEFE}
   ]]></style></defs><g
     transform="translate(-8.6298525,-58.083033)"
     id="Ebene_x0020_1"><metadata
       id="CorelCorpID_0Corel-Layer" /><g
       id="g15"
       transform="matrix(0.20227071,0,0,0.20227071,84.940797,125.09231)" /><path
       id="path4955"
       d="m 35.116978,110.31405 -4.62016,-1.83464 0.40849,-0.88712 c 0.61358,-1.33249 2.08814,-4.24899 2.73631,-5.41206 0.31523,-0.56566 0.55782,-1.04041 0.53908,-1.05499 -0.0187,-0.0146 -0.93555,-0.54325 -2.03735,-1.174812 -1.1018,-0.63157 -2.05591,-1.19575 -2.12026,-1.25375 -0.0918,-0.0827 0.0629,-0.40105 0.71848,-1.4783 1.03106,-1.69423 1.0743,-1.75603 1.16885,-1.67035 0.0421,0.0381 0.0461,0.0166 0.009,-0.0478 -0.14439,-0.2508 4.72123,-7.01947 4.98944,-6.94093 0.0438,0.0128 0.0706,-0.008 0.0598,-0.0466 -0.0421,-0.1485 0.21936,-0.49217 0.32729,-0.43026 0.0615,0.0353 0.0815,0.0306 0.0444,-0.0104 -0.10826,-0.11979 0.66486,-1.06027 2.85223,-3.46967 0.66146,-0.7286 1.24487,-1.29864 1.29646,-1.26676 0.0516,0.0319 0.0685,0.0171 0.0376,-0.0329 -0.0654,-0.10587 1.63561,-1.83166 1.73259,-1.75781 0.0358,0.0273 0.0436,0.0211 0.0172,-0.0138 -0.0734,-0.0972 0.43629,-0.5901 0.54243,-0.52451 0.0513,0.0317 0.0656,0.0128 0.0317,-0.0421 -0.0339,-0.0549 0.0992,-0.23953 0.29567,-0.41039 0.19653,-0.17085 0.87261,-0.78178 1.5024,-1.35761 0.62979,-0.57583 1.18857,-1.02008 1.24172,-0.98724 0.0532,0.0328 0.0696,0.016 0.0366,-0.0375 -0.0728,-0.11774 0.53689,-0.6032 0.64036,-0.5099 0.0402,0.0362 0.0447,0.0164 0.0101,-0.044 -0.0686,-0.1197 0.91087,-0.93307 1.07104,-0.88944 0.0517,0.0141 0.0702,-0.0129 0.0411,-0.06 -0.0936,-0.15143 3.47698,-2.83722 6.04886,-4.54998 7.80295,-5.19643 16.08132,-8.87339 25.01755,-11.11192 8.72998,-2.18686 18.02359,-2.91746 26.642042,-2.09441 0.79097,0.0755 1.44593,0.14706 1.45547,0.15896 0.0245,0.0306 -2.08929,14.90322 -2.12162,14.92763 -0.0146,0.011 -0.34104,-0.0125 -0.72539,-0.0523 -0.38435,-0.0398 -1.81402,-0.12502 -3.17704,-0.18934 -3.776412,-0.1782 -7.935542,0.0364 -11.971072,0.61761 -5.63202,0.81118 -11.69302,2.55263 -16.84389,4.83958 -1.40899,0.62558 -4.29029,2.05072 -5.26374,2.60354 -0.3252,0.18467 -0.63967,0.30809 -0.69882,0.27426 -0.0592,-0.0338 -0.0765,-0.0272 -0.0385,0.0148 0.038,0.0419 -0.46514,0.39753 -1.1181,0.7902 -0.65296,0.39266 -1.56455,0.95857 -2.02577,1.25758 -0.46122,0.29901 -0.89099,0.54413 -0.95505,0.54472 -0.0641,5.7e-4 -0.0972,0.0203 -0.0737,0.0438 0.0235,0.0235 -0.56824,0.4778 -1.31502,1.00952 -2.23316,1.59002 -4.05673,3.0714 -6.40857,5.206 -0.45169,0.40997 -0.86846,0.73142 -0.92616,0.71434 -0.0577,-0.0171 -0.0731,8.5e-4 -0.0342,0.0397 0.0961,0.096 -0.30654,0.51307 -0.42478,0.43999 -0.0517,-0.032 -0.0685,-0.0168 -0.0374,0.0336 0.0655,0.10595 -0.89127,1.08468 -0.9883,1.011 -0.0355,-0.0269 -0.0449,-0.0224 -0.0209,0.0102 0.024,0.0325 -0.40832,0.54617 -0.96071,1.1414 -1.86493,2.00955 -3.38045,3.84046 -4.90629,5.927352 -0.44963,0.61495 -0.85683,1.10658 -0.9049,1.09249 -0.0481,-0.0141 -0.0657,0.01 -0.0392,0.0524 0.0704,0.1139 -0.26725,0.59312 -0.35912,0.50972 -0.0428,-0.0388 -0.0523,-0.0258 -0.0212,0.029 0.0607,0.10683 -0.80196,1.47005 -0.88055,1.39146 -0.0258,-0.0258 -0.0478,0.005 -0.0488,0.0696 -10e-4,0.0641 -0.33597,0.66155 -0.7443,1.32775 -0.40831,0.66621 -0.88391,1.47072 -1.05687,1.78781 -0.17296,0.31709 -0.35464,0.5517 -0.40374,0.52136 -0.0491,-0.0303 -0.0625,-0.0119 -0.0299,0.0409 0.0327,0.0529 -0.26547,0.71971 -0.66253,1.48191 -0.39705,0.7622 -0.95189,1.87822 -1.23297,2.48005 -0.28108,0.60183 -0.55299,1.09287 -0.60423,1.09119 -0.0512,-0.002 -2.17225,-0.82864 -4.71334,-1.83769 z"
       style="clip-rule:evenodd;opacity:1;fill:#b2b2b2;fill-opacity:1;fill-rule:evenodd;stroke:#eaeaea;stroke-width:1;stroke-linecap:butt;stroke-linejoin:round;stroke-miterlimit:4;stroke-dasharray:none;stroke-dashoffset:15;stroke-opacity:1;image-rendering:optimizeQuality;shape-rendering:geometricPrecision;text-rendering:geometricPrecision" /><path
       id="path4957"
       d="m 114.82951,113.06306 c -1.09996,-0.66805 -3.15585,-1.70877 -4.19027,-2.12118 -3.65728,-1.45811 -6.72592,-2.09784 -10.57111,-2.20378 -2.765812,-0.0762 -4.764162,0.10983 -7.386082,0.68759 -0.60322,0.13292 -1.11074,0.22508 -1.12783,0.2048 -0.07,-0.0831 -6.84186,-18.860802 -6.81245,-18.890272 0.0879,-0.088 2.81972,-0.78447 4.11498,-1.04905 0.81101,-0.16567 1.50839,-0.33011 1.54972,-0.36543 0.0413,-0.0353 -0.11702,-1.14527 -0.35192,-2.46655 -0.23489,-1.32129 -0.41547,-2.41388 -0.40127,-2.42799 0.0142,-0.0141 0.59185,-0.11112 1.28368,-0.21557 10.757472,-1.62412 21.585832,-0.0769 31.481912,4.49846 1.83851,0.85001 4.2974,2.17355 4.2974,2.31316 0,0.0554 -0.52412,1.00983 -1.1647,2.12092 -0.64058,1.1111 -1.16469,2.06401 -1.16469,2.11758 0,0.0536 0.29003,0.26969 0.64451,0.48029 1.17311,0.69693 3.17568,2.05663 3.17568,2.15621 0,0.0753 -8.27273,10.528242 -11.88045,15.011392 l -0.57226,0.71112 -0.92485,-0.5617 z"
       style="clip-rule:evenodd;opacity:1;fill:#d1a268;fill-opacity:1;fill-rule:evenodd;stroke:#e9c6af;stroke-width:1;stroke-linecap:butt;stroke-linejoin:round;stroke-miterlimit:4;stroke-dasharray:none;stroke-dashoffset:15;stroke-opacity:1;image-rendering:optimizeQuality;shape-rendering:geometricPrecision;text-rendering:geometricPrecision" /><path
       id="path4959"
       d="m 56.601868,134.40487 c -3.94598,-0.15292 -7.18775,-0.29062 -7.20394,-0.30601 -0.0538,-0.0511 0.35226,-3.05443 0.59842,-4.42597 2.4797,-13.8163 10.95063,-26.22411 22.94508,-33.608892 1.17588,-0.72397 1.27634,-0.76832 1.38959,-0.61353 0.0671,0.0918 1.17314,1.99076 2.45777,4.21997 1.28464,2.229222 2.37292,4.092932 2.41841,4.141572 0.0511,0.0547 0.35846,-0.0631 0.80488,-0.30854 1.25358,-0.6891 3.03386,-1.5121 3.10747,-1.43655 0.0563,0.0578 3.43817,9.30384 3.43817,9.40002 0,0.0143 -0.55552,0.31146 -1.23448,0.66033 -6.24795,3.21035 -11.42189,8.99344 -14.00249,15.65105 -0.25208,0.65034 -0.26514,0.66532 -0.50072,0.57412 -0.84189,-0.32595 -4.3182,-1.56799 -4.38859,-1.56799 -0.26205,0 -1.44068,4.48783 -1.74963,6.66204 l -0.17212,1.21127 -0.36666,0.0126 c -0.20167,0.007 -3.59519,-0.11254 -7.54116,-0.26546 z"
       style="clip-rule:evenodd;opacity:1;fill:#d1a268;fill-opacity:1;fill-rule:evenodd;stroke:#e9c6af;stroke-width:1;stroke-linecap:butt;stroke-linejoin:round;stroke-miterlimit:4;stroke-dasharray:none;stroke-dashoffset:15;stroke-opacity:1;image-rendering:optimizeQuality;shape-rendering:geometricPrecision;text-rendering:geometricPrecision" /><path
       id="path4961"
       d="m 144.07984,160.92266 c -4.77455,-2.69952 -8.7056,-4.93289 -8.73568,-4.96306 -0.0301,-0.0302 0.21147,-0.68006 0.53675,-1.44421 0.87348,-2.052 0.91077,-2.15754 0.7798,-2.20711 -0.0618,-0.0234 -2.16688,-0.78812 -4.67795,-1.69942 -2.51108,-0.91129 -4.57585,-1.66441 -4.58839,-1.67359 -0.0125,-0.009 0.1037,-0.39077 0.25831,-0.84799 0.64593,-1.91009 1.19382,-4.55951 1.40109,-6.77517 0.16176,-1.72926 0.0654,-5.33796 -0.18715,-7.0075 -0.95157,-6.29099 -3.76803,-12.02123 -8.08903,-16.45756 l -0.87396,-0.89728 7.70391,-9.67811 c 4.23716,-5.32296 7.75958,-9.737002 7.8276,-9.808962 0.17519,-0.18532 0.30379,-0.0855 1.99837,1.55128 3.44845,3.330792 6.59929,7.275702 8.89359,11.134942 0.29704,0.49965 0.55157,0.90846 0.56561,0.90846 0.0141,0 0.96802,-0.54508 2.11994,-1.21128 1.15192,-0.66621 2.13164,-1.21128 2.17716,-1.21128 0.13981,0 1.97866,3.50636 2.7553,5.25385 3.01291,6.77927 4.67105,13.37247 5.20478,20.69546 0.13618,1.86852 0.13726,6.47483 0.002,8.15284 -0.31298,3.88005 -0.81883,7.07625 -1.63686,10.34246 -1.04059,4.15484 -2.70958,8.73033 -4.39039,12.03612 l -0.3637,0.71531 -8.68101,-4.9082 z"
       style="clip-rule:evenodd;opacity:1;fill:#d1a268;fill-opacity:1;fill-rule:evenodd;stroke:#e9c6af;stroke-width:1;stroke-linecap:butt;stroke-linejoin:round;stroke-miterlimit:4;stroke-dasharray:none;stroke-dashoffset:15;stroke-opacity:1;image-rendering:optimizeQuality;shape-rendering:geometricPrecision;text-rendering:geometricPrecision" /><path
       id="path4963"
       d="m 96.063678,193.61101 c -2.09609,-0.14345 -6.27016,-0.64891 -6.39575,-0.7745 -0.0199,-0.02 0.34957,-2.22207 0.82114,-4.89361 0.47158,-2.67154 0.83731,-4.87745 0.81274,-4.90201 -0.0246,-0.0246 -0.56697,-0.15438 -1.20535,-0.28846 -0.63838,-0.13409 -1.19897,-0.28098 -1.24575,-0.32643 -0.0509,-0.0494 0.78935,-2.96871 2.09245,-7.26964 l 2.17752,-7.187 0.33011,0.0585 c 2.72665,0.48298 6.07948,0.65402 8.455702,0.43137 5.96316,-0.55874 11.48327,-2.78888 16.15849,-6.52808 0.53153,-0.4251 1.69198,-1.50491 2.57878,-2.39957 1.45852,-1.47144 1.62745,-1.61389 1.77034,-1.49281 1.81118,1.53474 3.55412,2.96059 3.61897,2.96059 0.1046,0 1.43576,-1.71303 2.23255,-2.87302 0.0118,-0.0171 2.97668,1.63905 6.58867,3.68043 l 6.56726,3.71159 -0.22074,0.3727 c -0.36462,0.61562 -1.74538,2.53559 -2.68033,3.72702 -0.64672,0.82413 -0.85245,1.14934 -0.78248,1.23691 0.0522,0.0654 0.90464,0.79529 1.8943,1.62209 l 1.79938,1.50328 -0.23952,0.288 c -0.79526,0.95622 -2.54414,2.82055 -3.60142,3.83918 -9.33178,8.99053 -20.97874,14.27978 -33.93327,15.41014 -1.53108,0.1336 -6.172082,0.19065 -7.593792,0.0934 z"
       style="clip-rule:evenodd;opacity:1;fill:#d1a268;fill-opacity:1;fill-rule:evenodd;stroke:#e9c6af;stroke-width:1;stroke-linecap:butt;stroke-linejoin:round;stroke-miterlimit:4;stroke-dasharray:none;stroke-dashoffset:15;stroke-opacity:1;image-rendering:optimizeQuality;shape-rendering:geometricPrecision;text-rendering:geometricPrecision" /><path
       id="path4965"
       d="m 70.533678,185.60607 c -6.16768,-3.82635 -11.35305,-8.57712 -15.5785,-14.27285 -4.18288,-5.63835 -7.40751,-12.48587 -9.14857,-19.42705 -0.26408,-1.05281 -0.80977,-3.70333 -0.77053,-3.74257 0.0141,-0.0142 2.18277,-0.40555 4.81914,-0.86978 2.63638,-0.46422 4.84025,-0.86028 4.8975,-0.88013 0.0756,-0.0263 0.0704,-0.23546 -0.0192,-0.76589 -0.22082,-1.30664 -0.41508,-3.21577 -0.47455,-4.66374 l -0.0582,-1.41823 0.45692,0.0429 c 0.25131,0.0236 3.64351,0.1547 7.53824,0.29138 3.89473,0.13668 7.08706,0.25244 7.09408,0.25725 0.007,0.005 0.0601,0.51188 0.11791,1.12684 0.68047,7.23554 3.82748,13.84271 8.96476,18.82158 1.70194,1.64946 3.66809,3.16888 5.41662,4.18593 0.24343,0.14159 0.44259,0.29553 0.44259,0.3421 0,0.0466 -0.54828,1.0317 -1.2184,2.18918 -0.67012,1.15748 -1.20471,2.11722 -1.18798,2.13275 0.14286,0.13268 2.59121,1.34917 3.47789,1.72804 0.61496,0.26276 1.15169,0.51013 1.19273,0.54971 0.10425,0.10052 -4.23226,14.44873 -4.36689,14.44873 -0.0165,0 -0.71374,-0.27525 -1.54933,-0.61167 -1.4737,-0.59333 -4.41185,-1.99269 -5.68576,-2.70798 -0.34422,-0.19328 -0.64262,-0.33255 -0.66312,-0.3095 -0.0205,0.0231 -0.56939,0.96434 -1.21977,2.09176 -0.65038,1.12742 -1.21212,2.07981 -1.24832,2.11642 -0.0362,0.0366 -0.58931,-0.25822 -1.22916,-0.65517 z"
       style="clip-rule:evenodd;opacity:1;fill:#d1a268;fill-opacity:1;fill-rule:evenodd;stroke:#e9c6af;stroke-width:1;stroke-linecap:butt;stroke-linejoin:round;stroke-miterlimit:4;stroke-dasharray:none;stroke-dashoffset:15;stroke-opacity:1;image-rendering:optimizeQuality;shape-rendering:geometricPrecision;text-rendering:geometricPrecision" /><path
       id="path4967"
       d="m 175.9938,161.29577 c -5.21658,-1.72908 -9.50305,-3.16214 -9.52549,-3.18457 -0.0224,-0.0224 0.0843,-0.4783 0.2372,-1.01304 0.55662,-1.94682 1.45586,-6.1139 1.34378,-6.22715 -0.0305,-0.0309 -1.13195,-0.24731 -2.44759,-0.48102 -1.86794,-0.33181 -2.38761,-0.45431 -2.37167,-0.55905 0.76585,-5.03159 1.01968,-8.46116 0.92364,-12.47986 -0.16312,-6.82529 -1.2349,-13.05605 -3.31772,-19.28728 -0.29976,-0.89681 -0.51725,-1.65751 -0.48331,-1.69044 0.034,-0.0329 2.11623,-0.80438 4.6273,-1.71433 2.51108,-0.90995 4.58412,-1.67022 4.60676,-1.6895 0.10206,-0.0869 -1.20721,-3.34677 -2.29129,-5.70497 -0.48065,-1.04555 -0.85922,-1.91569 -0.84125,-1.93366 0.0734,-0.0734 13.13471,-7.113442 13.19747,-7.113442 0.0779,0 0.94797,1.801292 1.89022,3.913372 4.02434,9.0206 6.58209,18.98693 7.4248,28.93092 0.39842,4.70132 0.39912,10.3479 0.002,15.14098 -0.379,4.57294 -1.21394,9.61496 -2.33758,14.11606 -0.34056,1.36427 -1.08835,4.0736 -1.13349,4.10682 -0.0104,0.008 -4.28707,-1.40076 -9.50366,-3.12984 l 0,0 z"
       style="clip-rule:evenodd;opacity:1;fill:#f5cd53;fill-opacity:1;fill-rule:evenodd;stroke:#ffe680;stroke-width:1;stroke-linecap:butt;stroke-linejoin:round;stroke-miterlimit:4;stroke-dasharray:none;stroke-dashoffset:15;stroke-opacity:1;image-rendering:optimizeQuality;shape-rendering:geometricPrecision;text-rendering:geometricPrecision" /><path
       id="path4969"
       d="m 114.00222,209.6285 -1.26158,-7.43257 1.91381,-0.47533 c 4.74831,-1.17933 8.64049,-2.57954 12.93277,-4.65256 11.46103,-5.53528 21.20514,-14.53098 27.65051,-25.52678 1.5781,-2.69224 3.26674,-6.14624 4.33861,-8.87436 0.22639,-0.57619 0.44453,-1.04789 0.48476,-1.04822 0.0908,-8.4e-4 14.1682,4.66649 14.22061,4.71469 0.0576,0.053 -0.58952,1.75363 -1.36112,3.57732 -0.77683,1.83602 -2.76994,5.91029 -3.70868,7.5812 -0.3416,0.60803 -0.58608,1.13585 -0.54329,1.17293 0.0428,0.0371 1.01073,0.60214 2.15096,1.25571 1.14023,0.65357 2.07315,1.2049 2.07315,1.22518 0,0.10514 -1.76458,2.93348 -2.86825,4.59736 -4.27011,6.43751 -9.45825,12.29709 -15.48728,17.49163 -3.50053,3.016 -7.27606,5.74108 -11.36061,8.19978 -1.29489,0.77946 -1.44808,0.84938 -1.54472,0.70506 -0.059,-0.0881 -0.6217,-1.0512 -1.25043,-2.14018 -0.62872,-1.08899 -1.15833,-1.97998 -1.1769,-1.97998 -0.0186,0 -0.6539,0.34316 -1.41185,0.76257 -4.00997,2.21895 -9.54352,4.61826 -13.81536,5.99026 -2.40061,0.77101 -6.43938,1.84069 -8.43399,2.23378 l -0.27953,0.0551 -1.26159,-7.43258 z"
       style="clip-rule:evenodd;opacity:1;fill:#ffa500;fill-opacity:1;fill-rule:evenodd;stroke:#ffda0b;stroke-width:1;stroke-linecap:butt;stroke-linejoin:round;stroke-miterlimit:4;stroke-dasharray:none;stroke-dashoffset:15;stroke-opacity:1;image-rendering:optimizeQuality;shape-rendering:geometricPrecision;text-rendering:geometricPrecision" /><g
       id="g5055"
       style="clip-rule:evenodd;fill:#ffffff;fill-rule:evenodd;image-rendering:optimizeQuality;shape-rendering:geometricPrecision;text-rendering:geometricPrecision"
       transform="translate(-6.2358524,6.8002876)"><text
   xml:space="preserve"
   style="font-style:normal;font-weight:normal;font-size:4.93888903px;line-height:125%;font-family:sans-serif;letter-spacing:0px;word-spacing:0px;fill:#ffffff;fill-opacity:1;stroke:none;stroke-width:1px;stroke-linecap:butt;stroke-linejoin:miter;stroke-opacity:1"
   x="67.497444"
   y="103.88077"
   id="text4573"><tspan
     id="tspan4575"
     x="67.497444"
     y="103.88077"
     style="font-style:normal;font-variant:normal;font-weight:bold;font-stretch:normal;font-size:3.17499995px;font-family:sans-serif;-inkscape-font-specification:'sans-serif Bold';fill:#ffffff">Controlling</tspan></text>

<flowRoot
   xml:space="preserve"
   id="flowRoot4682"
   style="font-style:normal;font-weight:normal;font-size:4.23333311px;line-height:125%;font-family:sans-serif;letter-spacing:0px;word-spacing:0px;fill:#ffffff;fill-opacity:1;stroke:none;stroke-width:1px;stroke-linecap:butt;stroke-linejoin:miter;stroke-opacity:1"
   transform="translate(7.5170205,3.0138867)"><flowRegion
     id="flowRegion4684"><rect
       style="fill:#ffffff"
       id="rect4686"
       width="34.628838"
       height="30.730227"
       x="53.204571"
       y="104.82142" /></flowRegion><flowPara
     id="flowPara4690"
     style="font-size:2.11666679px;fill:#ffffff" /></flowRoot></g><g
       id="g5068"
       style="clip-rule:evenodd;fill:#ffffff;fill-rule:evenodd;image-rendering:optimizeQuality;shape-rendering:geometricPrecision;text-rendering:geometricPrecision"
       transform="translate(-6.2358524,6.8002876)"><text
   xml:space="preserve"
   style="font-style:normal;font-weight:normal;font-size:4.93888903px;line-height:125%;font-family:sans-serif;letter-spacing:0px;word-spacing:0px;fill:#ffffff;fill-opacity:1;stroke:none;stroke-width:1px;stroke-linecap:butt;stroke-linejoin:miter;stroke-opacity:1"
   x="54.435455"
   y="148.07832"
   id="text4577"><tspan
     id="tspan4579"
     x="54.435455"
     y="148.07832"
     style="font-style:normal;font-variant:normal;font-weight:bold;font-stretch:normal;font-size:3.17499995px;font-family:sans-serif;-inkscape-font-specification:'sans-serif Bold';fill:#ffffff">Accounting</tspan></text>

<text
   xml:space="preserve"
   style="font-style:normal;font-weight:normal;font-size:2.82222223px;line-height:125%;font-family:sans-serif;letter-spacing:0px;word-spacing:0px;fill:#ffffff;fill-opacity:1;stroke:none;stroke-width:1px;stroke-linecap:butt;stroke-linejoin:miter;stroke-opacity:1"
   x="59.589104"
   y="155.37816"
   id="text4710"><tspan
     id="tspan4712"
     x="59.589104"
     y="155.37816"
     style="font-size:2.11666679px;fill:#ffffff">-Outgoing invoices</tspan><tspan
     x="59.589104"
     y="158.02399"
     id="tspan4714"
     style="font-size:2.11666679px;fill:#ffffff">  -Purchase invoices</tspan><tspan
     x="59.589104"
     y="160.66983"
     id="tspan4716"
     style="font-size:2.11666679px;fill:#ffffff">    -Data interface</tspan><tspan
     x="59.589104"
     y="163.31566"
     id="tspan4718"
     style="font-size:2.11666679px;fill:#ffffff">      -Dunning</tspan></text>

</g><g
       id="g5022"
       style="clip-rule:evenodd;fill:#ffffff;fill-rule:evenodd;image-rendering:optimizeQuality;shape-rendering:geometricPrecision;text-rendering:geometricPrecision"
       transform="translate(-6.2358524,6.8002876)"><text
   xml:space="preserve"
   style="font-style:normal;font-weight:normal;font-size:4.93888903px;line-height:125%;font-family:sans-serif;letter-spacing:0px;word-spacing:0px;fill:#ffffff;fill-opacity:1;stroke:none;stroke-width:1px;stroke-linecap:butt;stroke-linejoin:miter;stroke-opacity:1"
   x="105.62367"
   y="165.9695"
   id="text4585"><tspan
     id="tspan4587"
     x="105.62367"
     y="165.9695"
     style="font-style:normal;font-variant:normal;font-weight:bold;font-stretch:normal;font-size:3.17499995px;font-family:sans-serif;-inkscape-font-specification:'sans-serif Bold';fill:#ffffff">Production</tspan></text>

<text
   xml:space="preserve"
   style="font-style:normal;font-weight:normal;font-size:4.23333311px;line-height:125%;font-family:sans-serif;letter-spacing:0px;word-spacing:0px;fill:#ffffff;fill-opacity:1;stroke:none;stroke-width:1px;stroke-linecap:butt;stroke-linejoin:miter;stroke-opacity:1"
   x="101.78565"
   y="170.2153"
   id="text4646"><tspan
     id="tspan4648"
     x="101.78565"
     y="170.2153"
     style="font-size:2.11666679px;fill:#ffffff">     -Integrated shipping data</tspan><tspan
     x="101.78565"
     y="172.86113"
     style="font-size:2.11666679px;fill:#ffffff"
     id="tspan4884">    -Customs clearing</tspan><tspan
     x="101.78565"
     y="175.50697"
     style="font-size:2.11666679px;fill:#ffffff"
     id="tspan4888">   -Time tracking</tspan><tspan
     id="tspan5530"
     x="101.78565"
     y="178.1528"
     style="font-size:2.11666679px;fill:#ffffff">  -Operation data collection</tspan><tspan
     x="101.78565"
     y="180.79863"
     style="font-size:2.11666679px;fill:#ffffff"
     id="tspan4706"> -Delivery notes</tspan><tspan
     x="101.78565"
     y="183.44447"
     style="font-size:2.11666679px;fill:#ffffff"
     id="tspan4878">-Quality control</tspan><tspan
     id="tspan5524"
     x="101.78565"
     y="186.0903"
     style="font-size:2.11666679px;fill:#ffffff" /></text>

</g><g
       id="g5005"
       style="clip-rule:evenodd;fill:#ffffff;fill-rule:evenodd;image-rendering:optimizeQuality;shape-rendering:geometricPrecision;text-rendering:geometricPrecision"
       transform="translate(-6.2358524,6.8002876)"><text
   xml:space="preserve"
   style="font-style:normal;font-weight:normal;font-size:3.52777767px;line-height:125%;font-family:sans-serif;letter-spacing:0px;word-spacing:0px;fill:#ffffff;fill-opacity:1;stroke:none;stroke-width:1px;stroke-linecap:butt;stroke-linejoin:miter;stroke-opacity:1"
   x="166.72835"
   y="166.24832"
   id="text4561"><tspan
     id="tspan4563"
     x="166.72835"
     y="166.24832"
     style="font-style:normal;font-variant:normal;font-weight:bold;font-stretch:normal;font-size:3.17499995px;font-family:sans-serif;-inkscape-font-specification:'sans-serif Bold';fill:#ffffff">CAM</tspan></text>

<text
   xml:space="preserve"
   style="font-style:normal;font-weight:normal;font-size:2.82222223px;line-height:125%;font-family:sans-serif;letter-spacing:0px;word-spacing:0px;fill:#ffffff;fill-opacity:1;stroke:none;stroke-width:1px;stroke-linecap:butt;stroke-linejoin:miter;stroke-opacity:1"
   x="120.65967"
   y="171.21783"
   id="text4796"><tspan
     id="tspan4798"
     x="120.65967"
     y="171.21783"
     style="font-size:2.11666679px;fill:#ffffff">                                                           -CNC-turning</tspan><tspan
     x="120.65967"
     y="173.86366"
     id="tspan4800"
     style="font-size:2.11666679px;fill:#ffffff">                                                        -long-turning</tspan><tspan
     x="120.65967"
     y="176.50951"
     style="font-size:2.11666679px;fill:#ffffff"
     id="tspan4806">                                                    -Feature recognition</tspan><tspan
     x="120.65967"
     y="179.15533"
     style="font-size:2.11666679px;fill:#ffffff"
     id="tspan4810">                                                 -Datbase for</tspan><tspan
     x="120.65967"
     y="181.80116"
     style="font-size:2.11666679px;fill:#ffffff"
     id="tspan4812">                                                   tools,</tspan><tspan
     x="120.65967"
     y="184.44701"
     style="font-size:2.11666679px;fill:#ffffff"
     id="tspan4814">                                                materials,</tspan><tspan
     x="120.65967"
     y="187.09283"
     style="font-size:2.11666679px;fill:#ffffff"
     id="tspan4816">                                             processes</tspan><tspan
     x="120.65967"
     y="189.73866"
     style="font-size:2.11666679px;fill:#ffffff"
     id="tspan4820">                             -Time tracking</tspan><tspan
     x="120.65967"
     y="192.38451"
     style="font-size:2.11666679px;fill:#ffffff"
     id="tspan4824">                      -Process data acquisiton</tspan><tspan
     x="120.65967"
     y="195.03033"
     style="font-size:2.11666679px;fill:#ffffff"
     id="tspan4868">             -Step by step manual</tspan><tspan
     x="120.65967"
     y="197.67616"
     style="font-size:2.11666679px;fill:#ffffff"
     id="tspan4862"> -Import tolerances and surfaces</tspan><tspan
     x="120.65967"
     y="200.32201"
     style="font-size:2.11666679px;fill:#ffffff"
     id="tspan4896" /></text>

</g><g
       id="g5033"
       style="clip-rule:evenodd;fill:#ffffff;fill-rule:evenodd;image-rendering:optimizeQuality;shape-rendering:geometricPrecision;text-rendering:geometricPrecision"
       transform="translate(-6.2358524,6.8002876)"><text
   xml:space="preserve"
   style="font-style:normal;font-weight:normal;font-size:4.93888903px;line-height:125%;font-family:sans-serif;letter-spacing:0px;word-spacing:0px;fill:#ffffff;fill-opacity:1;stroke:none;stroke-width:1px;stroke-linecap:butt;stroke-linejoin:miter;stroke-opacity:1"
   x="134.32483"
   y="109.56989"
   id="text4581"><tspan
     id="tspan4583"
     x="134.32483"
     y="109.56989"
     style="font-style:normal;font-variant:normal;font-weight:bold;font-stretch:normal;font-size:3.17499995px;font-family:sans-serif;-inkscape-font-specification:'sans-serif Bold';fill:#ffffff">Planning</tspan></text>

<text
   xml:space="preserve"
   style="font-style:normal;font-weight:normal;font-size:4.23333311px;line-height:125%;font-family:sans-serif;letter-spacing:0px;word-spacing:0px;fill:#ffffff;fill-opacity:1;stroke:none;stroke-width:1px;stroke-linecap:butt;stroke-linejoin:miter;stroke-opacity:1"
   x="132.1217"
   y="116.36913"
   id="text4622"><tspan
     x="132.1217"
     y="116.36913"
     style="font-size:2.11666679px;fill:#ffffff"
     id="tspan4698"> -Production planning</tspan><tspan
     x="132.1217"
     y="119.01497"
     style="font-size:2.11666679px;fill:#ffffff"
     id="tspan4636">    -Parts list</tspan><tspan
     x="132.1217"
     y="121.6608"
     style="font-size:2.11666679px;fill:#ffffff"
     id="tspan4638">     -Assemblies</tspan><tspan
     x="132.1217"
     y="124.30663"
     style="font-size:2.11666679px;fill:#ffffff"
     id="tspan4640">      -CAD-Viewer</tspan><tspan
     x="132.1217"
     y="126.95247"
     style="font-size:2.11666679px;fill:#ffffff"
     id="tspan4644">       -NC program</tspan><tspan
     id="tspan5532"
     x="132.1217"
     y="129.5983"
     style="font-size:2.11666679px;fill:#ffffff">        management</tspan><tspan
     x="132.1217"
     y="132.24414"
     style="font-size:2.11666679px;fill:#ffffff"
     id="tspan4680">       -Warehouse equipment</tspan><tspan
     id="tspan5520"
     x="132.1217"
     y="134.88997"
     style="font-size:2.11666679px;fill:#ffffff">        purchase</tspan><tspan
     x="132.1217"
     y="137.5358"
     id="tspan4626"
     style="font-size:2.11666679px;fill:#ffffff" /></text>

</g><g
       id="g4993"
       style="clip-rule:evenodd;fill:#ffffff;fill-rule:evenodd;image-rendering:optimizeQuality;shape-rendering:geometricPrecision;text-rendering:geometricPrecision"
       transform="translate(-6.2358524,6.8002876)"><text
   xml:space="preserve"
   style="font-style:normal;font-weight:normal;font-size:3.52777767px;line-height:125%;font-family:sans-serif;letter-spacing:0px;word-spacing:0px;fill:#ffffff;fill-opacity:1;stroke:none;stroke-width:1px;stroke-linecap:butt;stroke-linejoin:miter;stroke-opacity:1"
   x="177.3205"
   y="112.60683"
   id="text4557"><tspan
     id="tspan4559"
     x="177.3205"
     y="112.60683"
     style="font-style:normal;font-variant:normal;font-weight:bold;font-stretch:normal;font-size:3.17499995px;font-family:sans-serif;-inkscape-font-specification:'sans-serif Bold';fill:#ffffff">CAD</tspan></text>

<text
   xml:space="preserve"
   style="font-style:normal;font-weight:normal;font-size:2.82222223px;line-height:125%;font-family:sans-serif;letter-spacing:0px;word-spacing:0px;fill:#ffffff;fill-opacity:1;stroke:none;stroke-width:1px;stroke-linecap:butt;stroke-linejoin:miter;stroke-opacity:1"
   x="171.019"
   y="117.90615"
   id="text4758"><tspan
     id="tspan4760"
     x="171.019"
     y="117.90615"
     style="font-size:2.11666679px;fill:#ffffff"> -STEP-Import</tspan><tspan
     x="171.019"
     y="120.55199"
     id="tspan4774"
     style="font-size:2.11666679px;fill:#ffffff">  -Construct online</tspan><tspan
     x="171.019"
     y="123.19781"
     id="tspan4778"
     style="font-size:2.11666679px;fill:#ffffff">   -Add machinings</tspan><tspan
     x="171.019"
     y="125.84365"
     id="tspan4782"
     style="font-size:2.11666679px;fill:#ffffff">   -Choose material</tspan><tspan
     x="171.019"
     y="128.48949"
     id="tspan4784"
     style="font-size:2.11666679px;fill:#ffffff">   -Order directly</tspan><tspan
     x="171.019"
     y="131.13531"
     id="tspan4766"
     style="font-size:2.11666679px;fill:#ffffff" /></text>

</g><g
       id="g5045"
       style="clip-rule:evenodd;fill:#ffffff;fill-rule:evenodd;image-rendering:optimizeQuality;shape-rendering:geometricPrecision;text-rendering:geometricPrecision"
       transform="translate(-6.2358524,6.8002876)"><text
   xml:space="preserve"
   style="font-style:normal;font-weight:normal;font-size:4.93888903px;line-height:125%;font-family:sans-serif;letter-spacing:0px;word-spacing:0px;fill:#ffffff;fill-opacity:1;stroke:none;stroke-width:1px;stroke-linecap:butt;stroke-linejoin:miter;stroke-opacity:1"
   x="102.47412"
   y="84.184555"
   id="text4569"><tspan
     id="tspan4571"
     x="102.47412"
     y="84.184555"
     style="font-style:normal;font-variant:normal;font-weight:bold;font-stretch:normal;font-size:3.17499995px;font-family:sans-serif;-inkscape-font-specification:'sans-serif Bold';fill:#ffffff">Sales</tspan></text>

<text
   xml:space="preserve"
   style="font-style:normal;font-weight:normal;font-size:4.23333311px;line-height:125%;font-family:sans-serif;letter-spacing:0px;word-spacing:0px;fill:#ffffff;fill-opacity:1;stroke:none;stroke-width:1px;stroke-linecap:butt;stroke-linejoin:miter;stroke-opacity:1"
   x="99.388298"
   y="89.496536"
   id="text4612"><tspan
     id="tspan4614"
     x="99.388298"
     y="89.496536"
     style="font-size:2.11666679px;fill:#ffffff">-Integrated Calculation</tspan><tspan
     x="99.388298"
     y="92.142372"
     style="font-size:2.11666679px;fill:#ffffff"
     id="tspan4632"> -E-Mail shipment</tspan><tspan
     x="99.388298"
     y="94.7882"
     style="font-size:2.11666679px;fill:#ffffff"
     id="tspan4630">  -E-Mail import</tspan><tspan
     x="99.388298"
     y="97.434036"
     id="tspan4616"
     style="font-size:2.11666679px;fill:#ffffff">   -Offers</tspan><tspan
     x="99.388298"
     y="100.07987"
     id="tspan4620"
     style="font-size:2.11666679px;fill:#ffffff" /></text>

</g><g
       id="g4971"
       style="clip-rule:evenodd;fill:#ffffff;fill-rule:evenodd;image-rendering:optimizeQuality;shape-rendering:geometricPrecision;text-rendering:geometricPrecision"
       transform="translate(-6.2358524,6.8002876)"><text
   xml:space="preserve"
   style="font-style:normal;font-weight:normal;font-size:4.93888903px;line-height:125%;font-family:sans-serif;letter-spacing:0px;word-spacing:0px;fill:#ffffff;fill-opacity:1;stroke:none;stroke-width:1px;stroke-linecap:butt;stroke-linejoin:miter;stroke-opacity:1"
   x="88.74131"
   y="59.32111"
   id="text4565"><tspan
     id="tspan4567"
     x="88.74131"
     y="59.32111"
     style="font-style:normal;font-variant:normal;font-weight:bold;font-stretch:normal;font-size:3.17499995px;font-family:sans-serif;-inkscape-font-specification:'sans-serif Bold';fill:#ffffff">Shop</tspan></text>

<text
   xml:space="preserve"
   style="font-style:normal;font-weight:normal;font-size:2.82222223px;line-height:125%;font-family:sans-serif;letter-spacing:0px;word-spacing:0px;fill:#ffffff;fill-opacity:1;stroke:none;stroke-width:1px;stroke-linecap:butt;stroke-linejoin:miter;stroke-opacity:1"
   x="48.87315"
   y="64.670387"
   id="text4726"><tspan
     id="tspan4728"
     x="48.87315"
     y="64.670387"
     style="font-size:2.11666679px;fill:#ffffff">                              -Ongoing orders and positions</tspan><tspan
     x="48.87315"
     y="67.316223"
     id="tspan4790"
     style="font-size:2.11666679px;fill:#ffffff">                      -Query modul</tspan><tspan
     x="48.87315"
     y="69.962051"
     id="tspan4732"
     style="font-size:2.11666679px;fill:#ffffff">                -Consisted articles</tspan><tspan
     x="48.87315"
     y="72.607887"
     id="tspan4792"
     style="font-size:2.11666679px;fill:#ffffff">           -Order online</tspan><tspan
     x="48.87315"
     y="75.253723"
     id="tspan4794"
     style="font-size:2.11666679px;fill:#ffffff">      -Inquire online</tspan></text>

</g><path
       id="path4953"
       d="m 155.00477,105.39751 c -0.056,-0.14604 -1.28593,-2.08893 -1.91987,-3.03287 -2.19194,-3.263812 -4.64779,-6.277402 -7.45039,-9.142442 -6.29673,-6.43701 -13.83947,-11.47521 -22.23361,-14.85103 -3.59092,-1.44414 -7.8674,-2.71058 -11.61249,-3.43892 -0.34591,-0.0673 -0.67206,-0.13148 -0.72478,-0.14269 -0.0937,-0.0199 -0.0716,-0.19063 0.9691,-7.50922 0.58572,-4.11886 1.0725,-7.4964 1.08172,-7.50562 0.009,-0.009 0.56894,0.0908 1.24381,0.22238 3.58434,0.69859 6.7879,1.54503 10.31164,2.72455 1.02493,0.34307 1.8764,0.60964 1.89217,0.59237 0.0158,-0.0173 0.40306,-1.06391 0.86066,-2.32585 0.46019,-1.26909 0.85666,-2.29444 0.88719,-2.29444 0.0304,0 0.4502,0.14843 0.93297,0.32984 5.55253,2.08651 11.39998,5.04577 16.32144,8.25994 6.95576,4.54274 12.9558,9.80285 18.33042,16.0699 0.54019,0.62988 0.55017,0.64559 0.46336,0.72939 -0.0488,0.0471 -0.89584,0.76115 -1.88234,1.58677 -0.98649,0.82562 -1.79989,1.51726 -1.80755,1.53697 -0.008,0.0197 0.28216,0.39964 0.64407,0.84427 2.31265,2.84127 4.48959,5.93794 6.45398,9.18066 l 0.62744,1.03576 -0.15206,0.0782 c -0.0836,0.043 -3.08384,1.663122 -6.66712,3.600252 -3.58329,1.93712 -6.52131,3.52204 -6.52894,3.52204 -0.008,0 -0.026,-0.0316 -0.0408,-0.0702 z"
       style="clip-rule:evenodd;opacity:1;fill:#ff8c00;fill-opacity:1;fill-rule:evenodd;stroke:#ffba0b;stroke-width:1;stroke-linecap:butt;stroke-linejoin:round;stroke-miterlimit:4;stroke-dasharray:none;stroke-dashoffset:15;stroke-opacity:1;image-rendering:optimizeQuality;shape-rendering:geometricPrecision;text-rendering:geometricPrecision" /><g
       id="g4981"
       style="clip-rule:evenodd;fill:#ffffff;fill-rule:evenodd;image-rendering:optimizeQuality;shape-rendering:geometricPrecision;text-rendering:geometricPrecision"
       transform="translate(-6.2358524,6.8002876)"><text
   xml:space="preserve"
   style="font-style:normal;font-weight:normal;font-size:3.52777767px;line-height:125%;font-family:sans-serif;letter-spacing:0px;word-spacing:0px;fill:#ffffff;fill-opacity:1;stroke:none;stroke-width:1px;stroke-linecap:butt;stroke-linejoin:miter;stroke-opacity:1"
   x="122.37383"
   y="61.994377"
   id="text4553"><tspan
     id="tspan4555"
     x="122.37383"
     y="61.994377"
     style="font-style:normal;font-variant:normal;font-weight:bold;font-stretch:normal;font-size:3.17499995px;font-family:sans-serif;-inkscape-font-specification:'sans-serif Bold';fill:#ffffff">Calculation</tspan></text>

<text
   xml:space="preserve"
   style="font-style:normal;font-weight:normal;font-size:2.82222223px;line-height:125%;font-family:sans-serif;letter-spacing:0px;word-spacing:0px;fill:#ffffff;fill-opacity:1;stroke:none;stroke-width:1px;stroke-linecap:butt;stroke-linejoin:miter;stroke-opacity:1"
   x="126.59018"
   y="66.981956"
   id="text4742"><tspan
     id="tspan4744"
     x="126.59018"
     y="66.981956"
     style="font-size:2.11666679px;fill:#ffffff">-Own Costcentres</tspan><tspan
     x="126.59018"
     y="69.627792"
     id="tspan4746"
     style="font-size:2.11666679px;fill:#ffffff">          -Material cost calculator</tspan><tspan
     x="126.59018"
     y="72.273621"
     id="tspan4748"
     style="font-size:2.11666679px;fill:#ffffff">                    -Save calculations</tspan></text>

</g><circle
       style="clip-rule:evenodd;fill:#474747;fill-opacity:1;fill-rule:evenodd;stroke:#474747;stroke-width:1;stroke-opacity:1;image-rendering:optimizeQuality;shape-rendering:geometricPrecision;text-rendering:geometricPrecision"
       id="circle10"
       r="25"
       cy="138.63628"
       cx="99.235138"
       class="fil0 str0" /><g
       transform="translate(-5.7088324,3.9423376)"
       id="g4938"
       style="clip-rule:evenodd;fill-rule:evenodd;image-rendering:optimizeQuality;shape-rendering:geometricPrecision;text-rendering:geometricPrecision"><g
         id="g9"
         transform="matrix(0.20227071,0,0,0.20227071,84.882113,125.29898)"><polygon
           style="fill:#f47721"
           id="polygon11"
           points="1.057,23.364 32.79,23.364 46.942,0.636 15.209,0.636 " /><circle
           style="fill:#ffffff"
           id="circle13"
           r="4.073"
           cy="11.999"
           cx="23.999001" /></g><path
         style="fill:#ffffff"
         id="path17"
         d="m 94.536274,125.42016 0.765193,0 c 0.510123,0 0.855398,0.0196 1.03623,0.0591 0.180832,0.0395 0.327879,0.13998 0.441756,0.30179 0.113878,0.16182 0.17072,0.41991 0.17072,0.77429 0,0.32363 -0.04028,0.54108 -0.120758,0.65232 -0.0805,0.11126 -0.238879,0.178 -0.475134,0.20026 0.214002,0.0532 0.357816,0.12398 0.431443,0.21319 0.07362,0.0888 0.11934,0.17072 0.137343,0.24535 0.01799,0.0742 0.02687,0.27933 0.02687,0.6147 l 0,1.09671 -1.004071,0 0,-1.38151 c 0,-0.2229 -0.01763,-0.36024 -0.05261,-0.41364 -0.03497,-0.053 -0.12703,-0.0795 -0.276097,-0.0795 l 0,1.87464 -1.081139,0 0,-4.15767 z m 1.081139,0.71118 0,0.92438 c 0.121561,0 0.206719,-0.0166 0.255463,-0.0501 0.04873,-0.0332 0.07322,-0.1416 0.07322,-0.32465 l 0,-0.22856 c 0,-0.13168 -0.02343,-0.21826 -0.07059,-0.25932 -0.04716,-0.0411 -0.1333,-0.0618 -0.2581,-0.0618 z" /><path
         style="fill:#ffffff"
         id="path19"
         d="m 99.237449,125.42016 0.618138,4.15747 -1.104803,0 -0.05803,-0.7474 -0.386742,0 -0.06493,0.7474 -1.117748,0 0.551391,-4.15747 1.56275,0 z m -0.573037,2.67321 c -0.05479,-0.47089 -0.109624,-1.05302 -0.164646,-1.74621 -0.110037,0.79614 -0.179414,1.37807 -0.20753,1.74621 l 0.372176,0 z" /><path
         style="fill:#ffffff"
         id="path21"
         d="m 100.03925,125.42016 1.08883,0 c 0.2945,0 0.52085,0.0231 0.67902,0.0694 0.15838,0.0463 0.27732,0.11308 0.35721,0.20025 0.0795,0.0874 0.1335,0.19297 0.16162,0.31716 0.0285,0.1242 0.0425,0.31636 0.0425,0.57648 l 0,0.36207 c 0,0.26537 -0.0275,0.45894 -0.0822,0.5803 -0.0548,0.12157 -0.15554,0.21481 -0.30158,0.27995 -0.14665,0.0647 -0.33779,0.0975 -0.57404,0.0975 l -0.29026,0 0,1.67419 -1.08115,0 0,-4.15727 z m 1.08114,0.71118 0,1.05787 c 0.0308,0.002 0.0573,0.003 0.0797,0.003 0.0993,0 0.16829,-0.0243 0.20652,-0.0732 0.0386,-0.0485 0.0578,-0.15009 0.0578,-0.30421 l 0,-0.34144 c 0,-0.14199 -0.0222,-0.23443 -0.0667,-0.27731 -0.0445,-0.0429 -0.13694,-0.0643 -0.27732,-0.0643 z" /><path
         style="fill:#ffffff"
         id="path23"
         d="m 103.76002,125.42016 0,4.15747 -1.08113,0 0,-4.15747 1.08113,0 z" /><path
         style="fill:#ffffff"
         id="path25"
         d="m 104.19409,125.42016 0.80889,0 c 0.52205,0 0.87522,0.0241 1.05929,0.0718 0.18386,0.0479 0.32404,0.12662 0.41971,0.23625 0.0957,0.10963 0.15595,0.23161 0.17982,0.36591 0.0239,0.13451 0.036,0.39867 0.036,0.79229 l 0,1.45595 c 0,0.3734 -0.0176,0.62299 -0.0528,0.74861 -0.035,0.126 -0.0963,0.22431 -0.18345,0.29551 -0.0874,0.0708 -0.1952,0.12055 -0.32364,0.14887 -0.12844,0.0281 -0.32181,0.0423 -0.58031,0.0423 l -1.36351,0 0,-4.15747 z m 1.08114,0.71118 0,2.7347 c 0.15595,0 0.25162,-0.0312 0.28763,-0.0937 0.036,-0.0625 0.054,-0.2322 0.054,-0.50972 l 0,-1.61514 c 0,-0.18831 -0.006,-0.30886 -0.018,-0.36205 -0.0121,-0.0532 -0.0392,-0.0921 -0.0821,-0.11692 -0.0431,-0.0247 -0.12337,-0.0372 -0.24151,-0.0372 z" /><path
         style="fill:#f47721"
         id="path27"
         d="m 107.10093,125.42016 1.83095,0 0,0.83194 -0.74981,0 0,0.78825 0.66769,0 0,0.79107 -0.66769,0 0,1.74621 -1.08114,0 0,-4.15747 z" /><path
         style="fill:#f47721"
         id="path29"
         d="m 110.95742,125.42016 0.61814,4.15747 -1.1048,0 -0.0578,-0.7474 -0.38674,0 -0.0649,0.7474 -1.11774,0 0.55159,-4.15747 1.56233,0 z m -0.57303,2.67321 c -0.0548,-0.47089 -0.10963,-1.05302 -0.16465,-1.74621 -0.11003,0.79614 -0.17921,1.37807 -0.20732,1.74621 l 0.37197,0 z" /><path
         style="fill:#f47721"
         id="path31"
         d="m 114.28336,127.2589 -1.08114,0 0,-0.71408 c 0,-0.2077 -0.0115,-0.33724 -0.0348,-0.38863 -0.0229,-0.0516 -0.0739,-0.0774 -0.15272,-0.0774 -0.089,0 -0.14564,0.0312 -0.1695,0.094 -0.0239,0.0628 -0.036,0.19791 -0.036,0.40601 l 0,1.90855 c 0,0.1995 0.0121,0.32984 0.036,0.39082 0.0238,0.061 0.0778,0.0914 0.16182,0.0914 0.0803,0 0.13309,-0.0304 0.15797,-0.0918 0.0247,-0.061 0.0372,-0.2041 0.0372,-0.4298 l 0,-0.51657 1.08115,0 0,0.16013 c 0,0.4256 -0.0303,0.72707 -0.091,0.90499 -0.0609,0.17773 -0.19518,0.33385 -0.40333,0.46778 -0.20773,0.13356 -0.4642,0.20072 -0.76903,0.20072 -0.31655,0 -0.57769,-0.0565 -0.78319,-0.17033 -0.20551,-0.11315 -0.34144,-0.27027 -0.40839,-0.47059 -0.0667,-0.2007 -0.10012,-0.50216 -0.10012,-0.90498 l 0,-1.20026 c 0,-0.29607 0.0103,-0.51817 0.0308,-0.6661 0.0207,-0.14813 0.0818,-0.29067 0.18365,-0.4278 0.10175,-0.13714 0.24293,-0.2449 0.42356,-0.32366 0.18082,-0.0788 0.38836,-0.11795 0.62279,-0.11795 0.31836,0 0.58112,0.0608 0.78825,0.18252 0.20712,0.12155 0.34325,0.27328 0.40838,0.4548 0.0649,0.18171 0.0975,0.46419 0.0975,0.84781 l 0,0.39043 z" /><path
         style="fill:#f47721"
         id="path33"
         d="m 116.84856,125.42016 0,0.83194 -0.64201,0 0,3.32553 -1.08113,0 0,-3.32553 -0.63939,0 0,-0.83194 2.36253,0 z" /><path
         style="fill:#f47721"
         id="path35"
         d="m 119.55272,125.42016 0,2.77838 c 0,0.31535 -0.0103,0.53643 -0.0308,0.66406 -0.0207,0.12723 -0.0813,0.2583 -0.18224,0.39261 -0.10094,0.13431 -0.23404,0.23625 -0.39949,0.30584 -0.16506,0.0692 -0.35985,0.10396 -0.58416,0.10396 -0.24839,0 -0.46745,-0.0411 -0.65737,-0.12319 -0.18994,-0.0821 -0.33213,-0.18932 -0.42619,-0.3212 -0.0942,-0.13147 -0.14968,-0.27063 -0.16688,-0.41728 -0.0173,-0.14624 -0.0256,-0.4539 -0.0256,-0.92317 l 0,-2.46001 1.08113,0 0,3.11739 c 0,0.18164 0.01,0.29754 0.0295,0.34811 0.0198,0.0506 0.0598,0.0759 0.11954,0.0759 0.0686,0 0.11267,-0.0281 0.13208,-0.0834 0.0198,-0.0557 0.0295,-0.18731 0.0295,-0.39422 l 0,-3.0638 1.08094,0 z" /><path
         style="fill:#f47721"
         id="path37"
         d="m 119.97121,125.42016 0.76519,0 c 0.51013,0 0.8554,0.0196 1.03624,0.0591 0.18062,0.0395 0.32768,0.13998 0.44175,0.30179 0.11388,0.16182 0.17073,0.41991 0.17073,0.77429 0,0.32363 -0.0403,0.54108 -0.12077,0.65232 -0.0805,0.11126 -0.23888,0.178 -0.47513,0.20026 0.214,0.0532 0.35782,0.12398 0.43145,0.21319 0.0737,0.0888 0.11933,0.17072 0.13753,0.24535 0.0178,0.0742 0.0269,0.27933 0.0269,0.6147 l 0,1.09671 -1.00407,0 0,-1.38151 c 0,-0.2229 -0.0175,-0.36024 -0.0528,-0.41364 -0.035,-0.053 -0.12704,-0.0795 -0.2759,-0.0795 l 0,1.87464 -1.08114,0 0,-4.15767 z m 1.08114,0.71118 0,0.92438 c 0.12157,0 0.20671,-0.0166 0.25546,-0.0501 0.049,-0.0332 0.0732,-0.1416 0.0732,-0.32465 l 0,-0.22856 c 0,-0.13168 -0.0234,-0.21826 -0.0706,-0.25932 -0.0472,-0.0411 -0.1331,-0.0618 -0.2581,-0.0618 z" /><path
         style="fill:#f47721"
         id="path39"
         d="m 122.80361,125.42016 1.80264,0 0,0.83194 -0.72151,0 0,0.78825 0.67539,0 0,0.79107 -0.67539,0 0,0.91427 0.79351,0 0,0.83194 -1.87464,0 0,-4.15747 z" /></g><g
       id="g5077"
       style="clip-rule:evenodd;fill-rule:evenodd;image-rendering:optimizeQuality;shape-rendering:geometricPrecision;text-rendering:geometricPrecision"
       transform="translate(-6.2358524,6.8002876)"><text
   xml:space="preserve"
   style="font-style:normal;font-weight:normal;font-size:2.14600682px;line-height:125%;font-family:sans-serif;letter-spacing:0px;word-spacing:0px;fill:#000000;fill-opacity:1;stroke:none;stroke-width:1px;stroke-linecap:butt;stroke-linejoin:miter;stroke-opacity:1"
   x="99.790726"
   y="134.32799"
   id="text4934"><tspan
     id="tspan4936"
     x="99.790726"
     y="134.32799"
     style="font-style:normal;font-variant:normal;font-weight:bold;font-stretch:normal;font-size:3.52777791px;font-family:sans-serif;-inkscape-font-specification:'sans-serif Bold';fill:#ffffff">Login</tspan></text>

<text
   xml:space="preserve"
   style="font-style:normal;font-weight:normal;font-size:2.82222223px;line-height:125%;font-family:sans-serif;letter-spacing:0px;word-spacing:0px;fill:#000000;fill-opacity:1;stroke:none;stroke-width:1px;stroke-linecap:butt;stroke-linejoin:miter;stroke-opacity:1"
   x="95.038788"
   y="139.16107"
   id="text4649"><tspan
     id="tspan4651"
     x="95.038788"
     y="139.16107"
     style="font-size:2.11666679px;fill:#ffffff">-Profile</tspan><tspan
     x="95.038788"
     y="141.8069"
     id="tspan4655"
     style="font-size:2.11666679px;fill:#ffffff">-Accounts, User</tspan><tspan
     x="95.038788"
     y="144.45274"
     id="tspan4659"
     style="font-size:2.11666679px;fill:#ffffff">-IT-administration</tspan><tspan
     x="95.038788"
     y="147.09857"
     id="tspan4661"
     style="font-size:2.11666679px;fill:#ffffff">-Backup</tspan></text>

</g><circle
       style="clip-rule:evenodd;fill:none;fill-opacity:1;fill-rule:evenodd;stroke:#f47721;stroke-width:1;stroke-opacity:1;image-rendering:optimizeQuality;shape-rendering:geometricPrecision;text-rendering:geometricPrecision"
       id="circle10-5"
       r="25"
       cy="138.62605"
       cx="99.244148"
       class="fil0 str0" /><circle
       style="clip-rule:evenodd;fill:none;fill-opacity:1;fill-rule:evenodd;stroke:#f47721;stroke-width:1;stroke-opacity:1;image-rendering:optimizeQuality;shape-rendering:geometricPrecision;text-rendering:geometricPrecision"
       id="circle10-5-3"
       r="25"
       cy="138.69197"
       cx="99.148109"
       class="fil0 str0" /><text
       id="text3889"
       y="101.7469"
       x="55.815617"
       style="font-style:normal;font-weight:normal;font-size:10.58333302px;line-height:1.25;font-family:sans-serif;letter-spacing:0px;word-spacing:0px;fill:#000000;fill-opacity:1;stroke:none;stroke-width:0.26458332"
       xml:space="preserve"><tspan
         id="tspan3897"
         style="font-size:3.17499995px;line-height:0;fill:#ffffff;stroke-width:0.26458332"
         y="111.11067"
         x="55.815617" /></text>
<flowRoot
       transform="matrix(0.26458333,0,0,0.26458333,8.6298525,58.083033)"
       style="font-style:normal;font-weight:normal;font-size:40px;line-height:1.25;font-family:sans-serif;letter-spacing:0px;word-spacing:0px;fill:#000000;fill-opacity:1;stroke:none"
       id="flowRoot3927"
       xml:space="preserve"><flowRegion
         id="flowRegion3929"><rect
           y="282.22058"
           x="-103.43832"
           height="116.84698"
           width="141.74879"
           id="rect3931" /></flowRegion><flowPara
         id="flowPara3937" /></flowRoot><flowRoot
       style="fill:black;fill-opacity:1;stroke:none;font-family:sans-serif;font-style:normal;font-weight:normal;font-size:40px;line-height:1.25;letter-spacing:0px;word-spacing:0px"
       id="flowRoot3944"
       xml:space="preserve"><flowRegion
         id="flowRegion3946"><rect
           y="274.5585"
           x="-194.74498"
           height="151.32642"
           width="178.14377"
           id="rect3948" /></flowRegion><flowPara
         id="flowPara3950"></flowPara></flowRoot><text
       transform="scale(0.95689651,1.0450451)"
       id="text3954"
       y="110.75095"
       x="61.340408"
       style="font-style:normal;font-weight:normal;font-size:2.52860379px;line-height:1.25;font-family:sans-serif;letter-spacing:0px;word-spacing:0px;fill:#000000;fill-opacity:1;stroke:none;stroke-width:0.0632151"
       xml:space="preserve"><tspan
         style="fill:#ffffff;stroke-width:0.0632151"
         y="110.75095"
         x="61.340408"
         id="tspan3952">  -Dashboard</tspan><tspan
         id="tspan3956"
         style="fill:#ffffff;stroke-width:0.0632151"
         y="113.9117"
         x="61.340408"> -Statistic</tspan><tspan
         id="tspan3958"
         style="fill:#ffffff;stroke-width:0.0632151"
         y="117.07246"
         x="61.340408">-Costing</tspan></text>
</g></svg>