<?xml version="1.0" encoding="UTF-8" standalone="no"?>
<svg
   xmlns:dc="http://purl.org/dc/elements/1.1/"
   xmlns:cc="http://creativecommons.org/ns#"
   xmlns:rdf="http://www.w3.org/1999/02/22-rdf-syntax-ns#"
   xmlns:svg="http://www.w3.org/2000/svg"
   xmlns="http://www.w3.org/2000/svg"
   xmlns:sodipodi="http://sodipodi.sourceforge.net/DTD/sodipodi-0.dtd"
   xmlns:inkscape="http://www.inkscape.org/namespaces/inkscape"
   width="694.799"
   height="739"
   version="1.1"
   id="svg4"
   sodipodi:docname="contour-turning.svg"
   inkscape:version="0.92.3 (2405546, 2018-03-11)">
  <metadata
     id="metadata10">
    <rdf:RDF>
      <cc:Work
         rdf:about="">
        <dc:format>image/svg+xml</dc:format>
        <dc:type
           rdf:resource="http://purl.org/dc/dcmitype/StillImage" />
        <dc:title></dc:title>
      </cc:Work>
    </rdf:RDF>
  </metadata>
  <defs
     id="defs8" />
  <sodipodi:namedview
     pagecolor="#ffffff"
     bordercolor="#666666"
     borderopacity="1"
     objecttolerance="10"
     gridtolerance="10"
     guidetolerance="10"
     inkscape:pageopacity="0"
     inkscape:pageshadow="2"
     inkscape:window-width="1920"
     inkscape:window-height="1025"
     id="namedview6"
     showgrid="false"
     inkscape:pagecheckerboard="true"
     inkscape:zoom="0.31935047"
     inkscape:cx="-252.25516"
     inkscape:cy="369.5"
     inkscape:window-x="0"
     inkscape:window-y="0"
     inkscape:window-maximized="1"
     inkscape:current-layer="svg4" />
  <path
     d="M0 630V521h71V218H0V0h112v73h71v75h70v69h104.978l.26 40.75.262 40.75h24.952l6.524-53.203c3.588-29.262 6.974-53.645 7.524-54.185 1.382-1.357 102.727-47.219 103.23-46.715.661.66-12.608 106.882-13.455 107.713-.426.419-23.27 10.948-50.766 23.4-27.495 12.451-50.198 22.845-50.45 23.098-.83.83 93.216.267 103.45-.62 15.105-1.31 34.256-8.13 44.266-15.765l3.285-2.506-7.28-4.674c-8.843-5.679-13.095-10.38-17.177-18.996-2.714-5.725-3.103-7.614-3.103-15.047 0-7.298.398-9.311 2.818-14.239 9.503-19.352 34.252-21.974 52.24-5.534 7.937 7.254 11.717 15.496 12.254 26.716.378 7.909.145 9.34-2.563 15.786l-2.979 7.09 2.615.61c6.1 1.424 28.113 1.801 36.188.62 28.235-4.128 51.713-19.08 61.956-39.459 1.634-3.25 2.971-6.902 2.971-8.115 0-4.48-6.99-10.48-12.2-10.471-1.265.002-3.773.902-5.574 2-1.8 1.098-3.659 1.996-4.129 1.996-.47 0-3.422-3.41-6.559-7.579-6.533-8.68-6.62-8.35 3.442-13.16 7.909-3.78 18.267-3.746 26.21.084 11.937 5.756 19.812 18.545 18.458 29.976-.754 6.367-6.875 19.213-13.035 27.356-14.559 19.245-41.225 33.396-70.4 37.356-12.42 1.686-33.995.729-45.086-2l-8.373-2.061-4.138 3.815c-12.263 11.303-31.63 20.69-50.72 24.584l-6.396 1.304-.258 61.163-.257 61.162H358v82H253v67.974l-34.75.263-34.75.263-.262 37.237-.262 37.237-35.238.263-35.238.263-.262 36.75-.263 36.75H0V630zm338-261.004V235.992l-123.25.254-123.25.254-.254 132.75L90.993 502H338V368.996zm138 .603v-50.402l-11.25-.655c-6.188-.361-32.625-.518-58.75-.349l-47.5.307-.26 50.75-.258 50.75H476v-50.401zm78.483-110.566c4.693-9.26 2.515-19.124-5.505-24.934-9.72-7.041-19.978-3.379-19.978 7.132 0 4.429 3.624 11.38 7.457 14.304 3.48 2.654 13.56 8.417 14.776 8.447.403.01 1.866-2.217 3.25-4.949zm-107.167-25.158c9.303-4.791 11.103-15.98 3.588-22.302-8.688-7.311-21.904-1.22-21.904 10.094 0 8.953 10.739 16.11 18.316 12.208zm67.207-37.53c4.187-32.87 10.16-82.92 9.928-83.186-.165-.187-22.858 9.876-50.43 22.362-27.573 12.486-50.271 22.539-50.441 22.34-.17-.198 1.411-34.111 3.515-75.361 2.103-41.25 3.842-76.687 3.864-78.75L431 0h127.276l-.582 5.25c-.32 2.888-4.008 44.4-8.196 92.25-4.187 47.85-7.925 87.591-8.305 88.314-.381.723-6.676 4.478-13.99 8.344l-13.297 7.031.618-4.844z"
     id="path2"
     style="fill:#ffffff;fill-opacity:1" />
</svg>
