<svg xmlns="http://www.w3.org/2000/svg" viewBox="0 0 253.929 469.672">
  <g id="facebook" transform="translate(-22.077)">
    <path id="Path_12" data-name="Path 12" d="M266.443.1,205.537,0C137.112,0,92.892,45.368,92.892,115.587V168.88H31.654a9.578,9.578,0,0,0-9.577,9.582v77.216a9.577,9.577,0,0,0,9.577,9.577H92.892V460.1a9.574,9.574,0,0,0,9.577,9.577h79.9a9.577,9.577,0,0,0,9.577-9.577V265.255h71.6a9.574,9.574,0,0,0,9.577-9.577l.029-77.216a9.584,9.584,0,0,0-9.582-9.582H191.944V123.7c0-21.714,5.174-32.737,33.46-32.737l41.029-.015a9.576,9.576,0,0,0,9.572-9.577V9.675A9.58,9.58,0,0,0,266.443.1Z" transform="translate(0)"/>
  </g>
</svg>
