<svg xmlns="http://www.w3.org/2000/svg" viewBox="0 0 588 588">
  <path id="fax" d="M234.749,582.026A292.406,292.406,0,0,1,129.622,537.79,294.872,294.872,0,0,1,23.1,408.438,292.541,292.541,0,0,1,5.973,353.252a296.856,296.856,0,0,1,0-118.5A292.386,292.386,0,0,1,50.211,129.622,294.859,294.859,0,0,1,179.563,23.1,292.541,292.541,0,0,1,234.749,5.973a296.856,296.856,0,0,1,118.5,0A292.373,292.373,0,0,1,458.378,50.211,294.839,294.839,0,0,1,564.9,179.563a292.54,292.54,0,0,1,17.131,55.186,296.858,296.858,0,0,1,0,118.5A292.393,292.393,0,0,1,537.79,458.378,294.853,294.853,0,0,1,408.438,564.9a292.561,292.561,0,0,1-55.186,17.131,296.858,296.858,0,0,1-118.5,0ZM21,294c0,150.532,122.468,273,273,273S567,444.533,567,294,444.533,21,294,21,21,143.467,21,294ZM128,435V344H460v91Zm290.043-91.348H406.206V222.712H341.1a5.925,5.925,0,0,1-5.918-5.918V151.687H181.293V343.651H169.5l.058-203.8H341.1a.7.7,0,0,1,.176.029.541.541,0,0,0,.131.023.194.194,0,0,0,.041,0,5.807,5.807,0,0,1,1.492.3l.171.054a3.326,3.326,0,0,1,.42.153,5.728,5.728,0,0,1,1.729,1.183l71.024,71.024a5.892,5.892,0,0,1,1.184,1.734.007.007,0,0,1,0,.006c-.056.089-2.395.178-4.657.265-2.312.088-4.7.18-4.765.274a0,0,0,0,0,0,.005c.083.244,2.4.486,4.86.743,2.482.259,5.048.528,5.065.8a.77.77,0,0,0,.036.171.677.677,0,0,1,.036.191V343.651h0ZM347.018,210.874h50.819l-50.819-50.818Z"/>
</svg>
