<?xml version="1.0" encoding="UTF-8" standalone="no"?>
<!-- Generator: Adobe Illustrator 16.0.0, SVG Export Plug-In . SVG Version: 6.00 Build 0)  -->

<svg
   xmlns:osb="http://www.openswatchbook.org/uri/2009/osb"
   xmlns:dc="http://purl.org/dc/elements/1.1/"
   xmlns:cc="http://creativecommons.org/ns#"
   xmlns:rdf="http://www.w3.org/1999/02/22-rdf-syntax-ns#"
   xmlns:svg="http://www.w3.org/2000/svg"
   xmlns="http://www.w3.org/2000/svg"
   xmlns:xlink="http://www.w3.org/1999/xlink"
   xmlns:sodipodi="http://sodipodi.sourceforge.net/DTD/sodipodi-0.dtd"
   xmlns:inkscape="http://www.inkscape.org/namespaces/inkscape"
   version="1.1"
   id="Layer_1"
   x="0px"
   y="0px"
   width="244.90199"
   height="59.75"
   viewBox="0 0 244.902 59.75"
   enable-background="new 0 0 212.902 23.75"
   xml:space="preserve"
   sodipodi:docname="logo_motto_de.svg"
   inkscape:version="0.92.3 (2405546, 2018-03-11)"><metadata
   id="metadata55"><rdf:RDF><cc:Work
       rdf:about=""><dc:format>image/svg+xml</dc:format><dc:type
         rdf:resource="http://purl.org/dc/dcmitype/StillImage" /><dc:title /></cc:Work></rdf:RDF></metadata><defs
   id="defs53"><linearGradient
     id="linearGradient893-3"
     inkscape:collect="always"><stop
       id="stop897"
       offset="0"
       style="stop-color:#000000;stop-opacity:0.412" /><stop
       id="stop899"
       offset="1"
       style="stop-color:#000000;stop-opacity:0;" /></linearGradient><linearGradient
     id="linearGradient2368"
     osb:paint="solid"><stop
       style="stop-color:#000000;stop-opacity:1;"
       offset="0"
       id="stop2366" /></linearGradient><linearGradient
     id="linearGradient2355"
     osb:paint="solid"><stop
       style="stop-color:#ffffff;stop-opacity:1;"
       offset="0"
       id="stop2353" /></linearGradient><linearGradient
     inkscape:collect="always"
     xlink:href="#linearGradient2368"
     id="linearGradient2370"
     x1="-289.75165"
     y1="-145.78966"
     x2="-41.55574"
     y2="-145.78966"
     gradientUnits="userSpaceOnUse" /><linearGradient
     inkscape:collect="always"
     xlink:href="#linearGradient893-3"
     id="linearGradient917"
     x1="111.00614"
     y1="25.298544"
     x2="229.19231"
     y2="24.694756"
     gradientUnits="userSpaceOnUse"
     spreadMethod="reflect"
     gradientTransform="translate(16.503536,5.169697)" /></defs><sodipodi:namedview
   pagecolor="#ffffff"
   bordercolor="#666666"
   borderopacity="1"
   objecttolerance="10"
   gridtolerance="10"
   guidetolerance="10"
   inkscape:pageopacity="0"
   inkscape:pageshadow="2"
   inkscape:window-width="1920"
   inkscape:window-height="1025"
   id="namedview51"
   showgrid="false"
   inkscape:pagecheckerboard="true"
   inkscape:zoom="4.9686324"
   inkscape:cx="82.014147"
   inkscape:cy="33.614356"
   inkscape:window-x="0"
   inkscape:window-y="0"
   inkscape:window-maximized="1"
   inkscape:current-layer="Layer_1"
   inkscape:snap-text-baseline="false" />
<rect
   style="opacity:0.56000001;fill:url(#linearGradient917);fill-opacity:1;fill-rule:evenodd;stroke:none;stroke-width:7.42191792;stroke-linecap:round;stroke-linejoin:round;stroke-miterlimit:4;stroke-dasharray:none;stroke-opacity:1;paint-order:fill markers stroke"
   id="rect2372"
   width="244.78036"
   height="60.356804"
   x="0.91548252"
   y="-0.31394702"
   ry="0" /><g
   display="none"
   id="g6"
   style="display:none"
   transform="translate(0,36)">
	<polygon
   display="inline"
   points="0,43.814 42.793,43.814 61.875,13.165 19.083,13.165 "
   id="polygon2"
   style="display:inline;fill:#f47721" />
	<circle
   display="inline"
   cx="30.938"
   cy="28.488001"
   r="5.494"
   id="circle4"
   style="display:inline;fill:#ffffff" />
</g>
<g
   id="g12"
   transform="translate(60.004869,-165.01989)">
	<polygon
   points="1.057,23.364 32.79,23.364 46.942,0.636 15.209,0.636 "
   id="polygon8"
   style="fill:#f47721" />
	<circle
   cx="23.999001"
   cy="11.999"
   r="4.073"
   id="circle10"
   style="fill:#ffffff" />
</g>
<g
   id="g38"
   transform="translate(60.004869,-165.01989)">
	<path
   d="m 46.951,1.657 h 3.783 c 2.522,0 4.229,0.097 5.123,0.292 0.894,0.195 1.621,0.692 2.184,1.492 0.563,0.8 0.844,2.076 0.844,3.828 0,1.6 -0.199,2.675 -0.597,3.225 -0.398,0.55 -1.181,0.88 -2.349,0.99 1.058,0.263 1.769,0.613 2.133,1.054 0.364,0.439 0.59,0.844 0.679,1.213 0.089,0.367 0.133,1.381 0.133,3.039 v 5.422 H 53.92 v -6.83 c 0,-1.102 -0.087,-1.781 -0.26,-2.045 -0.173,-0.262 -0.628,-0.393 -1.365,-0.393 v 9.268 H 46.95 V 1.657 Z m 5.345,3.516 v 4.57 c 0.601,0 1.022,-0.082 1.263,-0.248 0.241,-0.164 0.362,-0.7 0.362,-1.605 V 6.76 C 53.921,6.109 53.805,5.681 53.572,5.478 53.339,5.275 52.913,5.173 52.296,5.173 Z"
   id="path14"
   inkscape:connector-curvature="0"
   style="fill:#ffffff" />
	<path
   d="m 70.193,1.657 3.056,20.554 H 67.787 L 67.5,18.516 h -1.912 l -0.321,3.695 H 59.741 L 62.467,1.657 Z M 67.36,14.873 C 67.089,12.545 66.818,9.667 66.546,6.24 c -0.544,3.936 -0.887,6.813 -1.026,8.633 z"
   id="path16"
   inkscape:connector-curvature="0"
   style="fill:#ffffff" />
	<path
   d="m 74.157,1.657 h 5.383 c 1.456,0 2.575,0.114 3.357,0.343 0.783,0.229 1.371,0.559 1.766,0.99 0.393,0.432 0.66,0.954 0.799,1.568 0.141,0.614 0.21,1.564 0.21,2.85 v 1.79 c 0,1.312 -0.136,2.269 -0.406,2.869 -0.271,0.601 -0.769,1.062 -1.491,1.384 -0.725,0.32 -1.67,0.482 -2.838,0.482 h -1.435 v 8.277 h -5.345 z m 5.345,3.516 v 5.23 c 0.152,0.009 0.283,0.013 0.394,0.013 0.491,0 0.832,-0.12 1.021,-0.362 0.191,-0.24 0.286,-0.742 0.286,-1.504 V 6.862 c 0,-0.702 -0.11,-1.159 -0.33,-1.371 -0.22,-0.212 -0.677,-0.318 -1.371,-0.318 z"
   id="path18"
   inkscape:connector-curvature="0"
   style="fill:#ffffff" />
	<path
   d="M 92.552,1.657 V 22.211 H 87.207 V 1.657 Z"
   id="path20"
   inkscape:connector-curvature="0"
   style="fill:#ffffff" />
	<path
   d="m 94.698,1.657 h 3.999 c 2.581,0 4.327,0.119 5.237,0.355 0.909,0.237 1.602,0.626 2.075,1.168 0.473,0.542 0.771,1.145 0.889,1.809 0.118,0.665 0.178,1.971 0.178,3.917 v 7.198 c 0,1.846 -0.087,3.08 -0.261,3.701 -0.173,0.623 -0.476,1.109 -0.907,1.461 -0.432,0.35 -0.965,0.596 -1.6,0.736 -0.635,0.139 -1.591,0.209 -2.869,0.209 h -6.741 z m 5.345,3.516 v 13.52 c 0.771,0 1.244,-0.154 1.422,-0.463 0.178,-0.309 0.267,-1.148 0.267,-2.52 V 7.725 c 0,-0.931 -0.029,-1.527 -0.089,-1.79 -0.06,-0.263 -0.194,-0.455 -0.406,-0.578 -0.213,-0.122 -0.61,-0.184 -1.194,-0.184 z"
   id="path22"
   inkscape:connector-curvature="0"
   style="fill:#ffffff" />
	<path
   d="m 109.069,1.657 h 9.052 V 5.77 h -3.707 v 3.897 h 3.301 v 3.911 h -3.301 v 8.633 h -5.345 z"
   id="path24"
   inkscape:connector-curvature="0"
   style="fill:#f47721" />
	<path
   d="m 128.135,1.657 3.056,20.554 h -5.462 l -0.286,-3.695 h -1.912 l -0.321,3.695 h -5.526 l 2.727,-20.554 z m -2.833,13.216 c -0.271,-2.328 -0.542,-5.206 -0.814,-8.633 -0.544,3.936 -0.886,6.813 -1.025,8.633 z"
   id="path26"
   inkscape:connector-curvature="0"
   style="fill:#f47721" />
	<path
   d="m 144.578,10.607 h -5.345 V 7.035 c 0,-1.039 -0.057,-1.687 -0.172,-1.944 -0.113,-0.258 -0.365,-0.387 -0.755,-0.387 -0.44,0 -0.72,0.156 -0.838,0.47 -0.118,0.314 -0.178,0.99 -0.178,2.031 v 9.547 c 0,0.998 0.06,1.65 0.178,1.955 0.118,0.305 0.385,0.457 0.8,0.457 0.397,0 0.658,-0.152 0.781,-0.459 0.122,-0.305 0.184,-1.021 0.184,-2.15 v -2.584 h 5.345 v 0.801 c 0,2.129 -0.15,3.637 -0.45,4.527 -0.301,0.889 -0.965,1.67 -1.994,2.34 -1.027,0.668 -2.295,1.004 -3.802,1.004 -1.565,0 -2.856,-0.283 -3.872,-0.852 -1.016,-0.566 -1.688,-1.352 -2.019,-2.354 -0.33,-1.004 -0.495,-2.512 -0.495,-4.527 V 8.906 c 0,-1.481 0.051,-2.592 0.152,-3.332 0.102,-0.741 0.404,-1.454 0.908,-2.14 0.503,-0.686 1.201,-1.225 2.094,-1.619 0.894,-0.394 1.92,-0.59 3.079,-0.59 1.574,0 2.873,0.304 3.897,0.913 1.024,0.608 1.697,1.367 2.019,2.275 0.321,0.909 0.482,2.322 0.482,4.241 v 1.953 z"
   id="path28"
   inkscape:connector-curvature="0"
   style="fill:#f47721" />
	<path
   d="M 157.26,1.657 V 5.77 h -3.174 v 16.441 h -5.345 V 5.77 H 145.58 V 1.657 Z"
   id="path30"
   inkscape:connector-curvature="0"
   style="fill:#f47721" />
	<path
   d="m 170.629,1.657 v 13.736 c 0,1.559 -0.051,2.652 -0.152,3.283 -0.102,0.629 -0.402,1.277 -0.901,1.941 -0.499,0.664 -1.157,1.168 -1.975,1.512 -0.816,0.342 -1.779,0.514 -2.888,0.514 -1.228,0 -2.311,-0.203 -3.25,-0.609 -0.939,-0.406 -1.642,-0.936 -2.107,-1.588 -0.466,-0.65 -0.74,-1.338 -0.825,-2.063 -0.085,-0.723 -0.127,-2.244 -0.127,-4.564 V 1.657 h 5.345 v 15.412 c 0,0.898 0.049,1.471 0.146,1.721 0.098,0.25 0.295,0.375 0.591,0.375 0.339,0 0.557,-0.139 0.653,-0.412 0.098,-0.275 0.146,-0.926 0.146,-1.949 V 1.657 Z"
   id="path32"
   inkscape:connector-curvature="0"
   style="fill:#f47721" />
	<path
   d="m 172.698,1.657 h 3.783 c 2.522,0 4.229,0.097 5.123,0.292 0.893,0.195 1.62,0.692 2.184,1.492 0.563,0.8 0.844,2.076 0.844,3.828 0,1.6 -0.199,2.675 -0.597,3.225 -0.398,0.55 -1.181,0.88 -2.349,0.99 1.058,0.263 1.769,0.613 2.133,1.054 0.364,0.439 0.59,0.844 0.68,1.213 0.088,0.367 0.133,1.381 0.133,3.039 v 5.422 h -4.964 v -6.83 c 0,-1.102 -0.087,-1.781 -0.261,-2.045 -0.173,-0.262 -0.628,-0.393 -1.364,-0.393 v 9.268 h -5.345 z m 5.345,3.516 v 4.57 c 0.601,0 1.022,-0.082 1.263,-0.248 0.242,-0.164 0.362,-0.7 0.362,-1.605 V 6.76 c 0,-0.651 -0.116,-1.079 -0.349,-1.282 -0.233,-0.203 -0.658,-0.305 -1.276,-0.305 z"
   id="path34"
   inkscape:connector-curvature="0"
   style="fill:#f47721" />
	<path
   d="m 186.701,1.657 h 8.912 V 5.77 h -3.567 v 3.897 h 3.339 v 3.911 h -3.339 v 4.52 h 3.923 v 4.113 h -9.268 z"
   id="path36"
   inkscape:connector-curvature="0"
   style="fill:#f47721" />
</g>
<rect
   x="69.150757"
   y="9.7053576"
   width="151.01801"
   height="26.229"
   id="rect40"
   style="fill:none" />
<text
   display="none"
   id="text48"
   style="display:none"
   x="45.884499"
   y="58.210899"><tspan
     x="45.884499"
     y="58.210899"
     display="inline"
     font-size="26"
     id="tspan42"
     style="font-size:26px;font-family:Impact;display:inline;fill:#ffffff">rapid</tspan><tspan
     x="108.0025"
     y="58.210899"
     display="inline"
     font-size="26"
     id="tspan44"
     style="font-size:26px;font-family:Impact;display:inline;fill:#f47721">fac</tspan><tspan
     x="145.9485"
     y="58.210899"
     display="inline"
     font-size="26"
     id="tspan46"
     style="font-size:26px;font-family:Impact;display:inline;fill:#f47721">-</tspan></text>







<g
   aria-label="Einfach. Schnell. Zuverlässig."
   transform="matrix(0.32355535,0,0,0.32355535,165.75956,11.369137)"
   style="font-style:normal;font-variant:normal;font-weight:normal;font-stretch:normal;font-size:40.00016403px;line-height:1.25;font-family:sans-serif;-inkscape-font-specification:'sans-serif, Normal';font-variant-ligatures:normal;font-variant-caps:normal;font-variant-numeric:normal;font-feature-settings:normal;text-align:start;letter-spacing:0px;word-spacing:0px;writing-mode:lr-tb;text-anchor:start;fill:#666666;fill-opacity:1;stroke:none"
   id="flowRoot835"><path
     d="m -416.75389,87.859401 h 18.43758 v 3.320326 h -14.49225 v 8.632848 h 13.88677 v 3.320325 h -13.88677 v 10.56645 h 14.84381 v 3.32033 h -18.78914 z"
     id="path862"
     inkscape:connector-curvature="0"
     style="fill:#666666;fill-opacity:1" /><path
     d="m -391.59754,95.144587 h 3.59377 v 21.875093 h -3.59377 z m 0,-8.51566 h 3.59377 v 4.5508 h -3.59377 z"
     id="path864"
     inkscape:connector-curvature="0"
     style="fill:#666666;fill-opacity:1" /><path
     d="m -362.32007,103.8165 v 13.20318 h -3.59377 v -13.08599 q 0,-3.10549 -1.21094,-4.648461 -1.21094,-1.542975 -3.63283,-1.542975 -2.91017,0 -4.58986,1.855476 -1.6797,1.85548 -1.6797,5.05861 v 12.36334 h -3.61329 V 95.144587 h 3.61329 v 3.398451 q 1.28907,-1.972664 3.02736,-2.949231 1.75782,-0.976566 4.04299,-0.976566 3.76954,0 5.70314,2.343759 1.93361,2.324229 1.93361,6.8555 z"
     id="path866"
     inkscape:connector-curvature="0"
     style="fill:#666666;fill-opacity:1" /><path
     d="m -344.03875,86.628927 v 2.988293 h -3.43751 q -1.93361,0 -2.69533,0.781253 -0.74219,0.781254 -0.74219,2.812512 v 1.933602 h 5.91799 v 2.79298 h -5.91799 v 19.082113 h -3.61329 V 97.937567 h -3.43752 v -2.79298 h 3.43752 v -1.523444 q 0,-3.652359 1.69922,-5.312522 1.69923,-1.679694 5.39065,-1.679694 z"
     id="path868"
     inkscape:connector-curvature="0"
     style="fill:#666666;fill-opacity:1" /><path
     d="m -331.10901,106.02354 q -4.35548,0 -6.03518,0.9961 -1.67969,0.99609 -1.67969,3.39845 0,1.91407 1.25,3.04688 1.26954,1.11329 3.43752,1.11329 2.98829,0 4.78517,-2.10938 1.81642,-2.12892 1.81642,-5.64456 v -0.80078 z m 7.168,-1.48438 v 12.48052 h -3.59376 v -3.32033 q -1.23048,1.9922 -3.06642,2.94923 -1.83595,0.9375 -4.49221,0.9375 -3.35939,0 -5.35158,-1.875 -1.97267,-1.89454 -1.97267,-5.05862 0,-3.69142 2.46095,-5.56643 2.48048,-1.875 7.38284,-1.875 h 5.03909 v -0.35157 q 0,-2.48048 -1.64063,-3.828139 -1.6211,-1.367193 -4.57034,-1.367193 -1.875,0 -3.65235,0.449221 -1.77736,0.44922 -3.41799,1.347662 v -3.320326 q 1.97267,-0.761722 3.82814,-1.132818 1.85548,-0.390626 3.6133,-0.390626 4.74611,0 7.08987,2.460947 2.34376,2.460948 2.34376,7.460972 z"
     id="path870"
     inkscape:connector-curvature="0"
     style="fill:#666666;fill-opacity:1" /><path
     d="m -300.77685,95.984434 v 3.359389 q -1.52345,-0.839848 -3.06642,-1.250005 -1.52344,-0.42969 -3.08595,-0.42969 -3.49611,0 -5.42971,2.226572 -1.9336,2.20704 -1.9336,6.21096 0,4.00393 1.9336,6.2305 1.9336,2.20704 5.42971,2.20704 1.56251,0 3.08595,-0.41016 1.54297,-0.42969 3.06642,-1.26954 v 3.32033 q -1.50391,0.70313 -3.12501,1.05469 -1.60157,0.35156 -3.41799,0.35156 -4.94142,0 -7.85159,-3.10548 -2.91017,-3.10548 -2.91017,-8.37894 0,-5.35158 2.9297,-8.418 2.94923,-3.066419 8.06644,-3.066419 1.66016,0 3.2422,0.351564 1.58204,0.332032 3.06642,1.015629 z"
     id="path872"
     inkscape:connector-curvature="0"
     style="fill:#666666;fill-opacity:1" /><path
     d="m -276.30409,103.8165 v 13.20318 h -3.59377 v -13.08599 q 0,-3.10549 -1.21094,-4.648461 -1.21094,-1.542975 -3.63283,-1.542975 -2.91017,0 -4.58986,1.855476 -1.6797,1.85548 -1.6797,5.05861 v 12.36334 h -3.61329 V 86.628927 h 3.61329 v 11.914111 q 1.28907,-1.972664 3.02736,-2.949231 1.75782,-0.976566 4.04299,-0.976566 3.76954,0 5.70314,2.343759 1.93361,2.324229 1.93361,6.8555 z"
     id="path874"
     inkscape:connector-curvature="0"
     style="fill:#666666;fill-opacity:1" /><path
     d="m -268.58922,112.05872 h 4.12111 v 4.96096 h -4.12111 z"
     id="path876"
     inkscape:connector-curvature="0"
     style="fill:#666666;fill-opacity:1" /><path
     d="m -225.99138,88.816436 v 3.847672 q -2.24611,-1.074223 -4.2383,-1.601569 -1.9922,-0.527346 -3.84767,-0.527346 -3.22267,0 -4.98049,1.250005 -1.73829,1.250005 -1.73829,3.554702 0,1.933602 1.15235,2.929699 1.17188,0.976567 4.41408,1.582038 l 2.38282,0.488283 q 4.41408,0.83985 6.50393,2.96876 2.10939,2.10939 2.10939,5.66409 0,4.2383 -2.85158,6.42581 -2.83204,2.1875 -8.32034,2.1875 -2.07032,0 -4.41408,-0.46875 -2.32423,-0.46875 -4.82424,-1.38672 v -4.06252 q 2.40235,1.34766 4.70705,2.03126 2.30469,0.6836 4.53127,0.6836 3.37892,0 5.21486,-1.32813 1.83595,-1.32813 1.83595,-3.78908 0,-2.14845 -1.32813,-3.35939 -1.3086,-1.21094 -4.31643,-1.81641 l -2.40235,-0.46876 q -4.41408,-0.87891 -6.38675,-2.75391 -1.97266,-1.875011 -1.97266,-5.214869 0,-3.867203 2.71485,-6.093775 2.73439,-2.226571 7.51957,-2.226571 2.05079,0 4.1797,0.371095 2.12892,0.371095 4.35549,1.113286 z"
     id="path878"
     inkscape:connector-curvature="0"
     style="fill:#666666;fill-opacity:1" /><path
     d="m -202.49519,95.984434 v 3.359389 q -1.52344,-0.839848 -3.06642,-1.250005 -1.52344,-0.42969 -3.08595,-0.42969 -3.49611,0 -5.42971,2.226572 -1.9336,2.20704 -1.9336,6.21096 0,4.00393 1.9336,6.2305 1.9336,2.20704 5.42971,2.20704 1.56251,0 3.08595,-0.41016 1.54298,-0.42969 3.06642,-1.26954 v 3.32033 q -1.50391,0.70313 -3.12501,1.05469 -1.60157,0.35156 -3.41799,0.35156 -4.94142,0 -7.85159,-3.10548 -2.91017,-3.10548 -2.91017,-8.37894 0,-5.35158 2.9297,-8.418 2.94923,-3.066419 8.06644,-3.066419 1.66016,0 3.2422,0.351564 1.58204,0.332032 3.06642,1.015629 z"
     id="path880"
     inkscape:connector-curvature="0"
     style="fill:#666666;fill-opacity:1" /><path
     d="m -178.02245,103.8165 v 13.20318 h -3.59376 v -13.08599 q 0,-3.10549 -1.21094,-4.648461 -1.21095,-1.542975 -3.63283,-1.542975 -2.91017,0 -4.58986,1.855476 -1.6797,1.85548 -1.6797,5.05861 v 12.36334 h -3.61329 V 86.628927 h 3.61329 v 11.914111 q 1.28907,-1.972664 3.02736,-2.949231 1.75782,-0.976566 4.04298,-0.976566 3.76955,0 5.70315,2.343759 1.9336,2.324229 1.9336,6.8555 z"
     id="path882"
     inkscape:connector-curvature="0"
     style="fill:#666666;fill-opacity:1" /><path
     d="m -152.63172,103.8165 v 13.20318 h -3.59376 v -13.08599 q 0,-3.10549 -1.21094,-4.648461 -1.21095,-1.542975 -3.63283,-1.542975 -2.91017,0 -4.58986,1.855476 -1.6797,1.85548 -1.6797,5.05861 v 12.36334 h -3.61329 V 95.144587 h 3.61329 v 3.398451 q 1.28907,-1.972664 3.02736,-2.949231 1.75782,-0.976566 4.04298,-0.976566 3.76955,0 5.70315,2.343759 1.9336,2.324229 1.9336,6.8555 z"
     id="path884"
     inkscape:connector-curvature="0"
     style="fill:#666666;fill-opacity:1" /><path
     d="m -126.71362,105.18369 v 1.75782 h -16.52351 q 0.23438,3.71095 2.22657,5.66409 2.01173,1.9336 5.58596,1.9336 2.07033,0 4.00393,-0.50782 1.95313,-0.50781 3.8672,-1.52344 v 3.39845 q -1.9336,0.82032 -3.96486,1.25001 -2.03126,0.42968 -4.12111,0.42968 -5.2344,0 -8.30082,-3.04688 -3.04688,-3.04689 -3.04688,-8.24222 0,-5.37112 2.89063,-8.515664 2.91017,-3.164075 7.83207,-3.164075 4.41408,0 6.97268,2.851574 2.57814,2.832045 2.57814,7.714875 z m -3.59377,-1.05469 q -0.0391,-2.94923 -1.66016,-4.707052 -1.60157,-1.75782 -4.25783,-1.75782 -3.00783,0 -4.82424,1.699226 -1.79688,1.699226 -2.07032,4.785176 z"
     id="path886"
     inkscape:connector-curvature="0"
     style="fill:#666666;fill-opacity:1" /><path
     d="m -120.81517,86.628927 h 3.59376 v 30.390753 h -3.59376 z"
     id="path888"
     inkscape:connector-curvature="0"
     style="fill:#666666;fill-opacity:1" /><path
     d="m -109.72139,86.628927 h 3.59377 v 30.390753 h -3.59377 z"
     id="path890"
     inkscape:connector-curvature="0"
     style="fill:#666666;fill-opacity:1" /><path
     d="m -98.119764,112.05872 h 4.121111 v 4.96096 h -4.121111 z"
     id="path892"
     inkscape:connector-curvature="0"
     style="fill:#666666;fill-opacity:1" /><path
     d="m -74.682181,87.859401 h 22.91025 v 3.007824 l -18.437575,22.832125 h 18.886796 v 3.32033 h -23.808691 v -3.00783 l 18.437575,-22.832123 h -17.988355 z"
     id="path894"
     inkscape:connector-curvature="0"
     style="fill:#666666;fill-opacity:1" /><path
     d="M -46.107835,108.38683 V 95.144587 h 3.593765 v 13.105523 q 0,3.10548 1.210942,4.66799 1.210942,1.54297 3.632827,1.54297 2.910169,0 4.589863,-1.85547 1.699226,-1.85548 1.699226,-5.05862 V 95.144587 h 3.593764 v 21.875093 h -3.593764 v -3.35939 q -1.308599,1.99219 -3.046888,2.96876 -1.718757,0.95703 -4.003922,0.95703 -3.769547,0 -5.72268,-2.34375 -1.953133,-2.34376 -1.953133,-6.8555 z m 9.043006,-13.769589 z"
     id="path896"
     inkscape:connector-curvature="0"
     style="fill:#666666;fill-opacity:1" /><path
     d="m -22.924159,95.144587 h 3.808609 l 6.835966,18.359453 6.8359655,-18.359453 h 3.8086094 L -9.8381678,117.01968 H -14.721 Z"
     id="path898"
     inkscape:connector-curvature="0"
     style="fill:#666666;fill-opacity:1" /><path
     d="m 22.036988,105.18369 v 1.75782 H 5.5134827 q 0.2343759,3.71095 2.2265716,5.66409 2.011727,1.9336 5.5859607,1.9336 2.070321,0 4.003922,-0.50782 1.953133,-0.50781 3.867204,-1.52344 v 3.39845 q -1.933602,0.82032 -3.96486,1.25001 -2.031259,0.42968 -4.121111,0.42968 -5.2343964,0 -8.3008152,-3.04688 -3.0468875,-3.04689 -3.0468875,-8.24222 0,-5.37112 2.8906369,-8.515664 2.9101681,-3.164075 7.8320638,-3.164075 4.41408,0 6.972684,2.851574 2.578136,2.832045 2.578136,7.714875 z M 18.443223,104.129 q -0.03906,-2.94923 -1.660163,-4.707052 -1.601569,-1.75782 -4.25783,-1.75782 -3.0078247,0 -4.8242383,1.699226 -1.7968824,1.699226 -2.070321,4.785176 z"
     id="path900"
     inkscape:connector-curvature="0"
     style="fill:#666666;fill-opacity:1" /><path
     d="m 40.611273,98.503975 q -0.605471,-0.351563 -1.32813,-0.507814 -0.703128,-0.175782 -1.562506,-0.175782 -3.046888,0 -4.68752,1.992196 -1.6211,1.972665 -1.6211,5.683615 v 11.52349 H 27.798721 V 95.144587 h 3.613296 v 3.398451 q 1.132817,-1.992196 2.949231,-2.949231 1.816414,-0.976566 4.41408,-0.976566 0.371096,0 0.820316,0.05859 0.449221,0.03906 0.996098,0.136719 z"
     id="path902"
     inkscape:connector-curvature="0"
     style="fill:#666666;fill-opacity:1" /><path
     d="m 44.419876,86.628927 h 3.593765 v 30.390753 h -3.593765 z"
     id="path904"
     inkscape:connector-curvature="0"
     style="fill:#666666;fill-opacity:1" /><path
     d="m 65.455134,106.02354 q -4.355486,0 -6.035181,0.9961 -1.679694,0.99609 -1.679694,3.39845 0,1.91407 1.250005,3.04688 1.269537,1.11329 3.437514,1.11329 2.988294,0 4.785176,-2.10938 1.816414,-2.12892 1.816414,-5.64456 v -0.80078 z m 7.167998,-1.48438 v 12.48052 h -3.593764 v -3.32033 q -1.230474,1.9922 -3.066419,2.94923 -1.835945,0.9375 -4.492206,0.9375 -3.359389,0 -5.351584,-1.875 -1.972665,-1.89454 -1.972665,-5.05862 0,-3.69142 2.460948,-5.56643 2.480479,-1.875 7.382843,-1.875 h 5.039083 v -0.35157 q 0,-2.48048 -1.640632,-3.828139 -1.6211,-1.367193 -4.570331,-1.367193 -1.875008,0 -3.652359,0.449221 -1.777351,0.44922 -3.417983,1.347662 v -3.320326 q 1.972665,-0.761722 3.828141,-1.132818 1.855476,-0.390626 3.613296,-0.390626 4.746113,0 7.089873,2.460947 2.343759,2.460948 2.343759,7.460972 z M 65.181696,86.707052 h 3.96486 v 3.945329 h -3.96486 z m -7.63675,0 h 3.96486 v 3.945329 h -3.96486 z"
     id="path906"
     inkscape:connector-curvature="0"
     style="fill:#666666;fill-opacity:1" /><path
     d="m 93.990399,95.789121 v 3.398451 q -1.523444,-0.781253 -3.164076,-1.17188 -1.640632,-0.390626 -3.398451,-0.390626 -2.675793,0 -4.023454,0.820315 -1.328131,0.820316 -1.328131,2.460949 0,1.25 0.957035,1.97266 0.957036,0.70313 3.847672,1.34767 l 1.230474,0.27343 q 3.828141,0.82032 5.42971,2.32423 1.6211,1.48438 1.6211,4.16018 0,3.04688 -2.421885,4.82423 -2.402353,1.77735 -6.62112,1.77735 -1.75782,0 -3.671891,-0.35156 -1.894539,-0.33203 -4.003922,-1.01563 v -3.71095 q 1.992195,1.03516 3.925797,1.56251 1.933602,0.50781 3.828141,0.50781 2.539073,0 3.906266,-0.85938 1.367193,-0.87891 1.367193,-2.46095 0,-1.46485 -0.996098,-2.2461 -0.976566,-0.78125 -4.316424,-1.50391 l -1.250005,-0.29297 q -3.339857,-0.70313 -4.824238,-2.14845 -1.484382,-1.46485 -1.484382,-4.00392 0,-3.08595 2.187509,-4.765645 2.187509,-1.679694 6.210963,-1.679694 1.992196,0 3.750016,0.29297 1.757819,0.29297 3.242201,0.87891 z"
     id="path908"
     inkscape:connector-curvature="0"
     style="fill:#666666;fill-opacity:1" /><path
     d="m 114.84987,95.789121 v 3.398451 q -1.52345,-0.781253 -3.16408,-1.17188 -1.64063,-0.390626 -3.39845,-0.390626 -2.67579,0 -4.02346,0.820315 -1.32813,0.820316 -1.32813,2.460949 0,1.25 0.95704,1.97266 0.95703,0.70313 3.84767,1.34767 l 1.23047,0.27343 q 3.82815,0.82032 5.42971,2.32423 1.6211,1.48438 1.6211,4.16018 0,3.04688 -2.42188,4.82423 -2.40235,1.77735 -6.62112,1.77735 -1.75782,0 -3.67189,-0.35156 -1.89454,-0.33203 -4.003924,-1.01563 v -3.71095 q 1.992194,1.03516 3.925794,1.56251 1.93361,0.50781 3.82814,0.50781 2.53908,0 3.90627,-0.85938 1.36719,-0.87891 1.36719,-2.46095 0,-1.46485 -0.99609,-2.2461 -0.97657,-0.78125 -4.31643,-1.50391 l -1.25,-0.29297 q -3.33986,-0.70313 -4.82424,-2.14845 -1.484383,-1.46485 -1.484383,-4.00392 0,-3.08595 2.187513,-4.765645 2.1875,-1.679694 6.21096,-1.679694 1.99219,0 3.75001,0.29297 1.75782,0.29297 3.24221,0.87891 z"
     id="path910"
     inkscape:connector-curvature="0"
     style="fill:#666666;fill-opacity:1" /><path
     d="m 121.76393,95.144587 h 3.59377 v 21.875093 h -3.59377 z m 0,-8.51566 h 3.59377 v 4.5508 h -3.59377 z"
     id="path912"
     inkscape:connector-curvature="0"
     style="fill:#666666;fill-opacity:1" /><path
     d="m 147.25233,105.82822 q 0,-3.90626 -1.6211,-6.054708 -1.60157,-2.148446 -4.51173,-2.148446 -2.89064,0 -4.51174,2.148446 -1.60157,2.148448 -1.60157,6.054708 0,3.88674 1.60157,6.03519 1.6211,2.14844 4.51174,2.14844 2.91016,0 4.51173,-2.14844 1.6211,-2.14845 1.6211,-6.03519 z m 3.59377,8.4766 q 0,5.58596 -2.48048,8.30082 -2.48048,2.73438 -7.59769,2.73438 -1.89454,0 -3.57423,-0.29297 -1.6797,-0.27344 -3.26173,-0.85938 v -3.4961 q 1.58203,0.85937 3.12501,1.26953 1.54297,0.41016 3.14454,0.41016 3.53517,0 5.29299,-1.85548 1.75782,-1.83594 1.75782,-5.56642 V 113.172 q -1.11328,1.93361 -2.85157,2.89064 -1.73829,0.95704 -4.16017,0.95704 -4.02346,0 -6.48441,-3.06642 -2.46094,-3.06642 -2.46094,-8.12504 0,-5.07814 2.46094,-8.14456 2.46095,-3.066419 6.48441,-3.066419 2.42188,0 4.16017,0.957035 1.73829,0.957035 2.85157,2.890637 v -3.320326 h 3.59377 z"
     id="path914"
     inkscape:connector-curvature="0"
     style="fill:#666666;fill-opacity:1" /><path
     d="m 158.7563,112.05872 h 4.12111 v 4.96096 h -4.12111 z"
     id="path916"
     inkscape:connector-curvature="0"
     style="fill:#666666;fill-opacity:1" /></g><g
   transform="matrix(1.0634958,0,0,1.0634958,19.218578,9.0272923)"
   id="g9"><polygon
     style="fill:#f47721"
     id="polygon11"
     points="15.209,0.636 1.057,23.364 32.79,23.364 46.942,0.636 " /><circle
     style="fill:#ffffff"
     id="circle13"
     r="4.073"
     cy="11.999"
     cx="23.999001" /></g><g
   transform="matrix(1.2481905,0,0,1.2481905,-542.69138,140.62552)"
   id="g15"><path
     inkscape:connector-curvature="0"
     style="fill:#666666;fill-opacity:1"
     id="path17"
     d="m 490.1833,-104.88796 h 3.22323 c 2.14881,0 3.60323,0.0827 4.36494,0.24879 0.76172,0.16615 1.38115,0.58961 1.86084,1.27123 0.47969,0.68163 0.71911,1.76882 0.71911,3.26157 0,1.363252 -0.16955,2.279184 -0.50866,2.747801 -0.33911,0.468616 -1.00625,0.749786 -2.00142,0.843509 0.90145,0.224084 1.50724,0.522295 1.81738,0.89804 0.31014,0.374041 0.5027,0.719113 0.57853,1.033512 0.0758,0.312695 0.11332,1.176654 0.11332,2.589319 v 4.619707 h -4.22948 v -5.819365 c 0,-0.938937 -0.0741,-1.517465 -0.22153,-1.742401 -0.1474,-0.223232 -0.53507,-0.334848 -1.16302,-0.334848 v 7.896614 h -4.5541 v -17.513478 z m 4.5541,2.99574 v 3.893776 c 0.51207,0 0.87077,-0.06987 1.07611,-0.211303 0.20534,-0.139733 0.30843,-0.596421 0.30843,-1.367509 v -0.962794 c 0,-0.55467 -0.0988,-0.91934 -0.29735,-1.0923 -0.19853,-0.17296 -0.56149,-0.25987 -1.08719,-0.25987 z" /><path
     inkscape:connector-curvature="0"
     style="fill:#666666;fill-opacity:1"
     id="path19"
     d="m 509.98618,-104.88796 2.6038,17.512626 h -4.65379 l -0.24453,-3.148251 h -1.62908 l -0.2735,3.148251 h -4.70832 l 2.32263,-17.512626 z m -2.4138,11.26043 c -0.2309,-1.983526 -0.4618,-4.435668 -0.69356,-7.35558 -0.4635,3.353595 -0.75575,5.804885 -0.87418,7.35558 z" /><path
     inkscape:connector-curvature="0"
     style="fill:#666666;fill-opacity:1"
     id="path21"
     d="m 513.36362,-104.88796 h 4.58648 c 1.24056,0 2.19398,0.0971 2.86027,0.29225 0.66714,0.19511 1.16813,0.47628 1.50468,0.84351 0.33485,0.36807 0.56234,0.81283 0.68077,1.33598 0.12014,0.52315 0.17893,1.33258 0.17893,2.428286 v 1.525134 c 0,1.117863 -0.11588,1.933256 -0.34592,2.444474 -0.2309,0.51207 -0.65522,0.904855 -1.27038,1.179209 -0.61772,0.27265 -1.42289,0.410679 -2.41806,0.410679 h -1.22267 v 7.052252 h -4.5541 z m 4.5541,2.99574 v 4.456116 c 0.12951,0.0077 0.24113,0.01108 0.3357,0.01108 0.41835,0 0.70889,-0.102244 0.86993,-0.308435 0.16274,-0.204487 0.24368,-0.632206 0.24368,-1.281453 v -1.438228 c 0,-0.59813 -0.0937,-0.98751 -0.28117,-1.16814 -0.18745,-0.18063 -0.57683,-0.27094 -1.16814,-0.27094 z" /><path
     inkscape:connector-curvature="0"
     style="fill:#666666;fill-opacity:1"
     id="path23"
     d="m 529.03672,-104.88796 v 17.512626 h -4.5541 v -17.512626 z" /><path
     inkscape:connector-curvature="0"
     style="fill:#666666;fill-opacity:1"
     id="path25"
     d="m 530.86517,-104.88796 h 3.40727 c 2.19909,0 3.68674,0.10139 4.46208,0.30247 0.7745,0.20193 1.36495,0.53337 1.76796,0.99517 0.40301,0.4618 0.65692,0.97558 0.75746,1.54133 0.10054,0.5666 0.15166,1.67935 0.15166,3.337397 v 6.132912 c 0,1.572847 -0.0741,2.624252 -0.22238,3.153363 -0.1474,0.530815 -0.40557,0.944901 -0.77279,1.244816 -0.36808,0.29821 -0.82221,0.50781 -1.36325,0.627094 -0.54104,0.118432 -1.35558,0.178074 -2.44447,0.178074 h -5.74354 z m 4.5541,2.99574 v 11.519444 c 0.65692,0 1.05993,-0.131212 1.21159,-0.394489 0.15166,-0.263278 0.22749,-0.978131 0.22749,-2.147116 v -6.80346 c 0,-0.793239 -0.0247,-1.301049 -0.0758,-1.525129 -0.0511,-0.22409 -0.16529,-0.38768 -0.34592,-0.49248 -0.18148,-0.10395 -0.51974,-0.15677 -1.01733,-0.15677 z" /><path
     inkscape:connector-curvature="0"
     style="fill:#f47721"
     id="path27"
     d="m 543.1097,-104.88796 h 7.71257 v 3.5044 h -3.15847 v 3.320362 h 2.81255 v 3.332289 h -2.81255 v 7.355575 h -4.5541 z" /><path
     inkscape:connector-curvature="0"
     style="fill:#f47721"
     id="path29"
     d="m 559.3545,-104.88796 2.60381,17.512626 h -4.65379 l -0.24368,-3.148251 h -1.62908 l -0.27351,3.148251 h -4.70831 l 2.32348,-17.512626 z m -2.4138,11.26043 c -0.2309,-1.983526 -0.4618,-4.435668 -0.69355,-7.35558 -0.46351,3.353595 -0.7549,5.804885 -0.87333,7.35558 z" /><path
     inkscape:connector-curvature="0"
     style="fill:#f47721"
     id="path31"
     d="m 573.36443,-97.26229 h -4.5541 v -3.04345 c 0,-0.88526 -0.0486,-1.43738 -0.14655,-1.65635 -0.0963,-0.21982 -0.31099,-0.32973 -0.64328,-0.32973 -0.37489,0 -0.61346,0.13291 -0.714,0.40045 -0.10054,0.26754 -0.15166,0.84351 -0.15166,1.73047 v 8.134334 c 0,0.850326 0.0511,1.40585 0.15166,1.665719 0.10054,0.259869 0.32803,0.389378 0.68162,0.389378 0.33826,0 0.56064,-0.129509 0.66544,-0.391082 0.10395,-0.259869 0.15677,-0.869923 0.15677,-1.831865 v -2.201645 h 4.5541 v 0.682476 c 0,1.813972 -0.1278,3.098833 -0.38341,3.85714 -0.25646,0.757454 -0.82221,1.42289 -1.69895,1.99375 -0.87503,0.569156 -1.95541,0.855438 -3.23942,0.855438 -1.33343,0 -2.4334,-0.241124 -3.29906,-0.72593 -0.86566,-0.482249 -1.43823,-1.151944 -1.72025,-2.005678 -0.28117,-0.855438 -0.42175,-2.1403 -0.42175,-3.85714 v -5.115588 c 0,-1.261857 0.0434,-2.208457 0.12951,-2.838967 0.0869,-0.63135 0.34422,-1.23885 0.77364,-1.82334 0.42857,-0.58449 1.02329,-1.04374 1.78415,-1.37944 0.76172,-0.3357 1.6359,-0.5027 2.6234,-0.5027 1.3411,0 2.44788,0.25902 3.32036,0.77791 0.87248,0.51803 1.4459,1.16472 1.72025,1.93837 0.2735,0.77449 0.41068,1.97841 0.41068,3.613455 v 1.664015 z" /><path
     inkscape:connector-curvature="0"
     style="fill:#f47721"
     id="path33"
     d="m 584.16988,-104.88796 v 3.5044 h -2.70435 v 14.008226 h -4.5541 v -14.008226 h -2.69326 v -3.5044 z" /><path
     inkscape:connector-curvature="0"
     style="fill:#f47721"
     id="path35"
     d="m 595.56067,-104.88796 v 11.703485 c 0,1.328315 -0.0435,2.259584 -0.12951,2.797215 -0.0869,0.535927 -0.34252,1.088042 -0.76768,1.65379 -0.42517,0.565748 -0.9858,0.995171 -1.68276,1.28827 -0.69526,0.291394 -1.51576,0.437943 -2.46066,0.437943 -1.0463,0 -1.96905,-0.172962 -2.7691,-0.518886 -0.80006,-0.345924 -1.39903,-0.7975 -1.79523,-1.353024 -0.39704,-0.553819 -0.6305,-1.140016 -0.70292,-1.757738 -0.0724,-0.616018 -0.10821,-1.911955 -0.10821,-3.888665 v -10.36239 h 4.5541 v 13.131488 c 0,0.765123 0.0418,1.253336 0.1244,1.466343 0.0835,0.213008 0.25134,0.319512 0.50355,0.319512 0.28883,0 0.47458,-0.118433 0.55637,-0.351037 0.0835,-0.234308 0.1244,-0.78898 0.1244,-1.660606 v -12.9057 z" /><path
     inkscape:connector-curvature="0"
     style="fill:#f47721"
     id="path37"
     d="m 597.32352,-104.88796 h 3.22323 c 2.14882,0 3.60323,0.0827 4.36495,0.24879 0.76086,0.16615 1.38028,0.58961 1.86083,1.27123 0.47969,0.68163 0.71911,1.76882 0.71911,3.26157 0,1.363252 -0.16955,2.279184 -0.50866,2.747801 -0.33911,0.468616 -1.00625,0.749786 -2.00142,0.843509 0.90145,0.224084 1.50724,0.522295 1.81738,0.89804 0.31014,0.374041 0.5027,0.719113 0.57938,1.033512 0.075,0.312695 0.11332,1.176654 0.11332,2.589319 v 4.619707 h -4.22948 v -5.819365 c 0,-0.938937 -0.0741,-1.517465 -0.22237,-1.742401 -0.14741,-0.223232 -0.53508,-0.334848 -1.16217,-0.334848 v 7.896614 h -4.5541 z m 4.5541,2.99574 v 3.893776 c 0.51207,0 0.87077,-0.06987 1.07611,-0.211303 0.20619,-0.139733 0.30843,-0.596421 0.30843,-1.367509 v -0.962794 c 0,-0.55467 -0.0988,-0.91934 -0.29735,-1.0923 -0.19853,-0.17296 -0.56064,-0.25987 -1.08719,-0.25987 z" /><path
     inkscape:connector-curvature="0"
     style="fill:#f47721"
     id="path39"
     d="m 609.25449,-104.88796 h 7.59329 v 3.5044 h -3.03919 v 3.320362 h 2.84493 v 3.332289 h -2.84493 v 3.851176 h 3.34252 v 3.504399 h -7.89662 z" /></g><rect
   style="fill:none;stroke-width:1.24819052"
   id="rect41"
   height="27.894434"
   width="160.60701"
   y="9.6925936"
   x="68.01709" /></svg>