<?xml version="1.0" encoding="utf-8"?>
<!-- Generator: Adobe Illustrator 16.0.0, SVG Export Plug-In . SVG Version: 6.00 Build 0)  -->
<!DOCTYPE svg PUBLIC "-//W3C//DTD SVG 1.1//EN" "http://www.w3.org/Graphics/SVG/1.1/DTD/svg11.dtd">
<svg version="1.1" id="Layer_1" xmlns="http://www.w3.org/2000/svg" xmlns:xlink="http://www.w3.org/1999/xlink" x="0px" y="0px"
	 width="212.902px" height="23.75px" viewBox="0 0 212.902 23.75" enable-background="new 0 0 212.902 23.75" xml:space="preserve">
<g display="none">
	<polygon display="inline" fill="#F47721" points="0,43.814 42.793,43.814 61.875,13.165 19.083,13.165 	"/>
	<circle display="inline" fill="#FFFFFF" cx="30.938" cy="28.488" r="5.494"/>
</g>
<g>
	<polygon fill="#F47721" points="1.057,23.364 32.79,23.364 46.942,0.636 15.209,0.636 	"/>
	<circle fill="#FFFFFF" cx="23.999" cy="11.999" r="4.073"/>
</g>
<g>
	<path fill="#FFFFFF" d="M46.951,1.657h3.783c2.522,0,4.229,0.097,5.123,0.292s1.621,0.692,2.184,1.492s0.844,2.076,0.844,3.828
		c0,1.6-0.199,2.675-0.597,3.225s-1.181,0.88-2.349,0.99c1.058,0.263,1.769,0.613,2.133,1.054c0.364,0.439,0.59,0.844,0.679,1.213
		c0.089,0.367,0.133,1.381,0.133,3.039v5.422h-4.964v-6.83c0-1.102-0.087-1.781-0.26-2.045c-0.173-0.262-0.628-0.393-1.365-0.393
		v9.268h-5.345V1.657z M52.296,5.173v4.57c0.601,0,1.022-0.082,1.263-0.248c0.241-0.164,0.362-0.7,0.362-1.605V6.76
		c0-0.651-0.116-1.079-0.349-1.282S52.913,5.173,52.296,5.173z"/>
	<path fill="#FFFFFF" d="M70.193,1.657l3.056,20.554h-5.462L67.5,18.516h-1.912l-0.321,3.695h-5.526l2.726-20.554H70.193z
		 M67.36,14.873c-0.271-2.328-0.542-5.206-0.814-8.633c-0.544,3.936-0.887,6.813-1.026,8.633H67.36z"/>
	<path fill="#FFFFFF" d="M74.157,1.657h5.383c1.456,0,2.575,0.114,3.357,0.343c0.783,0.229,1.371,0.559,1.766,0.99
		c0.393,0.432,0.66,0.954,0.799,1.568c0.141,0.614,0.21,1.564,0.21,2.85v1.79c0,1.312-0.136,2.269-0.406,2.869
		c-0.271,0.601-0.769,1.062-1.491,1.384c-0.725,0.32-1.67,0.482-2.838,0.482h-1.435v8.277h-5.345V1.657z M79.502,5.173v5.23
		c0.152,0.009,0.283,0.013,0.394,0.013c0.491,0,0.832-0.12,1.021-0.362c0.191-0.24,0.286-0.742,0.286-1.504V6.862
		c0-0.702-0.11-1.159-0.33-1.371S80.196,5.173,79.502,5.173z"/>
	<path fill="#FFFFFF" d="M92.552,1.657v20.554h-5.345V1.657H92.552z"/>
	<path fill="#FFFFFF" d="M94.698,1.657h3.999c2.581,0,4.327,0.119,5.237,0.355c0.909,0.237,1.602,0.626,2.075,1.168
		s0.771,1.145,0.889,1.809c0.118,0.665,0.178,1.971,0.178,3.917v7.198c0,1.846-0.087,3.08-0.261,3.701
		c-0.173,0.623-0.476,1.109-0.907,1.461c-0.432,0.35-0.965,0.596-1.6,0.736c-0.635,0.139-1.591,0.209-2.869,0.209h-6.741V1.657z
		 M100.043,5.173v13.52c0.771,0,1.244-0.154,1.422-0.463s0.267-1.148,0.267-2.52V7.725c0-0.931-0.029-1.527-0.089-1.79
		s-0.194-0.455-0.406-0.578C101.024,5.235,100.627,5.173,100.043,5.173z"/>
	<path fill="#F47721" d="M109.069,1.657h9.052V5.77h-3.707v3.897h3.301v3.911h-3.301v8.633h-5.345V1.657z"/>
	<path fill="#F47721" d="M128.135,1.657l3.056,20.554h-5.462l-0.286-3.695h-1.912l-0.321,3.695h-5.526l2.727-20.554H128.135z
		 M125.302,14.873c-0.271-2.328-0.542-5.206-0.814-8.633c-0.544,3.936-0.886,6.813-1.025,8.633H125.302z"/>
	<path fill="#F47721" d="M144.578,10.607h-5.345V7.035c0-1.039-0.057-1.687-0.172-1.944c-0.113-0.258-0.365-0.387-0.755-0.387
		c-0.44,0-0.72,0.156-0.838,0.47s-0.178,0.99-0.178,2.031v9.547c0,0.998,0.06,1.65,0.178,1.955s0.385,0.457,0.8,0.457
		c0.397,0,0.658-0.152,0.781-0.459c0.122-0.305,0.184-1.021,0.184-2.15v-2.584h5.345v0.801c0,2.129-0.15,3.637-0.45,4.527
		c-0.301,0.889-0.965,1.67-1.994,2.34c-1.027,0.668-2.295,1.004-3.802,1.004c-1.565,0-2.856-0.283-3.872-0.852
		c-1.016-0.566-1.688-1.352-2.019-2.354c-0.33-1.004-0.495-2.512-0.495-4.527V8.906c0-1.481,0.051-2.592,0.152-3.332
		c0.102-0.741,0.404-1.454,0.908-2.14c0.503-0.686,1.201-1.225,2.094-1.619c0.894-0.394,1.92-0.59,3.079-0.59
		c1.574,0,2.873,0.304,3.897,0.913c1.024,0.608,1.697,1.367,2.019,2.275c0.321,0.909,0.482,2.322,0.482,4.241V10.607z"/>
	<path fill="#F47721" d="M157.26,1.657V5.77h-3.174v16.441h-5.345V5.77h-3.161V1.657H157.26z"/>
	<path fill="#F47721" d="M170.629,1.657v13.736c0,1.559-0.051,2.652-0.152,3.283c-0.102,0.629-0.402,1.277-0.901,1.941
		s-1.157,1.168-1.975,1.512c-0.816,0.342-1.779,0.514-2.888,0.514c-1.228,0-2.311-0.203-3.25-0.609s-1.642-0.936-2.107-1.588
		c-0.466-0.65-0.74-1.338-0.825-2.063c-0.085-0.723-0.127-2.244-0.127-4.564V1.657h5.345v15.412c0,0.898,0.049,1.471,0.146,1.721
		c0.098,0.25,0.295,0.375,0.591,0.375c0.339,0,0.557-0.139,0.653-0.412c0.098-0.275,0.146-0.926,0.146-1.949V1.657H170.629z"/>
	<path fill="#F47721" d="M172.698,1.657h3.783c2.522,0,4.229,0.097,5.123,0.292c0.893,0.195,1.62,0.692,2.184,1.492
		c0.563,0.8,0.844,2.076,0.844,3.828c0,1.6-0.199,2.675-0.597,3.225s-1.181,0.88-2.349,0.99c1.058,0.263,1.769,0.613,2.133,1.054
		c0.364,0.439,0.59,0.844,0.68,1.213c0.088,0.367,0.133,1.381,0.133,3.039v5.422h-4.964v-6.83c0-1.102-0.087-1.781-0.261-2.045
		c-0.173-0.262-0.628-0.393-1.364-0.393v9.268h-5.345V1.657z M178.043,5.173v4.57c0.601,0,1.022-0.082,1.263-0.248
		c0.242-0.164,0.362-0.7,0.362-1.605V6.76c0-0.651-0.116-1.079-0.349-1.282C179.086,5.275,178.661,5.173,178.043,5.173z"/>
	<path fill="#F47721" d="M186.701,1.657h8.912V5.77h-3.567v3.897h3.339v3.911h-3.339v4.52h3.923v4.113h-9.268V1.657z"/>
</g>
<rect x="45.885" y="1.645" fill="none" width="151.018" height="26.229"/>
<text transform="matrix(1 0 0 1 45.8845 22.2109)" display="none"><tspan x="0" y="0" display="inline" fill="#FFFFFF" font-family="'Impact'" font-size="26">rapid</tspan><tspan x="62.118" y="0" display="inline" fill="#F47721" font-family="'Impact'" font-size="26">fac</tspan><tspan x="100.064" y="0" display="inline" fill="#F47721" font-family="'Impact'" font-size="26">-</tspan></text>
</svg>
