<svg xmlns="http://www.w3.org/2000/svg" viewBox="0 0 588 588">
  <path id="mail" d="M234.749,582.026A292.406,292.406,0,0,1,129.622,537.79,294.872,294.872,0,0,1,23.1,408.438,292.541,292.541,0,0,1,5.973,353.252a296.856,296.856,0,0,1,0-118.5A292.386,292.386,0,0,1,50.211,129.622,294.859,294.859,0,0,1,179.563,23.1,292.541,292.541,0,0,1,234.749,5.973a296.856,296.856,0,0,1,118.5,0A292.373,292.373,0,0,1,458.378,50.211,294.839,294.839,0,0,1,564.9,179.563a292.54,292.54,0,0,1,17.131,55.186,296.858,296.858,0,0,1,0,118.5A292.393,292.393,0,0,1,537.79,458.378,294.853,294.853,0,0,1,408.438,564.9a292.561,292.561,0,0,1-55.186,17.131,296.858,296.858,0,0,1-118.5,0ZM21,294c0,150.532,122.468,273,273,273S567,444.533,567,294,444.533,21,294,21,21,143.467,21,294Zm107-1c0-90.981,74.02-165,165-165,91.21,0,167,73.746,167,165v15a59.972,59.972,0,0,1-109.264,34.188A77.669,77.669,0,0,1,293,368a75,75,0,1,1,0-150,77.29,77.29,0,0,1,47,15.952V233a15,15,0,1,1,30,0v75a30,30,0,1,0,60,0V293c0-74.439-61.458-135.2-137-135.2-74.439,0-135,60.762-135,135.2,0,75.542,60.561,137.2,135,137.2,30.4,0,61.048-10.334,84.076-28A15,15,0,0,1,395.339,426C367.175,447.607,329.874,460,293,460,201.867,460,128,384.323,128,293Zm120,0a45.222,45.222,0,0,0,45,45.2c25.476,0,47-20.807,47-45.2s-21.523-45.2-47-45.2A45.223,45.223,0,0,0,248,293Z"/>
</svg>
