<?xml version="1.0" encoding="UTF-8" standalone="no"?>
<svg
   xmlns:dc="http://purl.org/dc/elements/1.1/"
   xmlns:cc="http://creativecommons.org/ns#"
   xmlns:rdf="http://www.w3.org/1999/02/22-rdf-syntax-ns#"
   xmlns:svg="http://www.w3.org/2000/svg"
   xmlns="http://www.w3.org/2000/svg"
   xmlns:sodipodi="http://sodipodi.sourceforge.net/DTD/sodipodi-0.dtd"
   xmlns:inkscape="http://www.inkscape.org/namespaces/inkscape"
   width="740.014"
   height="739"
   version="1.1"
   id="svg4"
   sodipodi:docname="milling.svg"
   inkscape:version="0.92.3 (2405546, 2018-03-11)">
  <metadata
     id="metadata10">
    <rdf:RDF>
      <cc:Work
         rdf:about="">
        <dc:format>image/svg+xml</dc:format>
        <dc:type
           rdf:resource="http://purl.org/dc/dcmitype/StillImage" />
        <dc:title></dc:title>
      </cc:Work>
    </rdf:RDF>
  </metadata>
  <defs
     id="defs8" />
  <sodipodi:namedview
     pagecolor="#ffffff"
     bordercolor="#666666"
     borderopacity="1"
     objecttolerance="10"
     gridtolerance="10"
     guidetolerance="10"
     inkscape:pageopacity="0"
     inkscape:pageshadow="2"
     inkscape:window-width="1920"
     inkscape:window-height="1025"
     id="namedview6"
     showgrid="false"
     inkscape:pagecheckerboard="true"
     inkscape:zoom="0.31935047"
     inkscape:cx="370.00699"
     inkscape:cy="369.5"
     inkscape:window-x="0"
     inkscape:window-y="0"
     inkscape:window-maximized="1"
     inkscape:current-layer="svg4" />
  <path
     d="M0 595.5V452h296v147.996l221.75.252 221.75.252.257 69.25.257 69.25H0V595.5zm716 73.502v-44.998l-222.75-.252-222.75-.252-.257-71.75-.256-71.75H24v234h692v-44.998zM322 566.188v-7.812l47.097-41.438c25.903-22.791 47.503-41.588 48-41.771.53-.196.903 20.156.903 49.25V574h-96v-7.812zm.029-66.264l.029-32.424 47.178-41.5c25.948-22.825 47.535-41.65 47.97-41.833.437-.184.794 14.087.794 31.711v32.045l-45.75 40.201c-25.163 22.11-46.763 41.106-48 42.213l-2.25 2.012.029-32.425zM322 391.56V342h96.08l-.29 7.821-.29 7.821-46.664 41.067c-25.665 22.586-47.152 41.368-47.75 41.738-.776.48-1.086-13.476-1.086-48.888zM283 279v-39h174v78H283v-39zm-34-82l-11.465-23H197V0h345v174h-39.992L490.5 197l-11.508 23H260.465L249 197z"
     id="path2"
     style="fill:#ffffff" />
</svg>
