<svg xmlns="http://www.w3.org/2000/svg" viewBox="0 0 588 588">
  <path id="tel" d="M234.749,582.026A292.406,292.406,0,0,1,129.622,537.79,294.872,294.872,0,0,1,23.1,408.438,292.541,292.541,0,0,1,5.973,353.252a296.856,296.856,0,0,1,0-118.5A292.386,292.386,0,0,1,50.211,129.622,294.859,294.859,0,0,1,179.563,23.1,292.541,292.541,0,0,1,234.749,5.973a296.856,296.856,0,0,1,118.5,0A292.373,292.373,0,0,1,458.378,50.211,294.839,294.839,0,0,1,564.9,179.563a292.54,292.54,0,0,1,17.131,55.186,296.858,296.858,0,0,1,0,118.5A292.393,292.393,0,0,1,537.79,458.378,294.853,294.853,0,0,1,408.438,564.9a292.561,292.561,0,0,1-55.186,17.131,296.858,296.858,0,0,1-118.5,0ZM21,294c0,150.532,122.468,273,273,273S567,444.533,567,294,444.533,21,294,21,21,143.467,21,294Zm200.813,73.188A242.2,242.2,0,0,1,151,193.438c0-.032,2.344-10.438,6-14.062l20.5-20.5c7.5-7.532,21.906-10.939,32-7.564l4.313,1.438c10.062,3.375,20.625,14.5,23.406,24.75l10.314,37.844c2.781,10.281-.969,24.906-8.469,32.406l-13.688,13.688a145.372,145.372,0,0,0,102.218,102.25L341.283,350c7.53-7.531,22.155-11.282,32.405-8.5l37.843,10.345c10.25,2.813,21.375,13.313,24.75,23.375l-6.093,36.312-20.5,20.5c-3.656,3.658-14.375,5.938-14.72,5.938-.7.006-1.406.009-2.11.009A241.932,241.932,0,0,1,221.813,367.188Z"/>
</svg>
