<?xml version="1.0" encoding="UTF-8" standalone="no"?>
<svg
   xmlns:dc="http://purl.org/dc/elements/1.1/"
   xmlns:cc="http://creativecommons.org/ns#"
   xmlns:rdf="http://www.w3.org/1999/02/22-rdf-syntax-ns#"
   xmlns:svg="http://www.w3.org/2000/svg"
   xmlns="http://www.w3.org/2000/svg"
   xmlns:sodipodi="http://sodipodi.sourceforge.net/DTD/sodipodi-0.dtd"
   xmlns:inkscape="http://www.inkscape.org/namespaces/inkscape"
   width="745.795"
   height="739"
   version="1.1"
   id="svg4"
   sodipodi:docname="welding.svg"
   inkscape:version="0.92.3 (2405546, 2018-03-11)">
  <metadata
     id="metadata10">
    <rdf:RDF>
      <cc:Work
         rdf:about="">
        <dc:format>image/svg+xml</dc:format>
        <dc:type
           rdf:resource="http://purl.org/dc/dcmitype/StillImage" />
        <dc:title></dc:title>
      </cc:Work>
    </rdf:RDF>
  </metadata>
  <defs
     id="defs8" />
  <sodipodi:namedview
     pagecolor="#ffffff"
     bordercolor="#666666"
     borderopacity="1"
     objecttolerance="10"
     gridtolerance="10"
     guidetolerance="10"
     inkscape:pageopacity="0"
     inkscape:pageshadow="2"
     inkscape:window-width="1920"
     inkscape:window-height="1025"
     id="namedview6"
     showgrid="false"
     inkscape:pagecheckerboard="true"
     inkscape:zoom="0.31935047"
     inkscape:cx="-226.75717"
     inkscape:cy="369.5"
     inkscape:window-x="0"
     inkscape:window-y="0"
     inkscape:window-maximized="1"
     inkscape:current-layer="svg4" />
  <path
     d="M6.795 693v-46h739v92h-739v-46zm56-67.045c-31.625-5.887-57.448-11.097-57.385-11.58.831-6.37 2.804-16.435 3.417-17.426.613-.992 12.292.875 53.127 8.494 28.788 5.37 54.627 10.215 57.421 10.765l5.08 1-1.806 9.538c-.993 5.247-1.929 9.623-2.08 9.725-.15.103-26.149-4.63-57.774-10.516zm196.629 8.295c-.793-2.738-2.83-17.39-2.46-17.692.182-.149 3.481-.698 7.331-1.221 3.85-.523 40.163-6.087 80.696-12.365 40.533-6.277 73.92-11.189 74.195-10.914.606.605 3.501 18.303 3.073 18.778-.281.312-159.831 25.164-161.553 25.164-.427 0-1.004-.788-1.282-1.75zm-65.922-26.705c-2.636-1.264-5.035-2.54-5.33-2.835-.295-.295 1.13-6.67 3.166-14.167 2.037-7.497 3.535-13.761 3.33-13.92-.205-.16-4.985-2.214-10.623-4.566-5.637-2.352-10.25-4.78-10.25-5.395 0-2.248 43.255-167.19 44.076-168.074.499-.536 5.025 1.028 11.001 3.801 5.585 2.592 10.246 4.578 10.36 4.412.112-.165 2.352-7.726 4.977-16.801 4.648-16.068 5.025-16.903 14.43-31.887 12.748-20.315 33.239-44.55 52.129-61.659l14.027-12.704v-35.354l142.64-111.808L610.077 24.78l18.703 6.61c10.286 3.635 19.207 6.61 19.824 6.61.618 0 12.606-8.55 26.64-19l25.518-19h45.034l-.054 18.25-.054 18.25-29.696 21.318c-16.333 11.725-30.466 21.887-31.407 22.582-1.427 1.054-2.056 5.403-3.79 26.182-1.144 13.705-2.23 25.368-2.415 25.918-.185.55-25.286 15.383-55.78 32.962l-55.445 31.962-3.755 19.538-3.755 19.538-76.07 43.492-76.071 43.492-9.104-.321c-5.007-.177-16.522-.662-25.59-1.078l-16.486-.757-13.014 9.771c-24.86 18.666-40.66 40.427-55.805 76.858l-7.582 18.239 9.436 4.41c5.19 2.425 9.437 4.871 9.437 5.436 0 .915-63.792 156.066-64.44 156.726-.145.148-3.368-1.052-7.162-2.666-3.794-1.614-9.214-3.848-12.045-4.964L210 583.11l-4.852 13.445c-2.67 7.394-5.303 13.41-5.853 13.366-.55-.043-3.157-1.113-5.793-2.376zM64.922 569.49c-34.306-21.122-62.577-38.607-62.824-38.854-.466-.466 7.073-13.095 9.244-15.487 1.009-1.11 12.297 5.442 63.59 36.913 34.3 21.045 62.672 38.528 63.05 38.851.756.647-8.922 17.119-10.009 17.034-.373-.029-28.746-17.334-63.051-38.457zm183.991 30.313c-2.781-4.508-4.957-8.297-4.834-8.42.953-.953 137.126-84.383 137.73-84.383.924 0 9.986 14.319 9.986 15.78 0 .844-136.01 85.22-137.37 85.22-.25 0-2.73-3.689-5.512-8.197zm-175.618-106.9C33.145 443.382.165 402.3.005 401.608c-.159-.692 3.047-3.996 7.124-7.343l7.413-6.084 73.265 90.57c40.295 49.815 73.315 91.12 73.376 91.792.1 1.079-13.115 12.484-14.388 12.42-.275-.015-33.35-40.542-73.5-90.062z"
     id="path2"
     style="fill:#ffffff;fill-opacity:1" />
</svg>
