<?xml version="1.0" encoding="UTF-8" standalone="no"?>
<svg
   xmlns:dc="http://purl.org/dc/elements/1.1/"
   xmlns:cc="http://creativecommons.org/ns#"
   xmlns:rdf="http://www.w3.org/1999/02/22-rdf-syntax-ns#"
   xmlns:svg="http://www.w3.org/2000/svg"
   xmlns="http://www.w3.org/2000/svg"
   xml:space="preserve"
   enable-background="new 0 0 212.902 23.75"
   viewBox="0 0 209.15706 22.70575"
   height="22.70575"
   width="209.15706"
   y="0px"
   x="0px"
   id="Layer_1"
   version="1.1"><metadata
     id="metadata55"><rdf:RDF><cc:Work
         rdf:about=""><dc:format>image/svg+xml</dc:format><dc:type
           rdf:resource="http://purl.org/dc/dcmitype/StillImage" /><dc:title></dc:title></cc:Work></rdf:RDF></metadata><defs
     id="defs53" /><g
     transform="translate(-1.057,-0.20557977)"
     style="display:none"
     id="g3"
     display="none"><polygon
       style="display:inline;fill:#f47721"
       id="polygon5"
       points="42.793,43.814 61.875,13.165 19.083,13.165 0,43.814 "
       display="inline" /><circle
       style="display:inline;fill:#ffffff"
       id="circle7"
       r="5.494"
       cy="28.488001"
       cx="30.938"
       display="inline" /></g><g
     transform="matrix(0.85203003,0,0,0.85203003,-0.90059574,-0.17516014)"
     id="g9"><polygon
       style="fill:#f47721"
       id="polygon11"
       points="46.942,0.636 15.209,0.636 1.057,23.364 32.79,23.364 " /><circle
       style="fill:#ffffff"
       id="circle13"
       r="4.073"
       cy="11.999"
       cx="23.999001" /></g><g
     transform="translate(-1.057,-0.20557977)"
     id="g15"><path
       style="fill:#666666;fill-opacity:1"
       id="path17"
       d="m 40.160066,0.57365674 3.22323,0 c 2.148819,0 3.603235,0.0826469 4.364949,0.24879277 0.761715,0.16614588 1.381141,0.58960479 1.860834,1.27122879 0.479693,0.6816241 0.719113,1.7688144 0.719113,3.261571 0,1.363248 -0.169554,2.2791803 -0.508662,2.7477968 -0.339108,0.4686167 -1.006247,0.7497866 -2.001418,0.8435099 0.901448,0.2240839 1.507241,0.5222944 1.81738,0.8980397 0.310139,0.3740413 0.502698,0.7191133 0.578528,1.0335123 0.07583,0.312695 0.11332,1.176654 0.11332,2.589319 l 0,4.619707 -4.229477,0 0,-5.819365 c 0,-0.938937 -0.07413,-1.517465 -0.221528,-1.742401 -0.147401,-0.223232 -0.535074,-0.334848 -1.163021,-0.334848 l 0,7.896614 -4.5541,0 0,-17.51347726 z m 4.554101,2.99573756 0,3.8937773 c 0.51207,0 0.870774,-0.069866 1.076113,-0.2113035 0.20534,-0.1397329 0.308435,-0.596421 0.308435,-1.3675082 l 0,-0.9627939 c 0,-0.5546716 -0.09884,-0.9193404 -0.297358,-1.0923025 -0.198523,-0.1729621 -0.561488,-0.2598692 -1.08719,-0.2598692 z" /><path
       style="fill:#666666;fill-opacity:1"
       id="path19"
       d="m 59.962948,0.57365674 2.603804,17.51262526 -4.653788,0 -0.244533,-3.148251 -1.629081,0 -0.273502,3.148251 -4.708318,0 2.322634,-17.51262526 6.582784,0 z M 57.549147,11.834086 c -0.2309,-1.9835261 -0.4618,-4.4356687 -0.693553,-7.3555756 -0.463504,3.3535902 -0.75575,5.8048806 -0.874182,7.3555756 l 1.567735,0 z" /><path
       style="fill:#666666;fill-opacity:1"
       id="path21"
       d="m 63.340395,0.57365674 4.586478,0 c 1.240555,0 2.193977,0.0971314 2.860264,0.2922463 0.66714,0.19511486 1.168133,0.47628486 1.504685,0.84350976 0.334848,0.368077 0.56234,0.8128366 0.680772,1.3359831 0.120137,0.5231464 0.178927,1.3325749 0.178927,2.4282855 l 0,1.5251338 c 0,1.1178634 -0.115876,1.9332563 -0.345925,2.4444743 -0.2309,0.5120701 -0.655211,0.9048555 -1.270376,1.1792095 -0.617722,0.27265 -1.42289,0.410679 -2.418062,0.410679 l -1.222663,0 0,7.052252 -4.5541,0 0,-17.51177326 z m 4.5541,2.99573756 0,4.4561171 c 0.129509,0.00767 0.241125,0.011076 0.3357,0.011076 0.418347,0 0.708889,-0.1022436 0.869923,-0.3084349 0.162738,-0.2044872 0.24368,-0.6322063 0.24368,-1.2814532 l 0,-1.4382266 c 0,-0.5981251 -0.09372,-0.9875028 -0.281169,-1.1681332 -0.187447,-0.18063 -0.576825,-0.2709452 -1.168134,-0.2709452 z" /><path
       style="fill:#666666;fill-opacity:1"
       id="path23"
       d="m 79.013487,0.57365674 0,17.51262526 -4.5541,0 0,-17.51262526 4.5541,0 z" /><path
       style="fill:#666666;fill-opacity:1"
       id="path25"
       d="m 80.841944,0.57365674 3.407268,0 c 2.199089,0 3.686734,0.10139157 4.462081,0.30247066 0.774495,0.2019311 1.364952,0.5333708 1.767962,0.9951711 0.40301,0.4618003 0.656915,0.9755744 0.757455,1.5413223 0.10054,0.5666 0.151661,1.6793512 0.151661,3.3374016 l 0,6.1329126 c 0,1.572847 -0.07413,2.624252 -0.22238,3.153363 -0.147401,0.530815 -0.405566,0.944901 -0.772791,1.244816 -0.368077,0.29821 -0.822209,0.50781 -1.363248,0.627094 -0.541039,0.118432 -1.35558,0.178074 -2.444474,0.178074 l -5.743534,0 0,-17.51262526 z m 4.5541,2.99573756 0,11.5194457 c 0.656915,0 1.059926,-0.131212 1.211587,-0.394489 0.151661,-0.263278 0.227492,-0.978131 0.227492,-2.147116 l 0,-6.80346 c 0,-0.79324 -0.02471,-1.3010499 -0.07583,-1.5251338 C 86.70817,3.9945573 86.593998,3.8309676 86.413368,3.7261679 86.231886,3.6222202 85.89363,3.5693943 85.396044,3.5693943 Z" /><path
       style="fill:#f47721"
       id="path27"
       d="m 93.086467,0.57365674 7.712573,0 0,3.50439956 -3.158472,0 0,3.320361 2.812552,0 0,3.3322897 -2.812552,0 0,7.355575 -4.554101,0 0,-17.51262526 z" /><path
       style="fill:#f47721"
       id="path29"
       d="m 109.33127,0.57365674 2.60381,17.51262526 -4.65379,0 -0.24368,-3.148251 -1.62908,0 -0.27351,3.148251 -4.70831,0 2.32348,-17.51262526 6.58108,0 z m -2.4138,11.26042926 c -0.2309,-1.9835261 -0.4618,-4.4356687 -0.69355,-7.3555756 -0.46351,3.3535902 -0.7549,5.8048806 -0.87333,7.3555756 l 1.56688,0 z" /><path
       style="fill:#f47721"
       id="path31"
       d="m 123.3412,8.1993255 -4.5541,0 0,-3.0434513 c 0,-0.8852592 -0.0486,-1.4373746 -0.14655,-1.6563463 -0.0963,-0.2198238 -0.31099,-0.3297356 -0.64328,-0.3297356 -0.37489,0 -0.61346,0.1329166 -0.714,0.4004541 -0.10054,0.2675374 -0.15166,0.8435097 -0.15166,1.730473 l 0,8.1343306 c 0,0.850326 0.0511,1.40585 0.15166,1.665719 0.10054,0.259869 0.32803,0.389378 0.68162,0.389378 0.33826,0 0.56064,-0.129509 0.66544,-0.391082 0.10395,-0.259869 0.15677,-0.869923 0.15677,-1.831865 l 0,-2.201645 4.5541,0 0,0.682476 c 0,1.813972 -0.1278,3.098833 -0.38341,3.85714 -0.25646,0.757454 -0.82221,1.42289 -1.69895,1.99375 -0.87503,0.569156 -1.95541,0.855438 -3.23942,0.855438 -1.33343,0 -2.4334,-0.241124 -3.29906,-0.72593 -0.86566,-0.482249 -1.43823,-1.151944 -1.72025,-2.005678 -0.28117,-0.855438 -0.42175,-2.1403 -0.42175,-3.85714 l 0,-5.1155886 c 0,-1.2618564 0.0434,-2.2084618 0.12951,-2.838964 0.0869,-0.6313543 0.34422,-1.2388517 0.77364,-1.8233443 0.42857,-0.5844926 1.02329,-1.0437368 1.78415,-1.37943661 0.76172,-0.33569983 1.6359,-0.50269772 2.6234,-0.50269772 1.3411,0 2.44788,0.25901713 3.32036,0.77790344 0.87248,0.51803429 1.4459,1.16472509 1.72025,1.93836829 0.2735,0.7744953 0.41068,1.9784137 0.41068,3.6134594 l 0,1.6640146 z" /><path
       style="fill:#f47721"
       id="path33"
       d="m 134.14665,0.57365674 0,3.50439956 -2.70435,0 0,14.0082257 -4.5541,0 0,-14.0082257 -2.69326,0 0,-3.50439956 9.95171,0 z" /><path
       style="fill:#f47721"
       id="path35"
       d="m 145.53744,0.57365674 0,11.70348426 c 0,1.328315 -0.0435,2.259584 -0.12951,2.797215 -0.0869,0.535927 -0.34252,1.088042 -0.76768,1.65379 -0.42517,0.565748 -0.9858,0.995171 -1.68276,1.28827 -0.69526,0.291394 -1.51576,0.437943 -2.46066,0.437943 -1.0463,0 -1.96905,-0.172962 -2.7691,-0.518886 -0.80006,-0.345924 -1.39903,-0.7975 -1.79523,-1.353024 -0.39704,-0.553819 -0.6305,-1.140016 -0.70292,-1.757738 -0.0724,-0.616018 -0.10821,-1.911955 -0.10821,-3.888665 l 0,-10.36238926 4.5541,0 0,13.13148726 c 0,0.765123 0.0418,1.253336 0.1244,1.466343 0.0835,0.213008 0.25134,0.319512 0.50355,0.319512 0.28883,0 0.47458,-0.118433 0.55637,-0.351037 0.0835,-0.234308 0.1244,-0.78898 0.1244,-1.660606 l 0,-12.90569926 4.55325,0 z" /><path
       style="fill:#f47721"
       id="path37"
       d="m 147.30029,0.57365674 3.22323,0 c 2.14882,0 3.60323,0.0826469 4.36495,0.24879277 0.76086,0.16614588 1.38028,0.58960479 1.86083,1.27122879 0.47969,0.6816241 0.71911,1.7688144 0.71911,3.261571 0,1.363248 -0.16955,2.2791803 -0.50866,2.7477968 -0.33911,0.4686167 -1.00625,0.7497866 -2.00142,0.8435099 0.90145,0.2240839 1.50724,0.5222944 1.81738,0.8980397 0.31014,0.3740413 0.5027,0.7191133 0.57938,1.0335123 0.075,0.312695 0.11332,1.176654 0.11332,2.589319 l 0,4.619707 -4.22948,0 0,-5.819365 c 0,-0.938937 -0.0741,-1.517465 -0.22237,-1.742401 -0.14741,-0.223232 -0.53508,-0.334848 -1.16217,-0.334848 l 0,7.896614 -4.5541,0 0,-17.51347726 z m 4.5541,2.99573756 0,3.8937773 c 0.51207,0 0.87077,-0.069866 1.07611,-0.2113035 0.20619,-0.1397329 0.30843,-0.596421 0.30843,-1.3675082 l 0,-0.9627939 c 0,-0.5546716 -0.0988,-0.9193404 -0.29735,-1.0923025 -0.19853,-0.1729621 -0.56064,-0.2598692 -1.08719,-0.2598692 z" /><path
       style="fill:#f47721"
       id="path39"
       d="m 159.23126,0.57365674 7.59329,0 0,3.50439956 -3.03919,0 0,3.320361 2.84493,0 0,3.3322897 -2.84493,0 0,3.851176 3.34252,0 0,3.504399 -7.89662,0 0,-17.51262526 z" /><g
       id="text4189"
       style="font-style:normal;font-weight:normal;font-size:21.269104px;line-height:125%;font-family:sans-serif;letter-spacing:0px;word-spacing:0px;fill:#000000;fill-opacity:1;stroke:none;stroke-width:1px;stroke-linecap:butt;stroke-linejoin:miter;stroke-opacity:1"><path
         id="path3359"
         style="font-style:normal;font-variant:normal;font-weight:normal;font-stretch:condensed;font-family:Impact;-inkscape-font-specification:'Impact Condensed'"
         d="m 186.69872,8.168287 -4.37221,0 0,-2.9286559 q 0,-1.2773925 -0.1454,-1.5889516 -0.13501,-0.3219445 -0.61273,-0.3219445 -0.54004,0 -0.68543,0.3842563 -0.1454,0.3842563 -0.1454,1.6616487 l 0,7.809749 q 0,1.225466 0.1454,1.599337 0.14539,0.373871 0.65427,0.373871 0.48811,0 0.63351,-0.373871 0.15578,-0.373871 0.15578,-1.755116 l 0,-2.108217 4.37221,0 0,0.654274 q 0,2.606711 -0.37387,3.697168 -0.36349,1.090457 -1.63049,1.910896 -1.25663,0.82044 -3.10521,0.82044 -1.92128,0 -3.16752,-0.695816 -1.24623,-0.695815 -1.65126,-1.921281 -0.40503,-1.235851 -0.40503,-3.707554 l 0,-4.9122491 q 0,-1.8174283 0.12463,-2.7209499 0.12462,-0.9139068 0.73735,-1.7551164 0.62312,-0.8412097 1.71358,-1.31893374 1.10084,-0.48810932 2.52363,-0.48810932 1.93166,0 3.18828,0.74774196 1.25663,0.7477419 1.65127,1.8693548 0.39464,1.1112276 0.39464,3.4686918 l 0,1.5993369 z" /><path
         id="path3361"
         style="font-style:normal;font-variant:normal;font-weight:normal;font-stretch:condensed;font-family:Impact;-inkscape-font-specification:'Impact Condensed'"
         d="m 195.83779,0.8362619 2.50286,16.8138081 -4.47607,0 -0.21809,-3.022123 -1.56818,0 -0.25963,3.022123 -4.528,0 2.22246,-16.8138081 6.32465,0 z m -2.31592,10.8111021 q -0.33233,-2.8559587 -0.66466,-7.0516218 -0.66466,4.8187814 -0.83083,7.0516218 l 1.49549,0 z" /><path
         id="path3363"
         style="font-style:normal;font-variant:normal;font-weight:normal;font-stretch:condensed;font-family:Impact;-inkscape-font-specification:'Impact Condensed'"
         d="m 199.08839,0.8362619 3.27137,0 q 3.16752,0 4.27874,0.2907885 1.12162,0.2907886 1.70319,0.9554481 0.58158,0.6646595 0.72698,1.4850985 0.14539,0.8100538 0.14539,3.1986739 l 0,5.8884681 q 0,2.263996 -0.21809,3.032509 -0.20771,0.758127 -0.73736,1.19431 -0.52965,0.425797 -1.30855,0.602347 -0.77889,0.166165 -2.34708,0.166165 l -5.51459,0 0,-16.8138081 z m 4.37221,2.8767294 0,11.0603497 q 0.94506,0 1.16316,-0.373871 0.21809,-0.384256 0.21809,-2.066676 l 0,-6.5323565 q 0,-1.1423835 -0.0727,-1.4643279 -0.0727,-0.3219445 -0.33233,-0.4673387 -0.25963,-0.1557796 -0.97622,-0.1557796 z" /></g></g><rect
     style="fill:none"
     id="rect41"
     height="22.347897"
     width="128.67188"
     y="0.35785264"
     x="38.194801" /><text
     y="22.00532"
     x="44.827499"
     style="display:none"
     id="text43"
     display="none"><tspan
       style="font-size:26px;font-family:Impact;display:inline;fill:#ffffff"
       id="tspan45"
       font-size="26"
       display="inline"
       y="22.00532"
       x="44.827499">rapid</tspan><tspan
       style="font-size:26px;font-family:Impact;display:inline;fill:#f47721"
       id="tspan47"
       font-size="26"
       display="inline"
       y="22.00532"
       x="106.9455">fac</tspan><tspan
       style="font-size:26px;font-family:Impact;display:inline;fill:#f47721"
       id="tspan49"
       font-size="26"
       display="inline"
       y="22.00532"
       x="144.89151">-</tspan></text>
</svg>