<?xml version="1.0" encoding="UTF-8" standalone="no"?>
<svg
   xmlns:dc="http://purl.org/dc/elements/1.1/"
   xmlns:cc="http://creativecommons.org/ns#"
   xmlns:rdf="http://www.w3.org/1999/02/22-rdf-syntax-ns#"
   xmlns:svg="http://www.w3.org/2000/svg"
   xmlns="http://www.w3.org/2000/svg"
   xml:space="preserve"
   enable-background="new 0 0 212.902 23.75"
   viewBox="0 0 546.98311 23.137242"
   height="23.137241"
   width="546.98309"
   y="0px"
   x="0px"
   id="Layer_1"
   version="1.1"><metadata
   id="metadata55"><rdf:RDF><cc:Work
       rdf:about=""><dc:format>image/svg+xml</dc:format><dc:type
         rdf:resource="http://purl.org/dc/dcmitype/StillImage" /><dc:title></dc:title></cc:Work></rdf:RDF></metadata><defs
   id="defs53" />
<g
   id="g6"
   display="none"
   style="display:none"
   transform="translate(-1.057,-0.22675854)">
	<polygon
   id="polygon2"
   points="61.875,13.165 19.083,13.165 0,43.814 42.793,43.814 "
   display="inline"
   style="display:inline;fill:#f47721" />
	<circle
   id="circle4"
   r="5.494"
   cy="28.488001"
   cx="30.938"
   display="inline"
   style="display:inline;fill:#ffffff" />
</g>


<g
   transform="translate(4.429e-8,0.43124146)"
   id="g1028"><g
     id="g984"
     transform="translate(-0.00898935,-1.0200076)"><path
       id="path868"
       style="font-style:normal;font-variant:normal;font-weight:normal;font-stretch:normal;font-size:medium;line-height:125%;font-family:Impact;-inkscape-font-specification:Impact;letter-spacing:0px;word-spacing:0px;fill:#666666;fill-opacity:1;stroke:none;stroke-width:0.64940137px;stroke-linecap:butt;stroke-linejoin:miter;stroke-opacity:1"
       d="m 45.849574,1.0200076 h 3.779717 q 3.779717,0 5.111496,0.2917241 1.344469,0.291724 2.181586,1.4966687 0.8498,1.1922554 0.8498,3.8177657 0,2.3972066 -0.59613,3.2216413 -0.596126,0.8244346 -2.34647,0.9893236 1.585455,0.393193 2.130849,1.052738 0.545399,0.659552 0.672234,1.217628 0.139517,0.545393 0.139517,3.031386 v 5.415903 H 52.812877 V 14.731 q 0,-1.648869 -0.266352,-2.042062 -0.253676,-0.393193 -1.357152,-0.393193 v 9.259041 h -5.339799 z m 5.339799,3.5133652 V 9.099476 q 0.900539,0 1.255683,-0.2409929 0.367821,-0.2536691 0.367821,-1.6108205 V 6.1188212 q 0,-0.9766347 -0.355139,-1.2810416 -0.342455,-0.3044068 -1.268365,-0.3044068 z" /><path
       id="path870"
       style="font-style:normal;font-variant:normal;font-weight:normal;font-stretch:normal;font-size:medium;line-height:125%;font-family:Impact;-inkscape-font-specification:Impact;letter-spacing:0px;word-spacing:0px;fill:#666666;fill-opacity:1;stroke:none;stroke-width:0.64940137px;stroke-linecap:butt;stroke-linejoin:miter;stroke-opacity:1"
       d="m 69.073282,1.0200076 3.056753,20.5347784 h -5.466642 l -0.266359,-3.69093 h -1.915227 l -0.31709,3.69093 H 58.634662 L 61.348959,1.0200076 Z M 66.244835,14.223656 Q 65.838959,10.735662 65.433083,5.6114764 64.621331,11.496676 64.418394,14.223656 Z" /><path
       id="path872"
       style="font-style:normal;font-variant:normal;font-weight:normal;font-stretch:normal;font-size:medium;line-height:125%;font-family:Impact;-inkscape-font-specification:Impact;letter-spacing:0px;word-spacing:0px;fill:#666666;fill-opacity:1;stroke:none;stroke-width:0.64940137px;stroke-linecap:butt;stroke-linejoin:miter;stroke-opacity:1"
       d="m 73.043255,1.0200076 h 5.377855 q 2.181579,0 3.348476,0.3424553 1.179572,0.3424618 1.763021,0.9893239 0.59613,0.6468623 0.799068,1.5727722 0.215621,0.9132206 0.215621,2.8411309 v 1.7883864 q 0,1.9659647 -0.405876,2.8664967 -0.405876,0.900538 -1.496668,1.382517 -1.078105,0.481979 -2.828443,0.481979 h -1.433254 v 8.269717 h -5.3398 z m 5.3398,3.5133652 v 5.2256486 q 0.22831,0.012658 0.393193,0.012658 0.735655,0 1.01469,-0.3551379 Q 80.082661,9.0487141 80.082661,7.90719 V 6.220271 q 0,-1.0527381 -0.329772,-1.3698277 -0.329773,-0.3170897 -1.369834,-0.3170897 z" /><path
       id="path874"
       style="font-style:normal;font-variant:normal;font-weight:normal;font-stretch:normal;font-size:medium;line-height:125%;font-family:Impact;-inkscape-font-specification:Impact;letter-spacing:0px;word-spacing:0px;fill:#666666;fill-opacity:1;stroke:none;stroke-width:0.64940137px;stroke-linecap:butt;stroke-linejoin:miter;stroke-opacity:1"
       d="M 91.42182,1.0200076 V 21.554786 H 86.082013 V 1.0200076 Z" /><path
       id="path876"
       style="font-style:normal;font-variant:normal;font-weight:normal;font-stretch:normal;font-size:medium;line-height:125%;font-family:Impact;-inkscape-font-specification:Impact;letter-spacing:0px;word-spacing:0px;fill:#666666;fill-opacity:1;stroke:none;stroke-width:0.64940137px;stroke-linecap:butt;stroke-linejoin:miter;stroke-opacity:1"
       d="m 93.590716,1.0200076 h 3.995345 q 3.868499,0 5.225639,0.3551381 1.36985,0.3551446 2.08013,1.1668963 0.71028,0.8117517 0.88785,1.8137584 0.17757,0.9893241 0.17757,3.9065518 v 7.1916138 q 0,2.765027 -0.26635,3.70362 -0.25368,0.925903 -0.90054,1.458614 -0.64688,0.520027 -1.59814,0.735648 -0.95127,0.202938 -2.8665,0.202938 h -6.735004 z m 5.339809,3.5133652 V 18.041428 q 1.154205,0 1.420565,-0.456614 0.26636,-0.46929 0.26636,-2.524042 V 7.0827796 q 0,-1.3951998 -0.0888,-1.7883929 -0.0888,-0.393193 -0.40588,-0.5707654 -0.317083,-0.1902485 -1.192255,-0.1902485 z" /><path
       id="path878"
       style="font-style:normal;font-variant:normal;font-weight:normal;font-stretch:normal;font-size:medium;line-height:125%;font-family:Impact;-inkscape-font-specification:Impact;letter-spacing:0px;word-spacing:0px;fill:#f47721;fill-opacity:1;stroke:none;stroke-width:0.64940137px;stroke-linecap:butt;stroke-linejoin:miter;stroke-opacity:1"
       d="m 107.94858,1.0200076 h 9.04342 v 4.1094896 h -3.70363 v 3.8938755 h 3.29775 v 3.9065513 h -3.29775 v 8.624862 h -5.33979 z" /><path
       id="path880"
       style="font-style:normal;font-variant:normal;font-weight:normal;font-stretch:normal;font-size:medium;line-height:125%;font-family:Impact;-inkscape-font-specification:Impact;letter-spacing:0px;word-spacing:0px;fill:#f47721;fill-opacity:1;stroke:none;stroke-width:0.64940137px;stroke-linecap:butt;stroke-linejoin:miter;stroke-opacity:1"
       d="m 127.01206,1.0200076 3.05676,20.5347784 h -5.46665 l -0.26636,-3.69093 h -1.91522 l -0.3171,3.69093 h -5.53005 l 2.71429,-20.5347784 z m -2.82845,13.2036484 q -0.40588,-3.487994 -0.81175,-8.6121796 -0.81175,5.8851996 -1.01469,8.6121796 z" /><path
       id="path882"
       style="font-style:normal;font-variant:normal;font-weight:normal;font-stretch:normal;font-size:medium;line-height:125%;font-family:Impact;-inkscape-font-specification:Impact;letter-spacing:0px;word-spacing:0px;fill:#f47721;fill-opacity:1;stroke:none;stroke-width:0.64940137px;stroke-linecap:butt;stroke-linejoin:miter;stroke-opacity:1"
       d="m 143.45003,9.9746415 h -5.33981 v -3.576779 q 0,-1.5600829 -0.17756,-1.9405931 -0.16489,-0.393193 -0.74834,-0.393193 -0.65955,0 -0.83712,0.4692964 -0.17757,0.4692899 -0.17757,2.0293792 v 9.538083 q 0,1.496662 0.17757,1.953275 0.17757,0.456607 0.79907,0.456607 0.59613,0 0.7737,-0.456607 0.19025,-0.456613 0.19025,-2.143531 V 13.3358 h 5.33981 v 0.79907 q 0,3.183592 -0.45662,4.515372 -0.44392,1.331778 -1.99133,2.333785 -1.53471,1.002007 -3.79239,1.002007 -2.34647,0 -3.86851,-0.849807 -1.52203,-0.8498 -2.01669,-2.346469 -0.49466,-1.509351 -0.49466,-4.528054 V 8.2623522 q 0,-2.2196343 0.1522,-3.3231036 0.1522,-1.1161585 0.90054,-2.1435375 0.76101,-1.0273724 2.09279,-1.6108141 1.34447,-0.59613086 3.08212,-0.59613086 2.35916,0 3.89387,0.91322056 1.53472,0.9132207 2.0167,2.2830484 0.48198,1.3571514 0.48198,4.2363307 z" /><path
       id="path884"
       style="font-style:normal;font-variant:normal;font-weight:normal;font-stretch:normal;font-size:medium;line-height:125%;font-family:Impact;-inkscape-font-specification:Impact;letter-spacing:0px;word-spacing:0px;fill:#f47721;fill-opacity:1;stroke:none;stroke-width:0.64940137px;stroke-linecap:butt;stroke-linejoin:miter;stroke-opacity:1"
       d="m 156.14634,1.0200076 v 4.1094896 h -3.17092 V 21.554786 h -5.3398 V 5.1294972 H 144.4774 V 1.0200076 Z" /><path
       id="path886"
       style="font-style:normal;font-variant:normal;font-weight:normal;font-stretch:normal;font-size:medium;line-height:125%;font-family:Impact;-inkscape-font-specification:Impact;letter-spacing:0px;word-spacing:0px;fill:#f47721;fill-opacity:1;stroke:none;stroke-width:0.64940137px;stroke-linecap:butt;stroke-linejoin:miter;stroke-opacity:1"
       d="M 169.50219,1.0200076 V 14.743683 q 0,2.333786 -0.1522,3.285062 -0.15222,0.938585 -0.90054,1.940593 -0.74834,0.989317 -1.97865,1.509351 -1.21763,0.507345 -2.87919,0.507345 -1.83911,0 -3.247,-0.608814 -1.40789,-0.608814 -2.10548,-1.585454 -0.6976,-0.976642 -0.82443,-2.054746 -0.12684,-1.090793 -0.12684,-4.566102 V 1.0200076 h 5.3398 V 16.417924 q 0,1.344462 0.13952,1.724972 0.15221,0.367821 0.59614,0.367821 0.50733,0 0.64686,-0.405876 0.1522,-0.418558 0.1522,-1.953275 V 1.0200076 Z" /><path
       id="path888"
       style="font-style:normal;font-variant:normal;font-weight:normal;font-stretch:normal;font-size:medium;line-height:125%;font-family:Impact;-inkscape-font-specification:Impact;letter-spacing:0px;word-spacing:0px;fill:#f47721;fill-opacity:1;stroke:none;stroke-width:0.64940137px;stroke-linecap:butt;stroke-linejoin:miter;stroke-opacity:1"
       d="m 171.56961,1.0200076 h 3.77972 q 3.77972,0 5.1115,0.2917241 1.34447,0.291724 2.18159,1.4966687 0.84979,1.1922554 0.84979,3.8177657 0,2.3972066 -0.59612,3.2216413 -0.59613,0.8244346 -2.34648,0.9893236 1.58546,0.393193 2.13086,1.052738 0.54539,0.659552 0.67223,1.217628 0.13951,0.545393 0.13951,3.031386 v 5.415903 h -4.95929 V 14.731 q 0,-1.648869 -0.26635,-2.042062 -0.25368,-0.393193 -1.35715,-0.393193 v 9.259041 h -5.33981 z m 5.33981,3.5133652 V 9.099476 q 0.90054,0 1.25567,-0.2409929 0.36783,-0.2536691 0.36783,-1.6108205 V 6.1188212 q 0,-0.9766347 -0.35514,-1.2810416 -0.34246,-0.3044068 -1.26836,-0.3044068 z" /><path
       id="path890"
       style="font-style:normal;font-variant:normal;font-weight:normal;font-stretch:normal;font-size:medium;line-height:125%;font-family:Impact;-inkscape-font-specification:Impact;letter-spacing:0px;word-spacing:0px;fill:#f47721;fill-opacity:1;stroke:none;stroke-width:0.64940137px;stroke-linecap:butt;stroke-linejoin:miter;stroke-opacity:1"
       d="m 185.57233,1.0200076 h 8.9039 v 4.1094896 h -3.5641 v 3.8938755 h 3.3358 v 3.9065513 h -3.3358 v 4.515372 h 3.91925 v 4.10949 h -9.25905 z" /><path
       id="path892"
       style="font-style:normal;font-variant:normal;font-weight:normal;font-stretch:normal;font-size:medium;line-height:125%;font-family:Impact;-inkscape-font-specification:Impact;letter-spacing:0px;word-spacing:0px;fill:#000000;fill-opacity:1;stroke:none;stroke-width:0.64940137px;stroke-linecap:butt;stroke-linejoin:miter;stroke-opacity:1"
       d="M 206.28468,1.0200076 V 21.554786 h -5.3398 V 1.0200076 Z" /><path
       id="path894"
       style="font-style:normal;font-variant:normal;font-weight:normal;font-stretch:normal;font-size:medium;line-height:125%;font-family:Impact;-inkscape-font-specification:Impact;letter-spacing:0px;word-spacing:0px;fill:#000000;fill-opacity:1;stroke:none;stroke-width:0.64940137px;stroke-linecap:butt;stroke-linejoin:miter;stroke-opacity:1"
       d="M 220.37619,1.0200076 V 21.554786 h -4.68026 l -2.77772,-9.335145 v 9.335145 h -4.46463 V 1.0200076 h 4.46463 l 2.99334,9.2463584 V 1.0200076 Z" /><path
       id="path896"
       style="font-style:normal;font-variant:normal;font-weight:normal;font-stretch:normal;font-size:medium;line-height:125%;font-family:Impact;-inkscape-font-specification:Impact;letter-spacing:0px;word-spacing:0px;fill:#000000;fill-opacity:1;stroke:none;stroke-width:0.64940137px;stroke-linecap:butt;stroke-linejoin:miter;stroke-opacity:1"
       d="m 222.50703,1.0200076 h 3.99534 q 3.86851,0 5.22566,0.3551381 1.36983,0.3551446 2.08011,1.1668963 0.71028,0.8117517 0.88785,1.8137584 0.17757,0.9893241 0.17757,3.9065518 v 7.1916138 q 0,2.765027 -0.26635,3.70362 -0.25368,0.925903 -0.90054,1.458614 -0.64686,0.520027 -1.59813,0.735648 -0.95128,0.202938 -2.8665,0.202938 h -6.73501 z m 5.33981,3.5133652 V 18.041428 q 1.15421,0 1.42056,-0.456614 0.26636,-0.46929 0.26636,-2.524042 V 7.0827796 q 0,-1.3951998 -0.0888,-1.7883929 -0.0888,-0.393193 -0.40588,-0.5707654 -0.31708,-0.1902485 -1.19225,-0.1902485 z" /><path
       id="path898"
       style="font-style:normal;font-variant:normal;font-weight:normal;font-stretch:normal;font-size:medium;line-height:125%;font-family:Impact;-inkscape-font-specification:Impact;letter-spacing:0px;word-spacing:0px;fill:#000000;fill-opacity:1;stroke:none;stroke-width:0.64940137px;stroke-linecap:butt;stroke-linejoin:miter;stroke-opacity:1"
       d="M 242.2047,1.0200076 V 21.554786 h -5.33981 V 1.0200076 Z" /><path
       id="path900"
       style="font-style:normal;font-variant:normal;font-weight:normal;font-stretch:normal;font-size:medium;line-height:125%;font-family:Impact;-inkscape-font-specification:Impact;letter-spacing:0px;word-spacing:0px;fill:#000000;fill-opacity:1;stroke:none;stroke-width:0.64940137px;stroke-linecap:butt;stroke-linejoin:miter;stroke-opacity:1"
       d="m 257.05722,1.0200076 -2.7143,20.5347784 h -8.10483 L 243.15596,1.0200076 h 5.63154 q 0.97663,8.4853446 1.3952,14.3451724 0.41855,-5.9232484 0.87516,-10.5274004 l 0.36782,-3.817772 z" /><path
       id="path902"
       style="font-style:normal;font-variant:normal;font-weight:normal;font-stretch:normal;font-size:medium;line-height:125%;font-family:Impact;-inkscape-font-specification:Impact;letter-spacing:0px;word-spacing:0px;fill:#000000;fill-opacity:1;stroke:none;stroke-width:0.64940137px;stroke-linecap:butt;stroke-linejoin:miter;stroke-opacity:1"
       d="M 263.31024,1.0200076 V 21.554786 h -5.33981 V 1.0200076 Z" /><path
       id="path904"
       style="font-style:normal;font-variant:normal;font-weight:normal;font-stretch:normal;font-size:medium;line-height:125%;font-family:Impact;-inkscape-font-specification:Impact;letter-spacing:0px;word-spacing:0px;fill:#000000;fill-opacity:1;stroke:none;stroke-width:0.64940137px;stroke-linecap:butt;stroke-linejoin:miter;stroke-opacity:1"
       d="m 265.47914,1.0200076 h 3.99533 q 3.86852,0 5.22566,0.3551381 1.36983,0.3551446 2.08012,1.1668963 0.71028,0.8117517 0.88785,1.8137584 0.17756,0.9893241 0.17756,3.9065518 v 7.1916138 q 0,2.765027 -0.26635,3.70362 -0.25367,0.925903 -0.90054,1.458614 -0.64686,0.520027 -1.59813,0.735648 -0.95128,0.202938 -2.8665,0.202938 h -6.735 z m 5.3398,3.5133652 V 18.041428 q 1.15421,0 1.42057,-0.456614 0.26636,-0.46929 0.26636,-2.524042 V 7.0827796 q 0,-1.3951998 -0.0888,-1.7883929 -0.0888,-0.393193 -0.40586,-0.5707654 -0.3171,-0.1902485 -1.19227,-0.1902485 z" /><path
       id="path906"
       style="font-style:normal;font-variant:normal;font-weight:normal;font-stretch:normal;font-size:medium;line-height:125%;font-family:Impact;-inkscape-font-specification:Impact;letter-spacing:0px;word-spacing:0px;fill:#000000;fill-opacity:1;stroke:none;stroke-width:0.64940137px;stroke-linecap:butt;stroke-linejoin:miter;stroke-opacity:1"
       d="M 291.97521,1.0200076 V 14.743683 q 0,2.333786 -0.15219,3.285062 -0.15221,0.938585 -0.90054,1.940593 -0.74833,0.989317 -1.97864,1.509351 -1.21763,0.507345 -2.87919,0.507345 -1.83912,0 -3.247,-0.608814 -1.40789,-0.608814 -2.10548,-1.585454 -0.69761,-0.976642 -0.82444,-2.054746 -0.12683,-1.090793 -0.12683,-4.566102 V 1.0200076 h 5.33979 V 16.417924 q 0,1.344462 0.13953,1.724972 0.1522,0.367821 0.59613,0.367821 0.50734,0 0.64686,-0.405876 0.15221,-0.418558 0.15221,-1.953275 V 1.0200076 Z" /><path
       id="path908"
       style="font-style:normal;font-variant:normal;font-weight:normal;font-stretch:normal;font-size:medium;line-height:125%;font-family:Impact;-inkscape-font-specification:Impact;letter-spacing:0px;word-spacing:0px;fill:#000000;fill-opacity:1;stroke:none;stroke-width:0.64940137px;stroke-linecap:butt;stroke-linejoin:miter;stroke-opacity:1"
       d="m 303.26365,1.0200076 3.05674,20.5347784 h -5.46664 l -0.26635,-3.69093 h -1.91523 l -0.31709,3.69093 h -5.53006 l 2.7143,-20.5347784 z M 300.4352,14.223656 q -0.40588,-3.487994 -0.81176,-8.6121796 -0.81175,5.8851996 -1.01468,8.6121796 z" /><path
       id="path910"
       style="font-style:normal;font-variant:normal;font-weight:normal;font-stretch:normal;font-size:medium;line-height:125%;font-family:Impact;-inkscape-font-specification:Impact;letter-spacing:0px;word-spacing:0px;fill:#000000;fill-opacity:1;stroke:none;stroke-width:0.64940137px;stroke-linecap:butt;stroke-linejoin:miter;stroke-opacity:1"
       d="M 312.57342,1.0200076 V 17.445296 h 3.247 v 4.10949 h -8.5868 V 1.0200076 Z" /><path
       id="path912"
       style="font-style:normal;font-variant:normal;font-weight:normal;font-stretch:normal;font-size:medium;line-height:125%;font-family:Impact;-inkscape-font-specification:Impact;letter-spacing:0px;word-spacing:0px;fill:#000000;fill-opacity:1;stroke:none;stroke-width:0.64940137px;stroke-linecap:butt;stroke-linejoin:miter;stroke-opacity:1"
       d="m 333.00674,7.2349798 h -4.95931 V 5.7129454 q 0,-1.0654208 -0.19025,-1.357145 -0.19025,-0.291724 -0.63418,-0.291724 -0.48198,0 -0.73566,0.393193 -0.24098,0.393193 -0.24098,1.1922619 0,1.0273725 0.27905,1.5474 0.26635,0.5200277 1.50934,1.255676 3.5641,2.1181657 4.49,3.4753107 0.92591,1.357151 0.92591,4.375854 0,2.194262 -0.52003,3.234317 -0.50735,1.040063 -1.97865,1.750345 -1.4713,0.6976 -3.42457,0.6976 -2.14353,0 -3.66556,-0.811752 -1.50936,-0.811751 -1.97866,-2.067434 -0.46929,-1.255676 -0.46929,-3.564096 V 14.19829 h 4.95929 v 2.498669 q 0,1.154213 0.20295,1.483985 0.21562,0.329773 0.74833,0.329773 0.53271,0 0.78638,-0.418559 0.26636,-0.418558 0.26636,-1.242992 0,-1.813759 -0.49466,-2.371835 -0.50735,-0.558082 -2.49867,-1.864497 -1.99134,-1.319096 -2.63819,-1.915227 -0.64687,-0.59613 -1.07812,-1.6488687 -0.41855,-1.0527381 -0.41855,-2.6889243 0,-2.3591582 0.59613,-3.4499446 0.60881,-1.0907929 1.95327,-1.6996067 1.34447,-0.62149656 3.24701,-0.62149656 2.08011,0 3.53873,0.67222776 1.4713,0.6722343 1.94059,1.6996068 0.48199,1.0146895 0.48199,3.4626274 z" /><path
       id="path914"
       style="font-style:normal;font-variant:normal;font-weight:normal;font-stretch:normal;font-size:medium;line-height:125%;font-family:Impact;-inkscape-font-specification:Impact;letter-spacing:0px;word-spacing:0px;fill:#000000;fill-opacity:1;stroke:none;stroke-width:0.64940137px;stroke-linecap:butt;stroke-linejoin:miter;stroke-opacity:1"
       d="m 347.33922,13.044076 q 0,3.094807 -0.1522,4.388537 -0.13952,1.281042 -0.91323,2.34647 -0.76101,1.065421 -2.06742,1.636186 -1.30642,0.570765 -3.04407,0.570765 -1.64887,0 -2.96797,-0.532717 -1.30641,-0.545393 -2.10548,-1.623503 -0.79906,-1.078104 -0.95127,-2.346469 -0.15221,-1.268359 -0.15221,-4.439269 V 9.5307176 q 0,-3.0948067 0.13952,-4.3758483 0.15221,-1.2937308 0.91323,-2.3591582 0.7737,-1.0654208 2.0801,-1.6361862 1.30642,-0.57075876 3.04408,-0.57075876 1.64887,0 2.95528,0.54539316 1.31909,0.5327105 2.11817,1.6108206 0.79907,1.0781102 0.95127,2.346469 0.1522,1.2683651 0.1522,4.4392687 z m -5.33981,-6.7476824 q 0,-1.4332483 -0.16488,-1.8264414 -0.15221,-0.4058758 -0.64687,-0.4058758 -0.41855,0 -0.64686,0.3297725 -0.21562,0.3170896 -0.21562,1.9025447 v 9.5888134 q 0,1.788393 0.13952,2.206951 0.1522,0.418559 0.68492,0.418559 0.54539,0 0.69759,-0.481972 0.1522,-0.481979 0.1522,-2.295738 z" /><path
       id="path916"
       style="font-style:normal;font-variant:normal;font-weight:normal;font-stretch:normal;font-size:medium;line-height:125%;font-family:Impact;-inkscape-font-specification:Impact;letter-spacing:0px;word-spacing:0px;fill:#000000;fill-opacity:1;stroke:none;stroke-width:0.64940137px;stroke-linecap:butt;stroke-linejoin:miter;stroke-opacity:1"
       d="m 349.34324,1.0200076 h 9.04342 v 4.1094896 h -3.70363 v 3.8938755 h 3.29775 v 3.9065513 h -3.29775 v 8.624862 h -5.33979 z" /><path
       id="path918"
       style="font-style:normal;font-variant:normal;font-weight:normal;font-stretch:normal;font-size:medium;line-height:125%;font-family:Impact;-inkscape-font-specification:Impact;letter-spacing:0px;word-spacing:0px;fill:#000000;fill-opacity:1;stroke:none;stroke-width:0.64940137px;stroke-linecap:butt;stroke-linejoin:miter;stroke-opacity:1"
       d="m 370.44878,1.0200076 v 4.1094896 h -3.17091 V 21.554786 h -5.3398 V 5.1294972 h -3.15822 V 1.0200076 Z" /><path
       id="path920"
       style="font-style:normal;font-variant:normal;font-weight:normal;font-stretch:normal;font-size:medium;line-height:125%;font-family:Impact;-inkscape-font-specification:Impact;letter-spacing:0px;word-spacing:0px;fill:#000000;fill-opacity:1;stroke:none;stroke-width:0.64940137px;stroke-linecap:butt;stroke-linejoin:miter;stroke-opacity:1"
       d="m 392.3407,1.0200076 -2.37183,20.5347784 h -6.67159 q -0.91321,-4.730986 -1.61082,-10.755709 -0.31709,2.574778 -1.48398,10.755709 h -6.63353 L 371.18443,1.0200076 h 5.1876 l 0.54539,7.1662478 0.55808,6.9125726 q 0.29173,-5.365173 1.4713,-14.0788204 h 5.55542 q 0.11416,0.9005378 0.58346,6.7730547 l 0.58344,7.8004267 q 0.44393,-7.4452886 1.48398,-14.5734814 z" /><path
       id="path922"
       style="font-style:normal;font-variant:normal;font-weight:normal;font-stretch:normal;font-size:medium;line-height:125%;font-family:Impact;-inkscape-font-specification:Impact;letter-spacing:0px;word-spacing:0px;fill:#000000;fill-opacity:1;stroke:none;stroke-width:0.64940137px;stroke-linecap:butt;stroke-linejoin:miter;stroke-opacity:1"
       d="m 402.37345,1.0200076 3.05675,20.5347784 h -5.46664 l -0.26635,-3.69093 h -1.91523 l -0.31709,3.69093 h -5.53006 L 394.64912,1.0200076 Z M 399.545,14.223656 q -0.40588,-3.487994 -0.81176,-8.6121796 -0.81174,5.8851996 -1.01468,8.6121796 z" /><path
       id="path924"
       style="font-style:normal;font-variant:normal;font-weight:normal;font-stretch:normal;font-size:medium;line-height:125%;font-family:Impact;-inkscape-font-specification:Impact;letter-spacing:0px;word-spacing:0px;fill:#000000;fill-opacity:1;stroke:none;stroke-width:0.64940137px;stroke-linecap:butt;stroke-linejoin:miter;stroke-opacity:1"
       d="m 406.3688,1.0200076 h 3.7797 q 3.77972,0 5.1115,0.2917241 1.34448,0.291724 2.18159,1.4966687 0.8498,1.1922554 0.8498,3.8177657 0,2.3972066 -0.59613,3.2216413 -0.59613,0.8244346 -2.34646,0.9893236 1.58545,0.393193 2.13084,1.052738 0.5454,0.659552 0.67223,1.217628 0.13952,0.545393 0.13952,3.031386 v 5.415903 H 413.3321 V 14.731 q 0,-1.648869 -0.26635,-2.042062 -0.25369,-0.393193 -1.35716,-0.393193 v 9.259041 h -5.33979 z m 5.33979,3.5133652 V 9.099476 q 0.90054,0 1.25569,-0.2409929 0.36782,-0.2536691 0.36782,-1.6108205 V 6.1188212 q 0,-0.9766347 -0.35515,-1.2810416 -0.34245,-0.3044068 -1.26836,-0.3044068 z" /><path
       id="path926"
       style="font-style:normal;font-variant:normal;font-weight:normal;font-stretch:normal;font-size:medium;line-height:125%;font-family:Impact;-inkscape-font-specification:Impact;letter-spacing:0px;word-spacing:0px;fill:#000000;fill-opacity:1;stroke:none;stroke-width:0.64940137px;stroke-linecap:butt;stroke-linejoin:miter;stroke-opacity:1"
       d="m 420.37151,1.0200076 h 8.90389 v 4.1094896 h -3.5641 v 3.8938755 h 3.3358 v 3.9065513 h -3.3358 v 4.515372 h 3.91925 v 4.10949 h -9.25904 z" /><path
       id="path928"
       style="font-style:normal;font-variant:normal;font-weight:normal;font-stretch:normal;font-size:medium;line-height:125%;font-family:Impact;-inkscape-font-specification:Impact;letter-spacing:0px;word-spacing:0px;fill:#000000;fill-opacity:1;stroke:none;stroke-width:0.64940137px;stroke-linecap:butt;stroke-linejoin:miter;stroke-opacity:1"
       d="m 447.05784,7.2349798 h -4.95929 V 5.7129454 q 0,-1.0654208 -0.19026,-1.357145 -0.19025,-0.291724 -0.63417,-0.291724 -0.48199,0 -0.73566,0.393193 -0.24099,0.393193 -0.24099,1.1922619 0,1.0273725 0.27904,1.5474 0.26635,0.5200277 1.50936,1.255676 3.5641,2.1181657 4.49,3.4753107 0.9259,1.357151 0.9259,4.375854 0,2.194262 -0.52002,3.234317 -0.50735,1.040063 -1.97866,1.750345 -1.47129,0.6976 -3.42457,0.6976 -2.14353,0 -3.66557,-0.811752 -1.50934,-0.811751 -1.97864,-2.067434 -0.4693,-1.255676 -0.4693,-3.564096 V 14.19829 h 4.9593 v 2.498669 q 0,1.154213 0.20293,1.483985 0.21562,0.329773 0.74835,0.329773 0.5327,0 0.78638,-0.418559 0.26635,-0.418558 0.26635,-1.242992 0,-1.813759 -0.49466,-2.371835 -0.50734,-0.558082 -2.49867,-1.864497 -1.99133,-1.319096 -2.6382,-1.915227 -0.64686,-0.59613 -1.0781,-1.6488687 -0.41857,-1.0527381 -0.41857,-2.6889243 0,-2.3591582 0.59614,-3.4499446 0.60882,-1.0907929 1.95327,-1.6996067 1.34447,-0.62149656 3.24701,-0.62149656 2.08011,0 3.53873,0.67222776 1.4713,0.6722343 1.9406,1.6996068 0.48197,1.0146895 0.48197,3.4626274 z" /><path
       id="path930"
       style="font-style:normal;font-variant:normal;font-weight:normal;font-stretch:normal;font-size:medium;line-height:125%;font-family:Impact;-inkscape-font-specification:Impact;letter-spacing:0px;word-spacing:0px;fill:#000000;fill-opacity:1;stroke:none;stroke-width:0.64940137px;stroke-linecap:butt;stroke-linejoin:miter;stroke-opacity:1"
       d="m 461.39034,13.044076 q 0,3.094807 -0.15222,4.388537 -0.13951,1.281042 -0.91321,2.34647 -0.76102,1.065421 -2.06743,1.636186 -1.30641,0.570765 -3.04407,0.570765 -1.64887,0 -2.96796,-0.532717 -1.30642,-0.545393 -2.10548,-1.623503 -0.79908,-1.078104 -0.95127,-2.346469 -0.15221,-1.268359 -0.15221,-4.439269 V 9.5307176 q 0,-3.0948067 0.13952,-4.3758483 0.1522,-1.2937308 0.91322,-2.3591582 0.7737,-1.0654208 2.08011,-1.6361862 1.30641,-0.57075876 3.04407,-0.57075876 1.64887,0 2.95529,0.54539316 1.31909,0.5327105 2.11815,1.6108206 0.79908,1.0781102 0.95127,2.346469 0.15222,1.2683651 0.15222,4.4392687 z m -5.33981,-6.7476824 q 0,-1.4332483 -0.16488,-1.8264414 -0.15221,-0.4058758 -0.64687,-0.4058758 -0.41856,0 -0.64687,0.3297725 -0.21562,0.3170896 -0.21562,1.9025447 v 9.5888134 q 0,1.788393 0.13952,2.206951 0.15221,0.418559 0.68492,0.418559 0.54539,0 0.6976,-0.481972 0.1522,-0.481979 0.1522,-2.295738 z" /><path
       id="path932"
       style="font-style:normal;font-variant:normal;font-weight:normal;font-stretch:normal;font-size:medium;line-height:125%;font-family:Impact;-inkscape-font-specification:Impact;letter-spacing:0px;word-spacing:0px;fill:#000000;fill-opacity:1;stroke:none;stroke-width:0.64940137px;stroke-linecap:butt;stroke-linejoin:miter;stroke-opacity:1"
       d="M 468.73415,1.0200076 V 17.445296 h 3.247 v 4.10949 h -8.58681 V 1.0200076 Z" /><path
       id="path934"
       style="font-style:normal;font-variant:normal;font-weight:normal;font-stretch:normal;font-size:medium;line-height:125%;font-family:Impact;-inkscape-font-specification:Impact;letter-spacing:0px;word-spacing:0px;fill:#000000;fill-opacity:1;stroke:none;stroke-width:0.64940137px;stroke-linecap:butt;stroke-linejoin:miter;stroke-opacity:1"
       d="M 485.4258,1.0200076 V 14.743683 q 0,2.333786 -0.15222,3.285062 -0.15219,0.938585 -0.90053,1.940593 -0.74833,0.989317 -1.97865,1.509351 -1.21762,0.507345 -2.87917,0.507345 -1.83913,0 -3.24701,-0.608814 -1.40788,-0.608814 -2.10548,-1.585454 -0.6976,-0.976642 -0.82443,-2.054746 -0.12685,-1.090793 -0.12685,-4.566102 V 1.0200076 h 5.33981 V 16.417924 q 0,1.344462 0.13952,1.724972 0.15221,0.367821 0.59613,0.367821 0.50734,0 0.64687,-0.405876 0.1522,-0.418558 0.1522,-1.953275 V 1.0200076 Z" /><path
       id="path936"
       style="font-style:normal;font-variant:normal;font-weight:normal;font-stretch:normal;font-size:medium;line-height:125%;font-family:Impact;-inkscape-font-specification:Impact;letter-spacing:0px;word-spacing:0px;fill:#000000;fill-opacity:1;stroke:none;stroke-width:0.64940137px;stroke-linecap:butt;stroke-linejoin:miter;stroke-opacity:1"
       d="m 498.24893,1.0200076 v 4.1094896 h -3.1709 V 21.554786 h -5.33981 V 5.1294972 H 486.58 V 1.0200076 Z" /><path
       id="path938"
       style="font-style:normal;font-variant:normal;font-weight:normal;font-stretch:normal;font-size:medium;line-height:125%;font-family:Impact;-inkscape-font-specification:Impact;letter-spacing:0px;word-spacing:0px;fill:#000000;fill-opacity:1;stroke:none;stroke-width:0.64940137px;stroke-linecap:butt;stroke-linejoin:miter;stroke-opacity:1"
       d="M 504.80637,1.0200076 V 21.554786 h -5.33981 V 1.0200076 Z" /><path
       id="path940"
       style="font-style:normal;font-variant:normal;font-weight:normal;font-stretch:normal;font-size:medium;line-height:125%;font-family:Impact;-inkscape-font-specification:Impact;letter-spacing:0px;word-spacing:0px;fill:#000000;fill-opacity:1;stroke:none;stroke-width:0.64940137px;stroke-linecap:butt;stroke-linejoin:miter;stroke-opacity:1"
       d="m 519.17691,13.044076 q 0,3.094807 -0.15221,4.388537 -0.13951,1.281042 -0.91321,2.34647 -0.76102,1.065421 -2.06744,1.636186 -1.3064,0.570765 -3.04406,0.570765 -1.64888,0 -2.96797,-0.532717 -1.30642,-0.545393 -2.10548,-1.623503 -0.79907,-1.078104 -0.95127,-2.346469 -0.1522,-1.268359 -0.1522,-4.439269 V 9.5307176 q 0,-3.0948067 0.13951,-4.3758483 0.1522,-1.2937308 0.91323,-2.3591582 0.7737,-1.0654208 2.08011,-1.6361862 1.3064,-0.57075876 3.04407,-0.57075876 1.64886,0 2.95528,0.54539316 1.3191,0.5327105 2.11816,1.6108206 0.79907,1.0781102 0.95127,2.346469 0.15221,1.2683651 0.15221,4.4392687 z M 513.8371,6.2963936 q 0,-1.4332483 -0.16488,-1.8264414 -0.1522,-0.4058758 -0.64686,-0.4058758 -0.41857,0 -0.64688,0.3297725 -0.21562,0.3170896 -0.21562,1.9025447 v 9.5888134 q 0,1.788393 0.13953,2.206951 0.1522,0.418559 0.6849,0.418559 0.5454,0 0.69761,-0.481972 0.1522,-0.481979 0.1522,-2.295738 z" /><path
       id="path942"
       style="font-style:normal;font-variant:normal;font-weight:normal;font-stretch:normal;font-size:medium;line-height:125%;font-family:Impact;-inkscape-font-specification:Impact;letter-spacing:0px;word-spacing:0px;fill:#000000;fill-opacity:1;stroke:none;stroke-width:0.64940137px;stroke-linecap:butt;stroke-linejoin:miter;stroke-opacity:1"
       d="M 533.10352,1.0200076 V 21.554786 h -4.68025 l -2.77772,-9.335145 v 9.335145 h -4.46464 V 1.0200076 h 4.46464 l 2.99334,9.2463584 V 1.0200076 Z" /><path
       id="path944"
       style="font-style:normal;font-variant:normal;font-weight:normal;font-stretch:normal;font-size:medium;line-height:125%;font-family:Impact;-inkscape-font-specification:Impact;letter-spacing:0px;word-spacing:0px;fill:#000000;fill-opacity:1;stroke:none;stroke-width:0.64940137px;stroke-linecap:butt;stroke-linejoin:miter;stroke-opacity:1"
       d="m 546.54816,7.2349798 h -4.9593 V 5.7129454 q 0,-1.0654208 -0.19026,-1.357145 -0.19024,-0.291724 -0.63417,-0.291724 -0.48198,0 -0.73565,0.393193 -0.24098,0.393193 -0.24098,1.1922619 0,1.0273725 0.27903,1.5474 0.26636,0.5200277 1.50935,1.255676 3.5641,2.1181657 4.49,3.4753107 0.92591,1.357151 0.92591,4.375854 0,2.194262 -0.52003,3.234317 -0.50735,1.040063 -1.97864,1.750345 -1.47131,0.6976 -3.42459,0.6976 -2.14353,0 -3.66556,-0.811752 -1.50935,-0.811751 -1.97865,-2.067434 -0.46929,-1.255676 -0.46929,-3.564096 V 14.19829 h 4.95929 v 2.498669 q 0,1.154213 0.20295,1.483985 0.21562,0.329773 0.74833,0.329773 0.5327,0 0.78638,-0.418559 0.26636,-0.418558 0.26636,-1.242992 0,-1.813759 -0.49466,-2.371835 -0.50735,-0.558082 -2.49868,-1.864497 -1.99133,-1.319096 -2.63819,-1.915227 -0.64687,-0.59613 -1.07811,-1.6488687 -0.41856,-1.0527381 -0.41856,-2.6889243 0,-2.3591582 0.59613,-3.4499446 0.60882,-1.0907929 1.95328,-1.6996067 1.34446,-0.62149656 3.247,-0.62149656 2.08013,0 3.53873,0.67222776 1.47131,0.6722343 1.9406,1.6996068 0.48198,1.0146895 0.48198,3.4626274 z" /></g><polygon
     transform="matrix(0.99903203,0,0,0.99903203,-1.0559769,-0.63538437)"
     style="fill:#f47721"
     id="polygon8"
     points="32.79,23.364 46.942,0.636 15.209,0.636 1.057,23.364 " /><circle
     style="fill:#ffffff;stroke-width:0.99903202"
     id="circle10"
     r="4.0690575"
     cy="11.352001"
     cx="22.919794" /></g>
<text
   id="text48"
   display="none"
   style="display:none"
   x="44.827499"
   y="21.984142"><tspan
     id="tspan42"
     font-size="26"
     display="inline"
     y="21.984142"
     x="44.827499"
     style="font-size:26px;font-family:Impact;display:inline;fill:#ffffff">rapid</tspan><tspan
     id="tspan44"
     font-size="26"
     display="inline"
     y="21.984142"
     x="106.9455"
     style="font-size:26px;font-family:Impact;display:inline;fill:#f47721">fac</tspan><tspan
     id="tspan46"
     font-size="26"
     display="inline"
     y="21.984142"
     x="144.89151"
     style="font-size:26px;font-family:Impact;display:inline;fill:#f47721">-</tspan></text>






</svg>